Cuprum-Italic.ufo
<glyph name="exclam" format="2">
  <advance width="230"/>
  <unicode hex="0021"/>
  <outline>
    <contour>
      <point x="105" y="185" type="line"/>
      <point x="185" y="185" type="line"/>
      <point x="293" y="700" type="line"/>
      <point x="183" y="700" type="line"/>
    </contour>
    <contour>
      <point x="67" y="-5" type="line"/>
      <point x="157" y="-5" type="line"/>
      <point x="176" y="105" type="line"/>
      <point x="86" y="105" type="line"/>
    </contour>
  </outline>
</glyph>
<glyph name="dollar" format="2">
  <advance width="445"/>
  <unicode hex="0024"/>
  <outline>
    <contour>
      <point x="174" y="-90" type="line"/>
      <point x="234" y="-90" type="line"/>
      <point x="248" y="-6" type="line"/>
      <point x="367" y="9"/>
      <point x="421" y="68"/>
      <point x="441" y="180" type="curve" smooth="yes"/>
      <point x="465" y="312"/>
      <point x="387" y="350"/>
      <point x="317" y="385" type="curve"/>
      <point x="363" y="645" type="line"/>
      <point x="488" y="645" type="line"/>
      <point x="496" y="690" type="line"/>
      <point x="472" y="698"/>
      <point x="425" y="707"/>
      <point x="375" y="709" type="curve"/>
      <point x="389" y="790" type="line"/>
      <point x="329" y="790" type="line"/>
      <point x="314" y="708" type="line"/>
      <point x="206" y="697"/>
      <point x="147" y="638"/>
      <point x="128" y="530" type="curve" smooth="yes"/>
      <point x="104" y="395"/>
      <point x="177" y="354"/>
      <point x="246" y="319" type="curve"/>
      <point x="199" y="55" type="line"/>
      <point x="44" y="55" type="line"/>
      <point x="36" y="10" type="line"/>
      <point x="65" y="0"/>
      <point x="123" y="-10"/>
      <point x="183" y="-10" type="curve" smooth="yes"/>
      <point x="188" y="-10" type="line"/>
    </contour>
    <contour>
      <point x="261" y="66" type="curve"/>
      <point x="300" y="289" type="line"/>
      <point x="336" y="266"/>
      <point x="361" y="236"/>
      <point x="351" y="180" type="curve" smooth="yes"/>
      <point x="341" y="121"/>
      <point x="314" y="84"/>
    </contour>
    <contour>
      <point x="263" y="417" type="line"/>
      <point x="229" y="441"/>
      <point x="208" y="472"/>
      <point x="218" y="530" type="curve" smooth="yes"/>
      <point x="228" y="585"/>
      <point x="255" y="621"/>
      <point x="302" y="636" type="curve"/>
    </contour>
  </outline>
</glyph>
<glyph name="percent" format="2">
  <advance width="680"/>
  <unicode hex="0025"/>
  <outline>
    <contour>
      <point x="100" y="0" type="line"/>
      <point x="190" y="0" type="line"/>
      <point x="703" y="700" type="line"/>
      <point x="613" y="700" type="line"/>
    </contour>
    <contour>
      <point x="508" y="-10" type="curve" smooth="yes"/>
      <point x="598" y="-10"/>
      <point x="657" y="40"/>
      <point x="674" y="140" type="curve" smooth="yes"/>
      <point x="692" y="240"/>
      <point x="651" y="290"/>
      <point x="561" y="290" type="curve" smooth="yes"/>
      <point x="471" y="290"/>
      <point x="412" y="240"/>
      <point x="394" y="140" type="curve" smooth="yes"/>
      <point x="377" y="40"/>
      <point x="418" y="-10"/>
    </contour>
    <contour>
      <point x="518" y="50" type="curve" smooth="yes"/>
      <point x="478" y="50"/>
      <point x="458" y="75"/>
      <point x="469" y="140" type="curve" smooth="yes"/>
      <point x="481" y="205"/>
      <point x="510" y="230"/>
      <point x="550" y="230" type="curve" smooth="yes"/>
      <point x="590" y="230"/>
      <point x="611" y="205"/>
      <point x="599" y="140" type="curve" smooth="yes"/>
      <point x="588" y="75"/>
      <point x="558" y="50"/>
    </contour>
    <contour>
      <point x="242" y="410" type="curve" smooth="yes"/>
      <point x="332" y="410"/>
      <point x="391" y="460"/>
      <point x="408" y="560" type="curve" smooth="yes"/>
      <point x="426" y="660"/>
      <point x="385" y="710"/>
      <point x="295" y="710" type="curve" smooth="yes"/>
      <point x="205" y="710"/>
      <point x="146" y="660"/>
      <point x="128" y="560" type="curve" smooth="yes"/>
      <point x="111" y="460"/>
      <point x="152" y="410"/>
    </contour>
    <contour>
      <point x="252" y="470" type="curve" smooth="yes"/>
      <point x="212" y="470"/>
      <point x="192" y="495"/>
      <point x="203" y="560" type="curve" smooth="yes"/>
      <point x="215" y="625"/>
      <point x="244" y="650"/>
      <point x="284" y="650" type="curve" smooth="yes"/>
      <point x="324" y="650"/>
      <point x="345" y="625"/>
      <point x="333" y="560" type="curve" smooth="yes"/>
      <point x="322" y="495"/>
      <point x="292" y="470"/>
    </contour>
  </outline>
</glyph>
<glyph name="ampersand" format="2">
  <advance width="515"/>
  <unicode hex="0026"/>
  <outline>
    <contour>
      <point x="193" y="-10" type="curve" smooth="yes"/>
      <point x="283" y="-10"/>
      <point x="318" y="20"/>
      <point x="364" y="80" type="curve"/>
      <point x="405" y="0" type="line"/>
      <point x="505" y="0" type="line"/>
      <point x="414" y="170" type="line"/>
      <point x="543" y="390" type="line"/>
      <point x="453" y="390" type="line"/>
      <point x="374" y="255" type="line"/>
      <point x="291" y="405"/>
      <point x="292" y="466"/>
      <point x="303" y="530" type="curve" smooth="yes"/>
      <point x="316" y="605"/>
      <point x="363" y="645"/>
      <point x="423" y="645" type="curve" smooth="yes"/>
      <point x="553" y="645" type="line"/>
      <point x="561" y="690" type="line"/>
      <point x="533" y="700"/>
      <point x="475" y="710"/>
      <point x="415" y="710" type="curve" smooth="yes"/>
      <point x="305" y="710"/>
      <point x="234" y="650"/>
      <point x="213" y="530" type="curve" smooth="yes"/>
      <point x="197" y="440"/>
      <point x="214" y="365"/>
      <point x="323" y="160" type="curve"/>
      <point x="268" y="75"/>
      <point x="244" y="55"/>
      <point x="204" y="55" type="curve" smooth="yes"/>
      <point x="174" y="55"/>
      <point x="138" y="75"/>
      <point x="156" y="180" type="curve" smooth="yes"/>
      <point x="183" y="330" type="line"/>
      <point x="113" y="330" type="line"/>
      <point x="97" y="300"/>
      <point x="77" y="240"/>
      <point x="66" y="180" type="curve" smooth="yes"/>
      <point x="43" y="50"/>
      <point x="93" y="-10"/>
    </contour>
  </outline>
</glyph>
<glyph name="quotesingle" format="2">
  <advance width="180"/>
  <unicode hex="0027"/>
  <outline>
    <contour>
      <point x="146" y="465" type="line"/>
      <point x="196" y="465" type="line"/>
      <point x="263" y="700" type="line"/>
      <point x="163" y="700" type="line"/>
    </contour>
  </outline>
</glyph>
<glyph name="parenleft" format="2">
  <advance width="246"/>
  <unicode hex="0028"/>
  <outline>
    <contour>
      <point x="156" y="-190" type="curve"/>
      <point x="217" y="-160" type="line"/>
      <point x="176" y="-20"/>
      <point x="169" y="110"/>
      <point x="199" y="280" type="curve" smooth="yes"/>
      <point x="229" y="450"/>
      <point x="282" y="580"/>
      <point x="372" y="720" type="curve"/>
      <point x="322" y="750" type="line"/>
      <point x="180" y="570"/>
      <point x="122" y="410"/>
      <point x="99" y="280" type="curve" smooth="yes"/>
      <point x="76" y="150"/>
      <point x="78" y="-10"/>
    </contour>
  </outline>
</glyph>
<glyph name="parenright" format="2">
  <advance width="246"/>
  <unicode hex="0029"/>
  <outline>
    <contour>
      <point x="22" y="-190" type="line"/>
      <point x="164" y="-10"/>
      <point x="222" y="150"/>
      <point x="245" y="280" type="curve" smooth="yes"/>
      <point x="268" y="410"/>
      <point x="266" y="570"/>
      <point x="188" y="750" type="curve"/>
      <point x="126" y="720" type="line"/>
      <point x="168" y="580"/>
      <point x="175" y="450"/>
      <point x="145" y="280" type="curve" smooth="yes"/>
      <point x="115" y="110"/>
      <point x="62" y="-20"/>
      <point x="-28" y="-160" type="curve"/>
    </contour>
  </outline>
</glyph>
<glyph name="asterisk" format="2">
  <advance width="430"/>
  <unicode hex="002A"/>
  <outline>
    <contour>
      <point x="202" y="325" type="line"/>
      <point x="295" y="455" type="line"/>
      <point x="342" y="325" type="line"/>
      <point x="413" y="360" type="line"/>
      <point x="366" y="490" type="line"/>
      <point x="500" y="515" type="line"/>
      <point x="497" y="585" type="line"/>
      <point x="352" y="555" type="line"/>
      <point x="378" y="700" type="line"/>
      <point x="298" y="700" type="line"/>
      <point x="272" y="555" type="line"/>
      <point x="139" y="585" type="line"/>
      <point x="110" y="515" type="line"/>
      <point x="236" y="490" type="line"/>
      <point x="143" y="360" type="line"/>
    </contour>
  </outline>
</glyph>
<glyph name="plus" format="2">
  <advance width="430"/>
  <unicode hex="002B"/>
  <outline>
    <contour>
      <point x="192" y="100" type="line"/>
      <point x="272" y="100" type="line"/>
      <point x="301" y="265" type="line"/>
      <point x="446" y="265" type="line"/>
      <point x="459" y="335" type="line"/>
      <point x="314" y="335" type="line"/>
      <point x="343" y="500" type="line"/>
      <point x="263" y="500" type="line"/>
      <point x="234" y="335" type="line"/>
      <point x="89" y="335" type="line"/>
      <point x="76" y="265" type="line"/>
      <point x="221" y="265" type="line"/>
    </contour>
  </outline>
</glyph>
<glyph name="comma" format="2">
  <advance width="170"/>
  <unicode hex="002C"/>
  <outline>
    <contour>
      <point x="19" y="-115" type="line"/>
      <point x="84" y="-115" type="line"/>
      <point x="153" y="105" type="line"/>
      <point x="58" y="105" type="line"/>
    </contour>
  </outline>
</glyph>
<glyph name="hyphen" format="2">
  <advance width="360"/>
  <unicode hex="002D"/>
  <outline>
    <contour>
      <point x="76" y="265" type="line"/>
      <point x="376" y="265" type="line"/>
      <point x="389" y="335" type="line"/>
      <point x="89" y="335" type="line"/>
    </contour>
  </outline>
</glyph>
<glyph name="period" format="2">
  <advance width="170"/>
  <unicode hex="002E"/>
  <outline>
    <contour>
      <point x="39" y="-5" type="line"/>
      <point x="129" y="-5" type="line"/>
      <point x="148" y="105" type="line"/>
      <point x="58" y="105" type="line"/>
    </contour>
  </outline>
</glyph>
<glyph name="one" format="2">
  <advance width="280"/>
  <unicode hex="0031"/>
  <outline>
    <contour>
      <point x="120" y="0" type="line"/>
      <point x="210" y="0" type="line"/>
      <point x="333" y="700" type="line"/>
      <point x="283" y="700" type="line"/>
      <point x="223" y="700"/>
      <point x="161" y="690"/>
      <point x="129" y="680" type="curve"/>
      <point x="121" y="630" type="line"/>
      <point x="231" y="630" type="line"/>
    </contour>
  </outline>
</glyph>
<glyph name="three" format="2">
  <advance width="415"/>
  <unicode hex="0033"/>
  <outline>
    <contour>
      <point x="163" y="-10" type="curve" smooth="yes"/>
      <point x="313" y="-10"/>
      <point x="383" y="50"/>
      <point x="408" y="190" type="curve" smooth="yes"/>
      <point x="422" y="270"/>
      <point x="406" y="348"/>
      <point x="329" y="368" type="curve"/>
      <point x="330" y="372" type="line"/>
      <point x="395" y="402"/>
      <point x="434" y="450"/>
      <point x="447" y="525" type="curve" smooth="yes"/>
      <point x="469" y="650"/>
      <point x="420" y="710"/>
      <point x="300" y="710" type="curve" smooth="yes"/>
      <point x="240" y="710"/>
      <point x="178" y="700"/>
      <point x="146" y="690" type="curve"/>
      <point x="138" y="645" type="line"/>
      <point x="268" y="645" type="line" smooth="yes"/>
      <point x="338" y="645"/>
      <point x="371" y="605"/>
      <point x="357" y="525" type="curve" smooth="yes"/>
      <point x="342" y="440"/>
      <point x="295" y="400"/>
      <point x="205" y="400" type="curve" smooth="yes"/>
      <point x="145" y="400" type="line"/>
      <point x="133" y="330" type="line"/>
      <point x="203" y="330" type="line" smooth="yes"/>
      <point x="303" y="330"/>
      <point x="336" y="290"/>
      <point x="318" y="190" type="curve" smooth="yes"/>
      <point x="301" y="95"/>
      <point x="254" y="55"/>
      <point x="154" y="55" type="curve" smooth="yes"/>
      <point x="24" y="55" type="line"/>
      <point x="16" y="10" type="line"/>
      <point x="45" y="0"/>
      <point x="103" y="-10"/>
    </contour>
  </outline>
</glyph>
<glyph name="four" format="2">
  <advance width="470"/>
  <unicode hex="0034"/>
  <outline>
    <contour>
      <point x="290" y="0" type="line"/>
      <point x="380" y="0" type="line"/>
      <point x="411" y="180" type="line"/>
      <point x="471" y="180" type="line"/>
      <point x="484" y="250" type="line"/>
      <point x="424" y="250" type="line"/>
      <point x="503" y="700" type="line"/>
      <point x="403" y="700" type="line"/>
      <point x="75" y="260" type="line"/>
      <point x="61" y="180" type="line"/>
      <point x="321" y="180" type="line"/>
    </contour>
    <contour>
      <point x="159" y="250" type="line"/>
      <point x="383" y="555" type="line"/>
      <point x="387" y="555" type="line"/>
      <point x="334" y="250" type="line"/>
    </contour>
  </outline>
</glyph>
<glyph name="five" format="2">
  <advance width="445"/>
  <unicode hex="0035"/>
  <outline>
    <contour>
      <point x="193" y="-10" type="curve" smooth="yes"/>
      <point x="343" y="-10"/>
      <point x="413" y="50"/>
      <point x="440" y="200" type="curve" smooth="yes"/>
      <point x="466" y="350"/>
      <point x="417" y="410"/>
      <point x="267" y="410" type="curve" smooth="yes"/>
      <point x="222" y="410" type="line"/>
      <point x="261" y="635" type="line"/>
      <point x="496" y="635" type="line"/>
      <point x="508" y="700" type="line"/>
      <point x="183" y="700" type="line"/>
      <point x="120" y="345" type="line"/>
      <point x="235" y="345" type="line" smooth="yes"/>
      <point x="335" y="345"/>
      <point x="368" y="305"/>
      <point x="350" y="200" type="curve" smooth="yes"/>
      <point x="331" y="95"/>
      <point x="284" y="55"/>
      <point x="184" y="55" type="curve" smooth="yes"/>
      <point x="54" y="55" type="line"/>
      <point x="46" y="10" type="line"/>
      <point x="75" y="0"/>
      <point x="133" y="-10"/>
    </contour>
  </outline>
</glyph>
<glyph name="six" format="2">
  <advance width="455"/>
  <unicode hex="0036"/>
  <outline>
    <contour>
      <point x="233" y="-10" type="curve" smooth="yes"/>
      <point x="358" y="-10"/>
      <point x="428" y="50"/>
      <point x="455" y="200" type="curve" smooth="yes"/>
      <point x="483" y="360"/>
      <point x="434" y="420"/>
      <point x="334" y="420" type="curve" smooth="yes"/>
      <point x="294" y="420"/>
      <point x="242" y="410"/>
      <point x="210" y="400" type="curve"/>
      <point x="243" y="585"/>
      <point x="303" y="645"/>
      <point x="378" y="645" type="curve" smooth="yes"/>
      <point x="508" y="645" type="line"/>
      <point x="516" y="690" type="line"/>
      <point x="488" y="700"/>
      <point x="430" y="710"/>
      <point x="370" y="710" type="curve" smooth="yes"/>
      <point x="245" y="710"/>
      <point x="161" y="630"/>
      <point x="124" y="420" type="curve" smooth="yes"/>
      <point x="85" y="200" type="line" smooth="yes"/>
      <point x="58" y="50"/>
      <point x="108" y="-10"/>
    </contour>
    <contour>
      <point x="243" y="50" type="curve" smooth="yes"/>
      <point x="188" y="50"/>
      <point x="155" y="90"/>
      <point x="175" y="200" type="curve" smooth="yes"/>
      <point x="203" y="360" type="line"/>
      <point x="268" y="360" type="line"/>
      <point x="353" y="360"/>
      <point x="386" y="320"/>
      <point x="365" y="200" type="curve" smooth="yes"/>
      <point x="345" y="90"/>
      <point x="298" y="50"/>
    </contour>
  </outline>
</glyph>
<glyph name="seven" format="2">
  <advance width="410"/>
  <unicode hex="0037"/>
  <outline>
    <contour>
      <point x="110" y="0" type="curve"/>
      <point x="200" y="0" type="line"/>
      <point x="263" y="190"/>
      <point x="360" y="400"/>
      <point x="489" y="620" type="curve"/>
      <point x="503" y="700" type="line"/>
      <point x="143" y="700" type="line"/>
      <point x="131" y="630" type="line"/>
      <point x="401" y="630" type="line"/>
      <point x="270" y="400"/>
      <point x="173" y="190"/>
    </contour>
  </outline>
</glyph>
<glyph name="eight" format="2">
  <advance width="480"/>
  <unicode hex="0038"/>
  <outline>
    <contour>
      <point x="238" y="-10" type="curve" smooth="yes"/>
      <point x="378" y="-10"/>
      <point x="448" y="50"/>
      <point x="471" y="180" type="curve" smooth="yes"/>
      <point x="488" y="277"/>
      <point x="437" y="337"/>
      <point x="384" y="363" type="curve"/>
      <point x="384" y="367" type="line"/>
      <point x="436" y="385"/>
      <point x="503" y="443"/>
      <point x="519" y="535" type="curve" smooth="yes"/>
      <point x="539" y="650"/>
      <point x="490" y="710"/>
      <point x="365" y="710" type="curve" smooth="yes"/>
      <point x="240" y="710"/>
      <point x="169" y="650"/>
      <point x="149" y="535" type="curve" smooth="yes"/>
      <point x="133" y="443"/>
      <point x="178" y="385"/>
      <point x="224" y="367" type="curve"/>
      <point x="224" y="363" type="line"/>
      <point x="160" y="337"/>
      <point x="88" y="277"/>
      <point x="71" y="180" type="curve" smooth="yes"/>
      <point x="48" y="50"/>
      <point x="98" y="-10"/>
    </contour>
    <contour>
      <point x="248" y="50" type="curve" smooth="yes"/>
      <point x="178" y="50"/>
      <point x="145" y="90"/>
      <point x="161" y="180" type="curve" smooth="yes"/>
      <point x="174" y="255"/>
      <point x="227" y="295"/>
      <point x="297" y="325" type="curve"/>
      <point x="357" y="295"/>
      <point x="394" y="255"/>
      <point x="381" y="180" type="curve" smooth="yes"/>
      <point x="365" y="90"/>
      <point x="318" y="50"/>
    </contour>
    <contour>
      <point x="311" y="405" type="curve"/>
      <point x="259" y="425"/>
      <point x="226" y="465"/>
      <point x="239" y="535" type="curve" smooth="yes"/>
      <point x="252" y="610"/>
      <point x="299" y="650"/>
      <point x="354" y="650" type="curve" smooth="yes"/>
      <point x="409" y="650"/>
      <point x="442" y="610"/>
      <point x="429" y="535" type="curve" smooth="yes"/>
      <point x="416" y="465"/>
      <point x="369" y="425"/>
    </contour>
  </outline>
</glyph>
<glyph name="colon" format="2">
  <advance width="170"/>
  <unicode hex="003A"/>
  <outline>
    <contour>
      <point x="108" y="390" type="line"/>
      <point x="198" y="390" type="line"/>
      <point x="218" y="500" type="line"/>
      <point x="128" y="500" type="line"/>
    </contour>
    <contour>
      <point x="39" y="-5" type="line"/>
      <point x="129" y="-5" type="line"/>
      <point x="148" y="105" type="line"/>
      <point x="58" y="105" type="line"/>
    </contour>
  </outline>
</glyph>
<glyph name="semicolon" format="2">
  <advance width="165"/>
  <unicode hex="003B"/>
  <outline>
    <contour>
      <point x="19" y="-115" type="line"/>
      <point x="84" y="-115" type="line"/>
      <point x="153" y="105" type="line"/>
      <point x="58" y="105" type="line"/>
    </contour>
    <contour>
      <point x="108" y="390" type="line"/>
      <point x="198" y="390" type="line"/>
      <point x="218" y="500" type="line"/>
      <point x="128" y="500" type="line"/>
    </contour>
  </outline>
</glyph>
<glyph name="less" format="2">
  <advance width="400"/>
  <unicode hex="003C"/>
  <outline>
    <contour>
      <point x="361" y="10" type="line"/>
      <point x="378" y="105" type="line"/>
      <point x="173" y="249" type="line"/>
      <point x="175" y="256" type="line"/>
      <point x="430" y="400" type="line"/>
      <point x="447" y="495" type="line"/>
      <point x="92" y="295" type="line"/>
      <point x="77" y="210" type="line"/>
    </contour>
  </outline>
</glyph>
<glyph name="equal" format="2">
  <advance width="430"/>
  <unicode hex="003D"/>
  <outline>
    <contour>
      <point x="60" y="175" type="line"/>
      <point x="430" y="175" type="line"/>
      <point x="444" y="250" type="line"/>
      <point x="74" y="250" type="line"/>
    </contour>
    <contour>
      <point x="91" y="350" type="line"/>
      <point x="461" y="350" type="line"/>
      <point x="474" y="425" type="line"/>
      <point x="104" y="425" type="line"/>
    </contour>
  </outline>
</glyph>
<glyph name="greater" format="2">
  <advance width="400"/>
  <unicode hex="003E"/>
  <outline>
    <contour>
      <point x="41" y="10" type="line"/>
      <point x="397" y="210" type="line"/>
      <point x="412" y="295" type="line"/>
      <point x="127" y="495" type="line"/>
      <point x="110" y="400" type="line"/>
      <point x="315" y="256" type="line"/>
      <point x="313" y="249" type="line"/>
      <point x="58" y="105" type="line"/>
    </contour>
  </outline>
</glyph>
<glyph name="question" format="2">
  <advance width="370"/>
  <unicode hex="003F"/>
  <outline>
    <contour>
      <point x="137" y="185" type="curve"/>
      <point x="217" y="185" type="line"/>
      <point x="243" y="330"/>
      <point x="401" y="350"/>
      <point x="431" y="520" type="curve" smooth="yes"/>
      <point x="454" y="650"/>
      <point x="405" y="710"/>
      <point x="285" y="710" type="curve" smooth="yes"/>
      <point x="225" y="710"/>
      <point x="163" y="700"/>
      <point x="131" y="690" type="curve"/>
      <point x="123" y="645" type="line"/>
      <point x="253" y="645" type="line" smooth="yes"/>
      <point x="323" y="645"/>
      <point x="356" y="605"/>
      <point x="341" y="520" type="curve" smooth="yes"/>
      <point x="317" y="380"/>
      <point x="168" y="360"/>
    </contour>
    <contour>
      <point x="99" y="-5" type="line"/>
      <point x="189" y="-5" type="line"/>
      <point x="208" y="105" type="line"/>
      <point x="118" y="105" type="line"/>
    </contour>
  </outline>
</glyph>
<glyph name="at" format="2">
  <advance width="830"/>
  <unicode hex="0040"/>
  <outline>
    <contour>
      <point x="414" y="-90" type="curve" smooth="yes"/>
      <point x="474" y="-90"/>
      <point x="535" y="-80"/>
      <point x="567" y="-70" type="curve"/>
      <point x="575" y="-25" type="line"/>
      <point x="445" y="-25" type="line" smooth="yes"/>
      <point x="235" y="-25"/>
      <point x="151" y="65"/>
      <point x="194" y="310" type="curve" smooth="yes"/>
      <point x="238" y="560"/>
      <point x="354" y="650"/>
      <point x="524" y="650" type="curve" smooth="yes"/>
      <point x="704" y="650"/>
      <point x="786" y="550"/>
      <point x="754" y="365" type="curve" smooth="yes"/>
      <point x="724" y="195"/>
      <point x="677" y="155"/>
      <point x="607" y="155" type="curve"/>
      <point x="671" y="520" type="line"/>
      <point x="643" y="530"/>
      <point x="585" y="540"/>
      <point x="545" y="540" type="curve" smooth="yes"/>
      <point x="395" y="540"/>
      <point x="324" y="480"/>
      <point x="291" y="290" type="curve" smooth="yes"/>
      <point x="264" y="140"/>
      <point x="324" y="80"/>
      <point x="404" y="80" type="curve" smooth="yes"/>
      <point x="444" y="80"/>
      <point x="486" y="95"/>
      <point x="516" y="120" type="curve"/>
      <point x="521" y="120" type="line"/>
      <point x="520" y="90" type="line"/>
      <point x="730" y="90"/>
      <point x="808" y="160"/>
      <point x="844" y="365" type="curve" smooth="yes"/>
      <point x="882" y="580"/>
      <point x="775" y="710"/>
      <point x="535" y="710" type="curve" smooth="yes"/>
      <point x="305" y="710"/>
      <point x="152" y="580"/>
      <point x="104" y="310" type="curve" smooth="yes"/>
      <point x="57" y="40"/>
      <point x="164" y="-90"/>
    </contour>
    <contour>
      <point x="444" y="140" type="curve" smooth="yes"/>
      <point x="394" y="140"/>
      <point x="361" y="180"/>
      <point x="381" y="290" type="curve" smooth="yes"/>
      <point x="407" y="440"/>
      <point x="454" y="480"/>
      <point x="534" y="480" type="curve" smooth="yes"/>
      <point x="574" y="480" type="line"/>
      <point x="518" y="160" type="line"/>
      <point x="501" y="150"/>
      <point x="469" y="140"/>
    </contour>
  </outline>
</glyph>
<glyph name="B" format="2">
  <advance width="500"/>
  <unicode hex="0042"/>
  <outline>
    <contour>
      <point x="228" y="-10" type="curve" smooth="yes"/>
      <point x="398" y="-10"/>
      <point x="468" y="50"/>
      <point x="493" y="190" type="curve" smooth="yes"/>
      <point x="509" y="280"/>
      <point x="491" y="350"/>
      <point x="415" y="373" type="curve"/>
      <point x="416" y="377" type="line"/>
      <point x="482" y="410"/>
      <point x="511" y="465"/>
      <point x="522" y="525" type="curve" smooth="yes"/>
      <point x="544" y="650"/>
      <point x="495" y="710"/>
      <point x="355" y="710" type="curve" smooth="yes"/>
      <point x="295" y="710"/>
      <point x="244" y="705"/>
      <point x="191" y="690" type="curve"/>
      <point x="71" y="10" type="line"/>
      <point x="119" y="-5"/>
      <point x="168" y="-10"/>
    </contour>
    <contour>
      <point x="169" y="55" type="line"/>
      <point x="219" y="335" type="line"/>
      <point x="289" y="335" type="line"/>
      <point x="389" y="335"/>
      <point x="422" y="295"/>
      <point x="403" y="190" type="curve" smooth="yes"/>
      <point x="386" y="94"/>
      <point x="339" y="55"/>
      <point x="239" y="55" type="curve" smooth="yes"/>
    </contour>
    <contour>
      <point x="230" y="400" type="line"/>
      <point x="273" y="645" type="line"/>
      <point x="333" y="645" type="line" smooth="yes"/>
      <point x="413" y="645"/>
      <point x="446" y="605"/>
      <point x="432" y="525" type="curve" smooth="yes"/>
      <point x="417" y="440"/>
      <point x="370" y="400"/>
      <point x="290" y="400" type="curve" smooth="yes"/>
    </contour>
  </outline>
</glyph>
<glyph name="C" format="2">
  <advance width="435"/>
  <unicode hex="0043"/>
  <anchor x="245" y="0" name="bottom"/>
  <anchor x="403" y="700" name="top"/>
  <outline>
    <contour>
      <point x="268" y="-10" type="curve" smooth="yes"/>
      <point x="328" y="-10"/>
      <point x="390" y="0"/>
      <point x="421" y="10" type="curve"/>
      <point x="429" y="55" type="line"/>
      <point x="299" y="55" type="line" smooth="yes"/>
      <point x="209" y="55"/>
      <point x="160" y="115"/>
      <point x="201" y="350" type="curve" smooth="yes"/>
      <point x="243" y="585"/>
      <point x="313" y="645"/>
      <point x="393" y="645" type="curve" smooth="yes"/>
      <point x="523" y="645" type="line"/>
      <point x="531" y="690" type="line"/>
      <point x="503" y="700"/>
      <point x="445" y="710"/>
      <point x="385" y="710" type="curve" smooth="yes"/>
      <point x="255" y="710"/>
      <point x="161" y="630"/>
      <point x="111" y="350" type="curve" smooth="yes"/>
      <point x="62" y="70"/>
      <point x="128" y="-10"/>
    </contour>
  </outline>
</glyph>
<glyph name="D" format="2">
  <advance width="520"/>
  <unicode hex="0044"/>
  <outline>
    <contour>
      <point x="228" y="-10" type="curve" smooth="yes"/>
      <point x="388" y="-10"/>
      <point x="482" y="70"/>
      <point x="531" y="350" type="curve" smooth="yes"/>
      <point x="581" y="630"/>
      <point x="515" y="710"/>
      <point x="355" y="710" type="curve" smooth="yes"/>
      <point x="295" y="710"/>
      <point x="244" y="705"/>
      <point x="191" y="690" type="curve"/>
      <point x="71" y="10" type="line"/>
      <point x="119" y="-5"/>
      <point x="168" y="-10"/>
    </contour>
    <contour>
      <point x="169" y="55" type="line"/>
      <point x="273" y="645" type="line"/>
      <point x="343" y="645" type="line" smooth="yes"/>
      <point x="433" y="645"/>
      <point x="483" y="585"/>
      <point x="441" y="350" type="curve" smooth="yes"/>
      <point x="400" y="115"/>
      <point x="329" y="55"/>
      <point x="239" y="55" type="curve" smooth="yes"/>
    </contour>
  </outline>
</glyph>
<glyph name="E" format="2">
  <advance width="450"/>
  <unicode hex="0045"/>
  <anchor x="240" y="0" name="bottom"/>
  <anchor x="361" y="10" name="ogonek"/>
  <anchor x="370" y="700" name="top"/>
  <anchor x="99" y="700" name="topleft"/>
  <outline>
    <contour>
      <point x="70" y="0" type="line"/>
      <point x="410" y="0" type="line"/>
      <point x="422" y="70" type="line"/>
      <point x="172" y="70" type="line"/>
      <point x="218" y="330" type="line"/>
      <point x="438" y="330" type="line"/>
      <point x="450" y="400" type="line"/>
      <point x="230" y="400" type="line"/>
      <point x="271" y="630" type="line"/>
      <point x="521" y="630" type="line"/>
      <point x="533" y="700" type="line"/>
      <point x="193" y="700" type="line"/>
    </contour>
  </outline>
</glyph>
<glyph name="F" format="2">
  <advance width="430"/>
  <unicode hex="0046"/>
  <outline>
    <contour>
      <point x="70" y="0" type="line"/>
      <point x="160" y="0" type="line"/>
      <point x="215" y="315" type="line"/>
      <point x="425" y="315" type="line"/>
      <point x="437" y="385" type="line"/>
      <point x="227" y="385" type="line"/>
      <point x="271" y="630" type="line"/>
      <point x="521" y="630" type="line"/>
      <point x="533" y="700" type="line"/>
      <point x="193" y="700" type="line"/>
    </contour>
  </outline>
</glyph>
<glyph name="G" format="2">
  <advance width="500"/>
  <unicode hex="0047"/>
  <outline>
    <contour>
      <point x="288" y="-10" type="curve" smooth="yes"/>
      <point x="348" y="-10"/>
      <point x="410" y="0"/>
      <point x="441" y="10" type="curve"/>
      <point x="507" y="380" type="line"/>
      <point x="417" y="380" type="line"/>
      <point x="359" y="55" type="line"/>
      <point x="319" y="55" type="line" smooth="yes"/>
      <point x="209" y="55"/>
      <point x="160" y="115"/>
      <point x="201" y="350" type="curve" smooth="yes"/>
      <point x="243" y="585"/>
      <point x="313" y="645"/>
      <point x="403" y="645" type="curve" smooth="yes"/>
      <point x="533" y="645" type="line"/>
      <point x="541" y="690" type="line"/>
      <point x="513" y="700"/>
      <point x="455" y="710"/>
      <point x="395" y="710" type="curve" smooth="yes"/>
      <point x="255" y="710"/>
      <point x="161" y="630"/>
      <point x="111" y="350" type="curve" smooth="yes"/>
      <point x="62" y="70"/>
      <point x="128" y="-10"/>
    </contour>
  </outline>
</glyph>
<glyph name="H" format="2">
  <advance width="530"/>
  <unicode hex="0048"/>
  <outline>
    <contour>
      <point x="70" y="0" type="line"/>
      <point x="160" y="0" type="line"/>
      <point x="216" y="320" type="line"/>
      <point x="426" y="320" type="line"/>
      <point x="370" y="0" type="line"/>
      <point x="460" y="0" type="line"/>
      <point x="583" y="700" type="line"/>
      <point x="493" y="700" type="line"/>
      <point x="438" y="390" type="line"/>
      <point x="228" y="390" type="line"/>
      <point x="283" y="700" type="line"/>
      <point x="193" y="700" type="line"/>
    </contour>
  </outline>
</glyph>
<glyph name="I" format="2">
  <advance width="230"/>
  <unicode hex="0049"/>
  <anchor x="114" y="0" name="bottom"/>
  <anchor x="143" y="0" name="ogonek"/>
  <anchor x="238" y="700" name="top"/>
  <anchor x="193" y="700" name="topleft"/>
  <outline>
    <contour>
      <point x="70" y="0" type="line"/>
      <point x="160" y="0" type="line"/>
      <point x="283" y="700" type="line"/>
      <point x="193" y="700" type="line"/>
    </contour>
  </outline>
</glyph>
<glyph name="J" format="2">
  <advance width="350"/>
  <unicode hex="004A"/>
  <outline>
    <contour>
      <point x="88" y="-10" type="curve" smooth="yes"/>
      <point x="228" y="-10"/>
      <point x="298" y="50"/>
      <point x="332" y="240" type="curve" smooth="yes"/>
      <point x="413" y="700" type="line"/>
      <point x="323" y="700" type="line"/>
      <point x="242" y="240" type="line" smooth="yes"/>
      <point x="216" y="95"/>
      <point x="169" y="55"/>
      <point x="99" y="55" type="curve" smooth="yes"/>
      <point x="9" y="55" type="line"/>
      <point x="1" y="10" type="line"/>
      <point x="25" y="0"/>
      <point x="58" y="-10"/>
    </contour>
  </outline>
</glyph>
<glyph name="K" format="2">
  <advance width="490"/>
  <unicode hex="004B"/>
  <outline>
    <contour>
      <point x="70" y="0" type="line"/>
      <point x="160" y="0" type="line"/>
      <point x="221" y="350" type="line"/>
      <point x="375" y="0" type="line"/>
      <point x="480" y="0" type="line"/>
      <point x="317" y="355" type="line"/>
      <point x="583" y="700" type="line"/>
      <point x="478" y="700" type="line"/>
      <point x="223" y="360" type="line"/>
      <point x="283" y="700" type="line"/>
      <point x="193" y="700" type="line"/>
    </contour>
  </outline>
</glyph>
<glyph name="L" format="2">
  <advance width="420"/>
  <unicode hex="004C"/>
  <anchor x="245" y="0" name="bottom"/>
  <outline>
    <contour>
      <point x="70" y="0" type="line"/>
      <point x="410" y="0" type="line"/>
      <point x="422" y="70" type="line"/>
      <point x="172" y="70" type="line"/>
      <point x="283" y="700" type="line"/>
      <point x="193" y="700" type="line"/>
    </contour>
  </outline>
</glyph>
<glyph name="M" format="2">
  <advance width="740"/>
  <unicode hex="004D"/>
  <outline>
    <contour>
      <point x="55" y="0" type="line"/>
      <point x="145" y="0" type="line"/>
      <point x="266" y="520" type="line"/>
      <point x="271" y="520" type="line"/>
      <point x="340" y="90" type="line"/>
      <point x="430" y="90" type="line"/>
      <point x="651" y="520" type="line"/>
      <point x="656" y="520" type="line"/>
      <point x="595" y="0" type="line"/>
      <point x="685" y="0" type="line"/>
      <point x="768" y="700" type="line"/>
      <point x="658" y="700" type="line"/>
      <point x="410" y="220" type="line"/>
      <point x="406" y="220" type="line"/>
      <point x="328" y="700" type="line"/>
      <point x="218" y="700" type="line"/>
    </contour>
  </outline>
</glyph>
<glyph name="N" format="2">
  <advance width="540"/>
  <unicode hex="004E"/>
  <outline>
    <contour>
      <point x="70" y="0" type="line"/>
      <point x="160" y="0" type="line"/>
      <point x="247" y="495" type="line"/>
      <point x="252" y="495" type="line"/>
      <point x="370" y="0" type="line"/>
      <point x="470" y="0" type="line"/>
      <point x="593" y="700" type="line"/>
      <point x="503" y="700" type="line"/>
      <point x="416" y="205" type="line"/>
      <point x="411" y="205" type="line"/>
      <point x="293" y="700" type="line"/>
      <point x="193" y="700" type="line"/>
    </contour>
  </outline>
</glyph>
<glyph name="O" format="2">
  <advance width="530"/>
  <unicode hex="004F"/>
  <anchor x="269" y="0" name="bottom"/>
  <anchor x="283" y="350" name="center"/>
  <anchor x="433" y="10" name="ogonek"/>
  <anchor x="390" y="700" name="top"/>
  <anchor x="99" y="700" name="topleft"/>
  <anchor x="539" y="700" name="topright"/>
  <outline>
    <contour>
      <point x="263" y="-10" type="curve" smooth="yes"/>
      <point x="398" y="-10"/>
      <point x="492" y="70"/>
      <point x="541" y="350" type="curve" smooth="yes"/>
      <point x="591" y="630"/>
      <point x="525" y="710"/>
      <point x="390" y="710" type="curve" smooth="yes"/>
      <point x="255" y="710"/>
      <point x="161" y="630"/>
      <point x="111" y="350" type="curve" smooth="yes"/>
      <point x="62" y="70"/>
      <point x="128" y="-10"/>
    </contour>
    <contour>
      <point x="273" y="50" type="curve" smooth="yes"/>
      <point x="208" y="50"/>
      <point x="159" y="110"/>
      <point x="201" y="350" type="curve" smooth="yes"/>
      <point x="244" y="590"/>
      <point x="314" y="650"/>
      <point x="379" y="650" type="curve" smooth="yes"/>
      <point x="444" y="650"/>
      <point x="494" y="590"/>
      <point x="451" y="350" type="curve" smooth="yes"/>
      <point x="409" y="110"/>
      <point x="338" y="50"/>
    </contour>
  </outline>
</glyph>
<glyph name="P" format="2">
  <advance width="490"/>
  <unicode hex="0050"/>
  <outline>
    <contour>
      <point x="70" y="0" type="line"/>
      <point x="160" y="0" type="line"/>
      <point x="197" y="215" type="line"/>
      <point x="222" y="210"/>
      <point x="266" y="205"/>
      <point x="296" y="205" type="curve" smooth="yes"/>
      <point x="426" y="205"/>
      <point x="496" y="265"/>
      <point x="531" y="460" type="curve" smooth="yes"/>
      <point x="564" y="650"/>
      <point x="515" y="710"/>
      <point x="355" y="710" type="curve" smooth="yes"/>
      <point x="295" y="710"/>
      <point x="244" y="705"/>
      <point x="191" y="690" type="curve"/>
    </contour>
    <contour>
      <point x="208" y="275" type="line"/>
      <point x="273" y="645" type="line"/>
      <point x="343" y="645" type="line" smooth="yes"/>
      <point x="433" y="645"/>
      <point x="466" y="605"/>
      <point x="441" y="460" type="curve" smooth="yes"/>
      <point x="415" y="315"/>
      <point x="368" y="275"/>
      <point x="278" y="275" type="curve" smooth="yes"/>
    </contour>
  </outline>
</glyph>
<glyph name="Q" format="2">
  <advance width="540"/>
  <unicode hex="0051"/>
  <outline>
    <contour>
      <point x="263" y="-10" type="curve" smooth="yes"/>
      <point x="528" y="-10" type="line"/>
      <point x="535" y="30" type="line"/>
      <point x="507" y="40"/>
      <point x="468" y="50"/>
      <point x="418" y="50" type="curve"/>
      <point x="473" y="105"/>
      <point x="514" y="195"/>
      <point x="541" y="350" type="curve" smooth="yes"/>
      <point x="591" y="630"/>
      <point x="525" y="710"/>
      <point x="390" y="710" type="curve" smooth="yes"/>
      <point x="255" y="710"/>
      <point x="161" y="630"/>
      <point x="111" y="350" type="curve" smooth="yes"/>
      <point x="62" y="70"/>
      <point x="128" y="-10"/>
    </contour>
    <contour>
      <point x="273" y="50" type="curve" smooth="yes"/>
      <point x="208" y="50"/>
      <point x="159" y="110"/>
      <point x="201" y="350" type="curve" smooth="yes"/>
      <point x="244" y="590"/>
      <point x="314" y="650"/>
      <point x="379" y="650" type="curve" smooth="yes"/>
      <point x="444" y="650"/>
      <point x="494" y="590"/>
      <point x="451" y="350" type="curve" smooth="yes"/>
      <point x="409" y="110"/>
      <point x="338" y="50"/>
    </contour>
  </outline>
</glyph>
<glyph name="S" format="2">
  <advance width="445"/>
  <unicode hex="0053"/>
  <outline>
    <contour>
      <point x="183" y="-10" type="curve" smooth="yes"/>
      <point x="348" y="-10"/>
      <point x="418" y="50"/>
      <point x="441" y="180" type="curve" smooth="yes"/>
      <point x="484" y="425"/>
      <point x="185" y="345"/>
      <point x="218" y="530" type="curve" smooth="yes"/>
      <point x="231" y="605"/>
      <point x="278" y="645"/>
      <point x="358" y="645" type="curve" smooth="yes"/>
      <point x="488" y="645" type="line"/>
      <point x="496" y="690" type="line"/>
      <point x="468" y="700"/>
      <point x="410" y="710"/>
      <point x="350" y="710" type="curve" smooth="yes"/>
      <point x="220" y="710"/>
      <point x="149" y="650"/>
      <point x="128" y="530" type="curve" smooth="yes"/>
      <point x="83" y="275"/>
      <point x="382" y="355"/>
      <point x="351" y="180" type="curve" smooth="yes"/>
      <point x="336" y="95"/>
      <point x="289" y="55"/>
      <point x="174" y="55" type="curve" smooth="yes"/>
      <point x="44" y="55" type="line"/>
      <point x="36" y="10" type="line"/>
      <point x="65" y="0"/>
      <point x="123" y="-10"/>
    </contour>
  </outline>
</glyph>
<glyph name="T" format="2">
  <advance width="430"/>
  <unicode hex="0054"/>
  <outline>
    <contour>
      <point x="170" y="0" type="line"/>
      <point x="260" y="0" type="line"/>
      <point x="371" y="630" type="line"/>
      <point x="531" y="630" type="line"/>
      <point x="543" y="700" type="line"/>
      <point x="133" y="700" type="line"/>
      <point x="121" y="630" type="line"/>
      <point x="281" y="630" type="line"/>
    </contour>
  </outline>
</glyph>
<glyph name="U" format="2">
  <advance width="520"/>
  <unicode hex="0055"/>
  <anchor x="258" y="0" name="bottom"/>
  <anchor x="424" y="10" name="ogonek"/>
  <anchor x="376" y="700" name="top"/>
  <anchor x="623" y="700" name="topright"/>
  <outline>
    <contour>
      <point x="258" y="-10" type="curve" smooth="yes"/>
      <point x="398" y="-10"/>
      <point x="468" y="50"/>
      <point x="502" y="240" type="curve" smooth="yes"/>
      <point x="583" y="700" type="line"/>
      <point x="493" y="700" type="line"/>
      <point x="412" y="240" type="line" smooth="yes"/>
      <point x="385" y="90"/>
      <point x="338" y="50"/>
      <point x="268" y="50" type="curve" smooth="yes"/>
      <point x="198" y="50"/>
      <point x="165" y="90"/>
      <point x="192" y="240" type="curve" smooth="yes"/>
      <point x="273" y="700" type="line"/>
      <point x="183" y="700" type="line"/>
      <point x="102" y="240" type="line" smooth="yes"/>
      <point x="68" y="50"/>
      <point x="118" y="-10"/>
    </contour>
  </outline>
</glyph>
<glyph name="V" format="2">
  <advance width="490"/>
  <unicode hex="0056"/>
  <outline>
    <contour>
      <point x="180" y="0" type="line"/>
      <point x="310" y="0" type="line"/>
      <point x="593" y="700" type="line"/>
      <point x="503" y="700" type="line"/>
      <point x="263" y="95" type="line"/>
      <point x="259" y="95" type="line"/>
      <point x="233" y="700" type="line"/>
      <point x="143" y="700" type="line"/>
    </contour>
  </outline>
</glyph>
<glyph name="W" format="2">
  <advance width="720"/>
  <unicode hex="0057"/>
  <outline>
    <contour>
      <point x="135" y="0" type="line"/>
      <point x="245" y="0" type="line"/>
      <point x="432" y="420" type="line"/>
      <point x="436" y="420" type="line"/>
      <point x="475" y="0" type="line"/>
      <point x="585" y="0" type="line"/>
      <point x="823" y="700" type="line"/>
      <point x="733" y="700" type="line"/>
      <point x="548" y="160" type="line"/>
      <point x="543" y="160" type="line"/>
      <point x="505" y="570" type="line"/>
      <point x="415" y="570" type="line"/>
      <point x="233" y="160" type="line"/>
      <point x="228" y="160" type="line"/>
      <point x="233" y="700" type="line"/>
      <point x="143" y="700" type="line"/>
    </contour>
  </outline>
</glyph>
<glyph name="X" format="2">
  <advance width="460"/>
  <unicode hex="0058"/>
  <outline>
    <contour>
      <point x="15" y="0" type="line"/>
      <point x="105" y="0" type="line"/>
      <point x="282" y="300" type="line"/>
      <point x="355" y="0" type="line"/>
      <point x="445" y="0" type="line"/>
      <point x="358" y="360" type="line"/>
      <point x="553" y="700" type="line"/>
      <point x="463" y="700" type="line"/>
      <point x="304" y="420" type="line"/>
      <point x="243" y="700" type="line"/>
      <point x="153" y="700" type="line"/>
      <point x="228" y="360" type="line"/>
    </contour>
  </outline>
</glyph>
<glyph name="Y" format="2">
  <advance width="450"/>
  <unicode hex="0059"/>
  <anchor x="223" y="0" name="bottom"/>
  <anchor x="348" y="700" name="top"/>
  <anchor x="99" y="700" name="topleft"/>
  <outline>
    <contour>
      <point x="180" y="0" type="line"/>
      <point x="270" y="0" type="line"/>
      <point x="308" y="220" type="line"/>
      <point x="563" y="700" type="line"/>
      <point x="473" y="700" type="line"/>
      <point x="285" y="345" type="line"/>
      <point x="223" y="700" type="line"/>
      <point x="133" y="700" type="line"/>
      <point x="218" y="220" type="line"/>
    </contour>
  </outline>
</glyph>
<glyph name="Z" format="2">
  <advance width="405"/>
  <unicode hex="005A"/>
  <anchor x="344" y="700" name="top"/>
  <outline>
    <contour>
      <point x="20" y="0" type="line"/>
      <point x="380" y="0" type="line"/>
      <point x="392" y="70" type="line"/>
      <point x="137" y="70" type="line"/>
      <point x="496" y="635" type="line"/>
      <point x="508" y="700" type="line"/>
      <point x="148" y="700" type="line"/>
      <point x="136" y="630" type="line"/>
      <point x="391" y="630" type="line"/>
      <point x="31" y="65" type="line"/>
    </contour>
  </outline>
</glyph>
<glyph name="bracketleft" format="2">
  <advance width="260"/>
  <unicode hex="005B"/>
  <outline>
    <contour>
      <point x="38" y="-180" type="line"/>
      <point x="228" y="-180" type="line"/>
      <point x="238" y="-120" type="line"/>
      <point x="138" y="-120" type="line"/>
      <point x="279" y="680" type="line"/>
      <point x="379" y="680" type="line"/>
      <point x="390" y="740" type="line"/>
      <point x="200" y="740" type="line"/>
    </contour>
  </outline>
</glyph>
<glyph name="backslash" format="2">
  <advance width="390"/>
  <unicode hex="005C"/>
  <outline>
    <contour>
      <point x="300" y="0" type="line"/>
      <point x="390" y="0" type="line"/>
      <point x="213" y="700" type="line"/>
      <point x="123" y="700" type="line"/>
    </contour>
  </outline>
</glyph>
<glyph name="bracketright" format="2">
  <advance width="260"/>
  <unicode hex="005D"/>
  <outline>
    <contour>
      <point x="-31" y="-180" type="line"/>
      <point x="158" y="-180" type="line"/>
      <point x="320" y="740" type="line"/>
      <point x="130" y="740" type="line"/>
      <point x="119" y="680" type="line"/>
      <point x="219" y="680" type="line"/>
      <point x="78" y="-120" type="line"/>
      <point x="-21" y="-120" type="line"/>
    </contour>
  </outline>
</glyph>
<glyph name="asciicircum" format="2">
  <advance width="445"/>
  <unicode hex="005E"/>
  <outline>
    <contour>
      <point x="167" y="410" type="line"/>
      <point x="327" y="610" type="line"/>
      <point x="332" y="610" type="line"/>
      <point x="422" y="410" type="line"/>
      <point x="494" y="450" type="line"/>
      <point x="388" y="700" type="line"/>
      <point x="303" y="700" type="line"/>
      <point x="109" y="450" type="line"/>
    </contour>
  </outline>
</glyph>
<glyph name="underscore" format="2">
  <advance width="300"/>
  <unicode hex="005F"/>
  <outline>
    <contour>
      <point x="-12" y="-70" type="line"/>
      <point x="287" y="-70" type="line"/>
      <point x="300" y="0" type="line"/>
      <point x="0" y="0" type="line"/>
    </contour>
  </outline>
</glyph>
<glyph name="grave" format="2">
  <advance width="170"/>
  <unicode hex="0060"/>
  <outline>
    <contour>
      <point x="181" y="560" type="line"/>
      <point x="241" y="560" type="line"/>
      <point x="228" y="690" type="line"/>
      <point x="133" y="690" type="line"/>
    </contour>
  </outline>
</glyph>
<glyph name="a" format="2">
  <advance width="465"/>
  <unicode hex="0061"/>
  <anchor x="224" y="0" name="bottom"/>
  <anchor x="374" y="10" name="ogonek"/>
  <anchor x="346" y="500" name="top"/>
  <outline>
    <contour>
      <point x="208" y="-10" type="curve"/>
      <point x="248" y="-10"/>
      <point x="290" y="5"/>
      <point x="320" y="30" type="curve"/>
      <point x="325" y="30" type="line"/>
      <point x="325" y="0" type="line"/>
      <point x="400" y="0" type="line"/>
      <point x="484" y="480" type="line"/>
      <point x="438" y="500"/>
      <point x="389" y="510"/>
      <point x="329" y="510" type="curve" smooth="yes"/>
      <point x="194" y="510"/>
      <point x="124" y="450"/>
      <point x="89" y="250" type="curve" smooth="yes"/>
      <point x="53" y="50"/>
      <point x="103" y="-10"/>
    </contour>
    <contour>
      <point x="248" y="50" type="curve" smooth="yes"/>
      <point x="183" y="50"/>
      <point x="150" y="90"/>
      <point x="179" y="250" type="curve" smooth="yes"/>
      <point x="207" y="410"/>
      <point x="254" y="450"/>
      <point x="319" y="450" type="curve" smooth="yes"/>
      <point x="389" y="450" type="line"/>
      <point x="322" y="70" type="line"/>
      <point x="305" y="60"/>
      <point x="273" y="50"/>
    </contour>
  </outline>
</glyph>
<glyph name="b" format="2">
  <advance width="470"/>
  <unicode hex="0062"/>
  <outline>
    <contour>
      <point x="228" y="-10" type="curve" smooth="yes"/>
      <point x="363" y="-10"/>
      <point x="433" y="50"/>
      <point x="469" y="250" type="curve" smooth="yes"/>
      <point x="504" y="450"/>
      <point x="454" y="510"/>
      <point x="349" y="510" type="curve" smooth="yes"/>
      <point x="309" y="510"/>
      <point x="278" y="500"/>
      <point x="245" y="485" type="curve"/>
      <point x="283" y="700" type="line"/>
      <point x="193" y="700" type="line"/>
      <point x="73" y="20" type="line"/>
      <point x="120" y="0"/>
      <point x="168" y="-10"/>
    </contour>
    <contour>
      <point x="168" y="50" type="line"/>
      <point x="235" y="430" type="line"/>
      <point x="252" y="440"/>
      <point x="284" y="450"/>
      <point x="309" y="450" type="curve" smooth="yes"/>
      <point x="374" y="450"/>
      <point x="407" y="410"/>
      <point x="379" y="250" type="curve" smooth="yes"/>
      <point x="350" y="90"/>
      <point x="303" y="50"/>
      <point x="238" y="50" type="curve" smooth="yes"/>
    </contour>
  </outline>
</glyph>
<glyph name="c" format="2">
  <advance width="375"/>
  <unicode hex="0063"/>
  <outline>
    <contour>
      <point x="238" y="-10" type="curve" smooth="yes"/>
      <point x="278" y="-10"/>
      <point x="330" y="0"/>
      <point x="361" y="10" type="curve"/>
      <point x="368" y="50" type="line"/>
      <point x="268" y="50" type="line" smooth="yes"/>
      <point x="183" y="50"/>
      <point x="150" y="90"/>
      <point x="179" y="250" type="curve" smooth="yes"/>
      <point x="207" y="410"/>
      <point x="254" y="450"/>
      <point x="329" y="450" type="curve" smooth="yes"/>
      <point x="429" y="450" type="line"/>
      <point x="436" y="490" type="line"/>
      <point x="408" y="500"/>
      <point x="359" y="510"/>
      <point x="319" y="510" type="curve" smooth="yes"/>
      <point x="194" y="510"/>
      <point x="124" y="450"/>
      <point x="89" y="250" type="curve" smooth="yes"/>
      <point x="53" y="50"/>
      <point x="103" y="-10"/>
    </contour>
  </outline>
</glyph>
<glyph name="d" format="2">
  <advance width="470"/>
  <unicode hex="0064"/>
  <anchor x="191" y="0" name="bottom"/>
  <anchor x="420" y="597" name="center"/>
  <anchor x="279" y="500" name="top"/>
  <anchor x="494" y="500" name="topright"/>
  <outline>
    <contour>
      <point x="208" y="-10" type="curve" smooth="yes"/>
      <point x="248" y="-10"/>
      <point x="290" y="5"/>
      <point x="320" y="30" type="curve"/>
      <point x="325" y="30" type="line"/>
      <point x="325" y="0" type="line"/>
      <point x="400" y="0" type="line"/>
      <point x="523" y="700" type="line"/>
      <point x="433" y="700" type="line"/>
      <point x="395" y="485" type="line"/>
      <point x="368" y="500"/>
      <point x="339" y="510"/>
      <point x="299" y="510" type="curve" smooth="yes"/>
      <point x="194" y="510"/>
      <point x="124" y="450"/>
      <point x="89" y="250" type="curve" smooth="yes"/>
      <point x="53" y="50"/>
      <point x="103" y="-10"/>
    </contour>
    <contour>
      <point x="248" y="50" type="curve" smooth="yes"/>
      <point x="183" y="50"/>
      <point x="150" y="90"/>
      <point x="179" y="250" type="curve"/>
      <point x="207" y="410"/>
      <point x="254" y="450"/>
      <point x="319" y="450" type="curve" smooth="yes"/>
      <point x="344" y="450"/>
      <point x="372" y="440"/>
      <point x="385" y="430" type="curve"/>
      <point x="322" y="70" type="line"/>
      <point x="305" y="60"/>
      <point x="273" y="50"/>
    </contour>
  </outline>
</glyph>
<glyph name="f" format="2">
  <advance width="320"/>
  <unicode hex="0066"/>
  <outline>
    <contour>
      <point x="-7" y="-210" type="curve" smooth="yes"/>
      <point x="72" y="-210"/>
      <point x="138" y="-180"/>
      <point x="162" y="-40" type="curve" smooth="yes"/>
      <point x="244" y="425" type="line"/>
      <point x="264" y="425" type="line" smooth="yes"/>
      <point x="304" y="425"/>
      <point x="356" y="435"/>
      <point x="388" y="445" type="curve"/>
      <point x="396" y="490" type="line"/>
      <point x="256" y="490" type="line"/>
      <point x="263" y="530" type="line" smooth="yes"/>
      <point x="279" y="620"/>
      <point x="322" y="640"/>
      <point x="352" y="640" type="curve" smooth="yes"/>
      <point x="442" y="640" type="line"/>
      <point x="449" y="680" type="line"/>
      <point x="426" y="690"/>
      <point x="373" y="700"/>
      <point x="343" y="700" type="curve" smooth="yes"/>
      <point x="263" y="700"/>
      <point x="198" y="670"/>
      <point x="173" y="530" type="curve" smooth="yes"/>
      <point x="166" y="490" type="line"/>
      <point x="106" y="490" type="line"/>
      <point x="94" y="425" type="line"/>
      <point x="154" y="425" type="line"/>
      <point x="72" y="-40" type="line" smooth="yes"/>
      <point x="57" y="-130"/>
      <point x="13" y="-150"/>
      <point x="-16" y="-150" type="curve" smooth="yes"/>
      <point x="-106" y="-150" type="line"/>
      <point x="-113" y="-190" type="line"/>
      <point x="-90" y="-200"/>
      <point x="-37" y="-210"/>
    </contour>
  </outline>
</glyph>
<glyph name="g" format="2">
  <advance width="465"/>
  <unicode hex="0067"/>
  <outline>
    <contour>
      <point x="162" y="-210" type="curve" smooth="yes"/>
      <point x="302" y="-210"/>
      <point x="373" y="-150"/>
      <point x="407" y="40" type="curve" smooth="yes"/>
      <point x="484" y="480" type="line"/>
      <point x="438" y="500"/>
      <point x="389" y="510"/>
      <point x="329" y="510" type="curve" smooth="yes"/>
      <point x="194" y="510"/>
      <point x="124" y="450"/>
      <point x="89" y="250" type="curve" smooth="yes"/>
      <point x="53" y="50"/>
      <point x="103" y="-10"/>
      <point x="208" y="-10" type="curve" smooth="yes"/>
      <point x="248" y="-10"/>
      <point x="280" y="0"/>
      <point x="312" y="15" type="curve"/>
      <point x="290" y="-110"/>
      <point x="243" y="-150"/>
      <point x="153" y="-150" type="curve" smooth="yes"/>
      <point x="53" y="-150" type="line"/>
      <point x="46" y="-190" type="line"/>
      <point x="74" y="-200"/>
      <point x="122" y="-210"/>
    </contour>
    <contour>
      <point x="248" y="50" type="curve" smooth="yes"/>
      <point x="183" y="50"/>
      <point x="150" y="90"/>
      <point x="179" y="250" type="curve" smooth="yes"/>
      <point x="207" y="410"/>
      <point x="254" y="450"/>
      <point x="319" y="450" type="curve" smooth="yes"/>
      <point x="389" y="450" type="line"/>
      <point x="322" y="70" type="line"/>
      <point x="305" y="60"/>
      <point x="273" y="50"/>
    </contour>
  </outline>
</glyph>
<glyph name="i" format="2">
  <advance width="230"/>
  <unicode hex="0069"/>
  <anchor x="115" y="0" name="bottom"/>
  <outline>
    <contour>
      <point x="70" y="0" type="line"/>
      <point x="160" y="0" type="line"/>
      <point x="248" y="500" type="line"/>
      <point x="158" y="500" type="line"/>
    </contour>
    <contour>
      <point x="170" y="570" type="line"/>
      <point x="260" y="570" type="line"/>
      <point x="279" y="680" type="line"/>
      <point x="189" y="680" type="line"/>
    </contour>
  </outline>
</glyph>
<glyph name="j" format="2">
  <advance width="240"/>
  <unicode hex="006A"/>
  <outline>
    <contour>
      <point x="-7" y="-210" type="curve" smooth="yes"/>
      <point x="72" y="-210"/>
      <point x="138" y="-180"/>
      <point x="162" y="-40" type="curve" smooth="yes"/>
      <point x="258" y="500" type="line"/>
      <point x="168" y="500" type="line"/>
      <point x="72" y="-40" type="line" smooth="yes"/>
      <point x="57" y="-130"/>
      <point x="13" y="-150"/>
      <point x="-16" y="-150" type="curve" smooth="yes"/>
      <point x="-86" y="-150" type="line"/>
      <point x="-93" y="-190" type="line"/>
      <point x="-70" y="-200"/>
      <point x="-37" y="-210"/>
    </contour>
    <contour>
      <point x="180" y="570" type="line"/>
      <point x="270" y="570" type="line"/>
      <point x="289" y="680" type="line"/>
      <point x="199" y="680" type="line"/>
    </contour>
  </outline>
</glyph>
<glyph name="k" format="2">
  <advance width="435"/>
  <unicode hex="006B"/>
  <outline>
    <contour>
      <point x="70" y="0" type="line"/>
      <point x="160" y="0" type="line"/>
      <point x="205" y="260" type="line"/>
      <point x="325" y="0" type="line"/>
      <point x="425" y="0" type="line"/>
      <point x="296" y="265" type="line"/>
      <point x="493" y="500" type="line"/>
      <point x="393" y="500" type="line"/>
      <point x="207" y="270" type="line"/>
      <point x="283" y="700" type="line"/>
      <point x="193" y="700" type="line"/>
    </contour>
  </outline>
</glyph>
<glyph name="l" format="2">
  <advance width="230"/>
  <unicode hex="006C"/>
  <outline>
    <contour>
      <point x="70" y="0" type="line"/>
      <point x="160" y="0" type="line"/>
      <point x="283" y="700" type="line"/>
      <point x="193" y="700" type="line"/>
    </contour>
  </outline>
</glyph>
<glyph name="m" format="2">
  <advance width="690"/>
  <unicode hex="006D"/>
  <outline>
    <contour>
      <point x="65" y="0" type="line"/>
      <point x="155" y="0" type="line"/>
      <point x="230" y="430" type="line"/>
      <point x="247" y="440"/>
      <point x="274" y="450"/>
      <point x="299" y="450" type="curve" smooth="yes"/>
      <point x="339" y="450"/>
      <point x="375" y="430"/>
      <point x="363" y="360" type="curve" smooth="yes"/>
      <point x="300" y="0" type="line"/>
      <point x="390" y="0" type="line"/>
      <point x="453" y="360" type="line"/>
      <point x="458" y="390"/>
      <point x="458" y="415"/>
      <point x="455" y="430" type="curve"/>
      <point x="472" y="440"/>
      <point x="504" y="450"/>
      <point x="534" y="450" type="curve" smooth="yes"/>
      <point x="574" y="450"/>
      <point x="610" y="430"/>
      <point x="598" y="360" type="curve" smooth="yes"/>
      <point x="535" y="0" type="line"/>
      <point x="625" y="0" type="line"/>
      <point x="688" y="360" type="line" smooth="yes"/>
      <point x="709" y="480"/>
      <point x="654" y="510"/>
      <point x="574" y="510" type="curve" smooth="yes"/>
      <point x="539" y="510"/>
      <point x="482" y="495"/>
      <point x="444" y="466" type="curve"/>
      <point x="423" y="499"/>
      <point x="384" y="510"/>
      <point x="339" y="510" type="curve" smooth="yes"/>
      <point x="294" y="510"/>
      <point x="262" y="495"/>
      <point x="232" y="470" type="curve"/>
      <point x="227" y="470" type="line"/>
      <point x="228" y="500" type="line"/>
      <point x="153" y="500" type="line"/>
    </contour>
  </outline>
</glyph>
<glyph name="o" format="2">
  <advance width="460"/>
  <unicode hex="006F"/>
  <anchor x="231" y="0" name="bottom"/>
  <anchor x="230" y="250" name="center"/>
  <anchor x="370" y="10" name="ogonek"/>
  <anchor x="318" y="500" name="top"/>
  <anchor x="466" y="500" name="topright"/>
  <outline>
    <contour>
      <point x="228" y="-10" type="curve" smooth="yes"/>
      <point x="348" y="-10"/>
      <point x="424" y="55"/>
      <point x="459" y="250" type="curve" smooth="yes"/>
      <point x="493" y="445"/>
      <point x="439" y="510"/>
      <point x="319" y="510" type="curve" smooth="yes"/>
      <point x="199" y="510"/>
      <point x="123" y="445"/>
      <point x="89" y="250" type="curve" smooth="yes"/>
      <point x="54" y="55"/>
      <point x="108" y="-10"/>
    </contour>
    <contour>
      <point x="237" y="45" type="curve" smooth="yes"/>
      <point x="187" y="45"/>
      <point x="150" y="90"/>
      <point x="179" y="250" type="curve" smooth="yes"/>
      <point x="207" y="410"/>
      <point x="260" y="455"/>
      <point x="310" y="455" type="curve" smooth="yes"/>
      <point x="360" y="455"/>
      <point x="397" y="410"/>
      <point x="369" y="250" type="curve" smooth="yes"/>
      <point x="340" y="90"/>
      <point x="287" y="45"/>
    </contour>
  </outline>
</glyph>
<glyph name="p" format="2">
  <advance width="465"/>
  <unicode hex="0070"/>
  <outline>
    <contour>
      <point x="29" y="-200" type="line"/>
      <point x="119" y="-200" type="line"/>
      <point x="157" y="15" type="line"/>
      <point x="185" y="0"/>
      <point x="213" y="-10"/>
      <point x="253" y="-10" type="curve" smooth="yes"/>
      <point x="358" y="-10"/>
      <point x="428" y="50"/>
      <point x="464" y="250" type="curve" smooth="yes"/>
      <point x="499" y="450"/>
      <point x="449" y="510"/>
      <point x="344" y="510" type="curve" smooth="yes"/>
      <point x="304" y="510"/>
      <point x="262" y="495"/>
      <point x="232" y="470" type="curve"/>
      <point x="227" y="470" type="line"/>
      <point x="228" y="500" type="line"/>
      <point x="153" y="500" type="line"/>
    </contour>
    <contour>
      <point x="233" y="50" type="curve" smooth="yes"/>
      <point x="208" y="50"/>
      <point x="180" y="60"/>
      <point x="167" y="70" type="curve"/>
      <point x="230" y="430" type="line"/>
      <point x="247" y="440"/>
      <point x="279" y="450"/>
      <point x="304" y="450" type="curve" smooth="yes"/>
      <point x="369" y="450"/>
      <point x="402" y="410"/>
      <point x="374" y="250" type="curve" smooth="yes"/>
      <point x="345" y="90"/>
      <point x="298" y="50"/>
    </contour>
  </outline>
</glyph>
<glyph name="q" format="2">
  <advance width="465"/>
  <unicode hex="0071"/>
  <outline>
    <contour>
      <point x="274" y="-200" type="line"/>
      <point x="364" y="-200" type="line"/>
      <point x="484" y="480" type="line"/>
      <point x="438" y="500"/>
      <point x="389" y="510"/>
      <point x="329" y="510" type="curve" smooth="yes"/>
      <point x="194" y="510"/>
      <point x="124" y="450"/>
      <point x="89" y="250" type="curve" smooth="yes"/>
      <point x="53" y="50"/>
      <point x="103" y="-10"/>
      <point x="208" y="-10" type="curve" smooth="yes"/>
      <point x="248" y="-10"/>
      <point x="280" y="0"/>
      <point x="312" y="15" type="curve"/>
    </contour>
    <contour>
      <point x="248" y="50" type="curve" smooth="yes"/>
      <point x="183" y="50"/>
      <point x="150" y="90"/>
      <point x="179" y="250" type="curve" smooth="yes"/>
      <point x="207" y="410"/>
      <point x="254" y="450"/>
      <point x="319" y="450" type="curve" smooth="yes"/>
      <point x="389" y="450" type="line"/>
      <point x="322" y="70" type="line"/>
      <point x="305" y="60"/>
      <point x="273" y="50"/>
    </contour>
  </outline>
</glyph>
<glyph name="s" format="2">
  <advance width="395"/>
  <unicode hex="0073"/>
  <outline>
    <contour>
      <point x="158" y="-10" type="curve" smooth="yes"/>
      <point x="298" y="-10"/>
      <point x="363" y="20"/>
      <point x="382" y="130" type="curve" smooth="yes"/>
      <point x="414" y="310"/>
      <point x="170" y="260"/>
      <point x="192" y="380" type="curve" smooth="yes"/>
      <point x="200" y="430"/>
      <point x="244" y="450"/>
      <point x="314" y="450" type="curve" smooth="yes"/>
      <point x="414" y="450" type="line"/>
      <point x="421" y="490" type="line"/>
      <point x="393" y="500"/>
      <point x="344" y="510"/>
      <point x="304" y="510" type="curve" smooth="yes"/>
      <point x="184" y="510"/>
      <point x="119" y="480"/>
      <point x="102" y="380" type="curve" smooth="yes"/>
      <point x="70" y="200"/>
      <point x="314" y="250"/>
      <point x="292" y="130" type="curve" smooth="yes"/>
      <point x="282" y="70"/>
      <point x="238" y="50"/>
      <point x="148" y="50" type="curve" smooth="yes"/>
      <point x="48" y="50" type="line"/>
      <point x="41" y="10" type="line"/>
      <point x="70" y="0"/>
      <point x="118" y="-10"/>
    </contour>
  </outline>
</glyph>
<glyph name="t" format="2">
  <advance width="345"/>
  <unicode hex="0074"/>
  <outline>
    <contour>
      <point x="218" y="-10" type="curve" smooth="yes"/>
      <point x="248" y="-10"/>
      <point x="305" y="0"/>
      <point x="331" y="10" type="curve"/>
      <point x="338" y="50" type="line"/>
      <point x="248" y="50" type="line" smooth="yes"/>
      <point x="218" y="50"/>
      <point x="182" y="70"/>
      <point x="198" y="160" type="curve" smooth="yes"/>
      <point x="244" y="425" type="line"/>
      <point x="264" y="425" type="line"/>
      <point x="304" y="425"/>
      <point x="356" y="435"/>
      <point x="388" y="445" type="curve"/>
      <point x="396" y="490" type="line"/>
      <point x="256" y="490" type="line"/>
      <point x="277" y="610" type="line"/>
      <point x="187" y="610" type="line"/>
      <point x="166" y="490" type="line"/>
      <point x="106" y="490" type="line"/>
      <point x="94" y="425" type="line"/>
      <point x="154" y="425" type="line"/>
      <point x="108" y="160" type="line" smooth="yes"/>
      <point x="83" y="20"/>
      <point x="138" y="-10"/>
    </contour>
  </outline>
</glyph>
<glyph name="u" format="2">
  <advance width="475"/>
  <unicode hex="0075"/>
  <anchor x="218" y="0" name="bottom"/>
  <anchor x="368" y="0" name="ogonek"/>
  <anchor x="328" y="500" name="top"/>
  <anchor x="531" y="500" name="topright"/>
  <outline>
    <contour>
      <point x="218" y="-10" type="curve" smooth="yes"/>
      <point x="258" y="-10"/>
      <point x="300" y="5"/>
      <point x="330" y="30" type="curve"/>
      <point x="335" y="30" type="line"/>
      <point x="335" y="0" type="line"/>
      <point x="410" y="0" type="line"/>
      <point x="498" y="500" type="line"/>
      <point x="408" y="500" type="line"/>
      <point x="332" y="70" type="line"/>
      <point x="315" y="60"/>
      <point x="283" y="50"/>
      <point x="258" y="50" type="curve" smooth="yes"/>
      <point x="203" y="50"/>
      <point x="167" y="70"/>
      <point x="179" y="140" type="curve" smooth="yes"/>
      <point x="243" y="500" type="line"/>
      <point x="153" y="500" type="line"/>
      <point x="89" y="140" type="line" smooth="yes"/>
      <point x="68" y="20"/>
      <point x="123" y="-10"/>
    </contour>
  </outline>
</glyph>
<glyph name="v" format="2">
  <advance width="430"/>
  <unicode hex="0076"/>
  <outline>
    <contour>
      <point x="150" y="0" type="line"/>
      <point x="280" y="0" type="line"/>
      <point x="503" y="500" type="line"/>
      <point x="418" y="500" type="line"/>
      <point x="231" y="85" type="line"/>
      <point x="227" y="85" type="line"/>
      <point x="188" y="500" type="line"/>
      <point x="103" y="500" type="line"/>
    </contour>
  </outline>
</glyph>
<glyph name="w" format="2">
  <advance width="610"/>
  <unicode hex="0077"/>
  <outline>
    <contour>
      <point x="105" y="0" type="line"/>
      <point x="215" y="0" type="line"/>
      <point x="350" y="270" type="line"/>
      <point x="354" y="270" type="line"/>
      <point x="395" y="0" type="line"/>
      <point x="505" y="0" type="line"/>
      <point x="683" y="500" type="line"/>
      <point x="598" y="500" type="line"/>
      <point x="462" y="120" type="line"/>
      <point x="457" y="120" type="line"/>
      <point x="415" y="400" type="line"/>
      <point x="335" y="400" type="line"/>
      <point x="195" y="120" type="line"/>
      <point x="190" y="120" type="line"/>
      <point x="188" y="500" type="line"/>
      <point x="103" y="500" type="line"/>
    </contour>
  </outline>
</glyph>
<glyph name="x" format="2">
  <advance width="400"/>
  <unicode hex="0078"/>
  <outline>
    <contour>
      <point x="15" y="0" type="line"/>
      <point x="105" y="0" type="line"/>
      <point x="234" y="195" type="line"/>
      <point x="295" y="0" type="line"/>
      <point x="385" y="0" type="line"/>
      <point x="304" y="255" type="line"/>
      <point x="469" y="500" type="line"/>
      <point x="379" y="500" type="line"/>
      <point x="255" y="315" type="line"/>
      <point x="197" y="500" type="line"/>
      <point x="107" y="500" type="line"/>
      <point x="184" y="255" type="line"/>
    </contour>
  </outline>
</glyph>
<glyph name="y" format="2">
  <advance width="475"/>
  <unicode hex="0079"/>
  <anchor x="476" y="0" name="bottom"/>
  <anchor x="282" y="500" name="top"/>
  <outline>
    <contour>
      <point x="172" y="-210" type="curve" smooth="yes"/>
      <point x="312" y="-210"/>
      <point x="383" y="-150"/>
      <point x="417" y="40" type="curve" smooth="yes"/>
      <point x="498" y="500" type="line"/>
      <point x="408" y="500" type="line"/>
      <point x="332" y="70" type="line"/>
      <point x="315" y="60"/>
      <point x="283" y="50"/>
      <point x="258" y="50" type="curve" smooth="yes"/>
      <point x="203" y="50"/>
      <point x="167" y="70"/>
      <point x="179" y="140" type="curve" smooth="yes"/>
      <point x="243" y="500" type="line"/>
      <point x="153" y="500" type="line"/>
      <point x="89" y="140" type="line" smooth="yes"/>
      <point x="68" y="20"/>
      <point x="123" y="-10"/>
      <point x="218" y="-10" type="curve" smooth="yes"/>
      <point x="258" y="-10"/>
      <point x="290" y="0"/>
      <point x="322" y="15" type="curve"/>
      <point x="300" y="-110"/>
      <point x="253" y="-150"/>
      <point x="163" y="-150" type="curve" smooth="yes"/>
      <point x="63" y="-150" type="line"/>
      <point x="56" y="-190" type="line"/>
      <point x="84" y="-200"/>
      <point x="132" y="-210"/>
    </contour>
  </outline>
</glyph>
<glyph name="z" format="2">
  <advance width="370"/>
  <unicode hex="007A"/>
  <outline>
    <contour>
      <point x="20" y="0" type="line"/>
      <point x="345" y="0" type="line"/>
      <point x="356" y="65" type="line"/>
      <point x="137" y="65" type="line"/>
      <point x="427" y="440" type="line"/>
      <point x="438" y="500" type="line"/>
      <point x="118" y="500" type="line"/>
      <point x="106" y="435" type="line"/>
      <point x="321" y="435" type="line"/>
      <point x="30" y="60" type="line"/>
    </contour>
  </outline>
</glyph>
<glyph name="braceleft" format="2">
  <advance width="290"/>
  <unicode hex="007B"/>
  <outline>
    <contour>
      <point x="258" y="-180" type="curve"/>
      <point x="268" y="-120" type="line"/>
      <point x="208" y="-120"/>
      <point x="172" y="-100"/>
      <point x="188" y="-10" type="curve" smooth="yes"/>
      <point x="207" y="100" type="line" smooth="yes"/>
      <point x="227" y="210"/>
      <point x="202" y="240"/>
      <point x="159" y="278" type="curve"/>
      <point x="159" y="282" type="line"/>
      <point x="216" y="320"/>
      <point x="251" y="350"/>
      <point x="271" y="460" type="curve" smooth="yes"/>
      <point x="290" y="570" type="line"/>
      <point x="306" y="660"/>
      <point x="349" y="680"/>
      <point x="409" y="680" type="curve"/>
      <point x="420" y="740" type="line"/>
      <point x="290" y="740"/>
      <point x="225" y="710"/>
      <point x="200" y="570" type="curve" smooth="yes"/>
      <point x="177" y="440" type="line" smooth="yes"/>
      <point x="162" y="355"/>
      <point x="127" y="325"/>
      <point x="74" y="310" type="curve"/>
      <point x="64" y="250" type="line"/>
      <point x="111" y="235"/>
      <point x="136" y="205"/>
      <point x="121" y="120" type="curve" smooth="yes"/>
      <point x="98" y="-10" type="line" smooth="yes"/>
      <point x="73" y="-150"/>
      <point x="128" y="-180"/>
    </contour>
  </outline>
</glyph>
<glyph name="braceright" format="2">
  <advance width="290"/>
  <unicode hex="007D"/>
  <outline>
    <contour>
      <point x="-31" y="-180" type="line"/>
      <point x="98" y="-180"/>
      <point x="163" y="-150"/>
      <point x="188" y="-10" type="curve" smooth="yes"/>
      <point x="211" y="120" type="line" smooth="yes"/>
      <point x="226" y="205"/>
      <point x="261" y="235"/>
      <point x="314" y="250" type="curve"/>
      <point x="324" y="310" type="line"/>
      <point x="277" y="325"/>
      <point x="252" y="355"/>
      <point x="267" y="440" type="curve" smooth="yes"/>
      <point x="290" y="570" type="line" smooth="yes"/>
      <point x="315" y="710"/>
      <point x="260" y="740"/>
      <point x="130" y="740" type="curve"/>
      <point x="119" y="680" type="line"/>
      <point x="179" y="680"/>
      <point x="216" y="660"/>
      <point x="200" y="570" type="curve" smooth="yes"/>
      <point x="181" y="460" type="line"/>
      <point x="161" y="350"/>
      <point x="186" y="320"/>
      <point x="229" y="282" type="curve"/>
      <point x="229" y="278" type="line"/>
      <point x="172" y="240"/>
      <point x="137" y="210"/>
      <point x="117" y="100" type="curve" smooth="yes"/>
      <point x="98" y="-10" type="line" smooth="yes"/>
      <point x="82" y="-100"/>
      <point x="38" y="-120"/>
      <point x="-21" y="-120" type="curve"/>
    </contour>
  </outline>
</glyph>
<glyph name="asciitilde" format="2">
  <advance width="450"/>
  <unicode hex="007E"/>
  <outline>
    <contour>
      <point x="65" y="199.0" type="curve"/>
      <point x="135" y="199.0" type="line"/>
      <point x="141" y="244.0"/>
      <point x="159" y="272"/>
      <point x="194" y="272.0" type="curve" smooth="yes"/>
      <point x="243" y="272.0"/>
      <point x="261" y="194.0"/>
      <point x="340.0" y="194.0" type="curve" smooth="yes"/>
      <point x="430" y="194"/>
      <point x="467" y="249.0"/>
      <point x="482" y="354.0" type="curve"/>
      <point x="412" y="354.0" type="line"/>
      <point x="406" y="309.0"/>
      <point x="390" y="280"/>
      <point x="355" y="280.0" type="curve" smooth="yes"/>
      <point x="309" y="280.0"/>
      <point x="289" y="359.0"/>
      <point x="203" y="359.0" type="curve" smooth="yes"/>
      <point x="118" y="359"/>
      <point x="79" y="304.0"/>
    </contour>
  </outline>
</glyph>
<glyph name="exclamdown" format="2">
  <advance width="230"/>
  <unicode hex="00A1"/>
  <outline>
    <contour>
      <point x="60" y="0" type="line"/>
      <point x="170" y="0" type="line"/>
      <point x="243" y="515" type="line"/>
      <point x="163" y="515" type="line"/>
    </contour>
    <contour>
      <point x="172" y="595" type="line"/>
      <point x="262" y="595" type="line"/>
      <point x="282" y="705" type="line"/>
      <point x="192" y="705" type="line"/>
    </contour>
  </outline>
</glyph>
<glyph name="cent" format="2">
  <advance width="375"/>
  <unicode hex="00A2"/>
  <outline>
    <contour>
      <point x="194" y="-60" type="line"/>
      <point x="254" y="-60" type="line"/>
      <point x="263" y="-9" type="line"/>
      <point x="297" y="-6"/>
      <point x="336" y="2"/>
      <point x="361" y="10" type="curve"/>
      <point x="368" y="50" type="line"/>
      <point x="273" y="50" type="line"/>
      <point x="344" y="450" type="line"/>
      <point x="429" y="450" type="line"/>
      <point x="436" y="490" type="line"/>
      <point x="415" y="497"/>
      <point x="384" y="504"/>
      <point x="354" y="508" type="curve"/>
      <point x="365" y="570" type="line"/>
      <point x="305" y="570" type="line"/>
      <point x="294" y="509" type="line"/>
      <point x="185" y="501"/>
      <point x="121" y="436"/>
      <point x="89" y="250" type="curve" smooth="yes"/>
      <point x="56" y="68"/>
      <point x="94" y="2"/>
      <point x="203" y="-8" type="curve"/>
    </contour>
    <contour>
      <point x="215" y="58" type="line"/>
      <point x="170" y="77"/>
      <point x="157" y="129"/>
      <point x="179" y="250" type="curve" smooth="yes"/>
      <point x="200" y="374"/>
      <point x="234" y="426"/>
      <point x="283" y="443" type="curve"/>
    </contour>
  </outline>
</glyph>
<glyph name="sterling" format="2">
  <advance width="415"/>
  <unicode hex="00A3"/>
  <outline>
    <contour>
      <point x="45" y="0" type="line"/>
      <point x="395" y="0" type="line"/>
      <point x="407" y="70" type="line"/>
      <point x="147" y="70" type="line"/>
      <point x="148" y="74" type="line"/>
      <point x="181" y="94"/>
      <point x="208" y="134"/>
      <point x="226" y="234" type="curve" smooth="yes"/>
      <point x="241" y="320" type="line"/>
      <point x="391" y="320" type="line"/>
      <point x="403" y="390" type="line"/>
      <point x="253" y="390" type="line"/>
      <point x="273" y="500" type="line" smooth="yes"/>
      <point x="295" y="625"/>
      <point x="338" y="645"/>
      <point x="408" y="645" type="curve" smooth="yes"/>
      <point x="498" y="645" type="line"/>
      <point x="506" y="690" type="line"/>
      <point x="483" y="700"/>
      <point x="450" y="710"/>
      <point x="420" y="710" type="curve" smooth="yes"/>
      <point x="280" y="710"/>
      <point x="214" y="680"/>
      <point x="183" y="500" type="curve" smooth="yes"/>
      <point x="163" y="390" type="line"/>
      <point x="103" y="390" type="line"/>
      <point x="91" y="320" type="line"/>
      <point x="151" y="320" type="line"/>
      <point x="132" y="210" type="line" smooth="yes"/>
      <point x="114" y="110"/>
      <point x="87" y="70"/>
      <point x="53" y="50" type="curve"/>
    </contour>
  </outline>
</glyph>
<glyph name="currency" format="2">
  <advance width="520"/>
  <unicode hex="00A4"/>
  <outline>
    <contour>
      <point x="103" y="135" type="line"/>
      <point x="185" y="200" type="line"/>
      <point x="205" y="175"/>
      <point x="248" y="160"/>
      <point x="287" y="160" type="curve" smooth="yes"/>
      <point x="328" y="160"/>
      <point x="375" y="175"/>
      <point x="405" y="200" type="curve"/>
      <point x="463" y="135" type="line"/>
      <point x="522" y="185" type="line"/>
      <point x="464" y="255" type="line"/>
      <point x="484" y="280"/>
      <point x="500" y="315"/>
      <point x="506" y="350" type="curve"/>
      <point x="512" y="385"/>
      <point x="509" y="420"/>
      <point x="498" y="445" type="curve"/>
      <point x="580" y="515" type="line"/>
      <point x="539" y="565" type="line"/>
      <point x="458" y="500" type="line"/>
      <point x="437" y="525"/>
      <point x="395" y="540"/>
      <point x="354" y="540" type="curve"/>
      <point x="315" y="540"/>
      <point x="267" y="525"/>
      <point x="238" y="500" type="curve"/>
      <point x="179" y="565" type="line"/>
      <point x="120" y="515" type="line"/>
      <point x="178" y="445" type="line"/>
      <point x="159" y="420"/>
      <point x="142" y="385"/>
      <point x="136" y="350" type="curve"/>
      <point x="130" y="315"/>
      <point x="134" y="280"/>
      <point x="144" y="255" type="curve"/>
      <point x="62" y="185" type="line"/>
    </contour>
    <contour>
      <point x="299" y="225" type="curve" smooth="yes"/>
      <point x="249" y="225"/>
      <point x="216" y="265"/>
      <point x="231" y="350" type="curve"/>
      <point x="246" y="435"/>
      <point x="293" y="475"/>
      <point x="343" y="475" type="curve"/>
      <point x="393" y="475"/>
      <point x="426" y="435"/>
      <point x="411" y="350" type="curve"/>
      <point x="396" y="265"/>
      <point x="349" y="225"/>
    </contour>
  </outline>
</glyph>
<glyph name="yen" format="2">
  <advance width="450"/>
  <unicode hex="00A5"/>
  <outline>
    <contour>
      <point x="180" y="0" type="line"/>
      <point x="270" y="0" type="line"/>
      <point x="306" y="205" type="line"/>
      <point x="426" y="205" type="line"/>
      <point x="438" y="275" type="line"/>
      <point x="337" y="275" type="line"/>
      <point x="369" y="335" type="line"/>
      <point x="449" y="335" type="line"/>
      <point x="461" y="405" type="line"/>
      <point x="406" y="405" type="line"/>
      <point x="563" y="700" type="line"/>
      <point x="473" y="700" type="line"/>
      <point x="285" y="345" type="line"/>
      <point x="223" y="700" type="line"/>
      <point x="133" y="700" type="line"/>
      <point x="185" y="405" type="line"/>
      <point x="131" y="405" type="line"/>
      <point x="119" y="335" type="line"/>
      <point x="198" y="335" type="line"/>
      <point x="208" y="275" type="line"/>
      <point x="108" y="275" type="line"/>
      <point x="96" y="205" type="line"/>
      <point x="216" y="205" type="line"/>
    </contour>
  </outline>
</glyph>
<glyph name="brokenbar" format="2">
  <advance width="230"/>
  <unicode hex="00A6"/>
  <outline>
    <contour>
      <point x="34" y="-200" type="line"/>
      <point x="124" y="-200" type="line"/>
      <point x="188" y="160" type="line"/>
      <point x="98" y="160" type="line"/>
    </contour>
    <contour>
      <point x="126" y="320" type="line"/>
      <point x="216" y="320" type="line"/>
      <point x="279" y="680" type="line"/>
      <point x="189" y="680" type="line"/>
    </contour>
  </outline>
</glyph>
<glyph name="section" format="2">
  <advance width="435"/>
  <unicode hex="00A7"/>
  <outline>
    <contour>
      <point x="142" y="-210" type="curve"/>
      <point x="297" y="-210"/>
      <point x="368" y="-150"/>
      <point x="386" y="-50" type="curve" smooth="yes"/>
      <point x="400" y="31"/>
      <point x="363" y="71"/>
      <point x="317" y="100" type="curve"/>
      <point x="373" y="126"/>
      <point x="425" y="175"/>
      <point x="439" y="250" type="curve" smooth="yes"/>
      <point x="474" y="450"/>
      <point x="212" y="410"/>
      <point x="236" y="550" type="curve" smooth="yes"/>
      <point x="247" y="610"/>
      <point x="294" y="650"/>
      <point x="379" y="650" type="curve" smooth="yes"/>
      <point x="494" y="650" type="line"/>
      <point x="501" y="690" type="line"/>
      <point x="473" y="700"/>
      <point x="420" y="710"/>
      <point x="370" y="710" type="curve" smooth="yes"/>
      <point x="235" y="710"/>
      <point x="164" y="650"/>
      <point x="146" y="550" type="curve" smooth="yes"/>
      <point x="133" y="471"/>
      <point x="165" y="430"/>
      <point x="208" y="402" type="curve"/>
      <point x="152" y="376"/>
      <point x="97" y="327"/>
      <point x="84" y="250" type="curve" smooth="yes"/>
      <point x="48" y="50"/>
      <point x="320" y="90"/>
      <point x="296" y="-50" type="curve" smooth="yes"/>
      <point x="285" y="-110"/>
      <point x="238" y="-150"/>
      <point x="133" y="-150" type="curve" smooth="yes"/>
      <point x="18" y="-150" type="line"/>
      <point x="11" y="-190" type="line"/>
      <point x="39" y="-200"/>
      <point x="92" y="-210"/>
    </contour>
    <contour>
      <point x="263" y="128" type="curve"/>
      <point x="210" y="156"/>
      <point x="162" y="183"/>
      <point x="174" y="250" type="curve" smooth="yes"/>
      <point x="185" y="317"/>
      <point x="219" y="352"/>
      <point x="260" y="372" type="curve"/>
      <point x="312" y="345"/>
      <point x="361" y="318"/>
      <point x="349" y="250" type="curve" smooth="yes"/>
      <point x="337" y="184"/>
      <point x="304" y="149"/>
    </contour>
  </outline>
</glyph>
<glyph name="copyright" format="2">
  <advance width="810"/>
  <unicode hex="00A9"/>
  <outline>
    <contour>
      <point x="401" y="-20" type="curve"/>
      <point x="621" y="-20"/>
      <point x="786" y="120"/>
      <point x="826" y="350" type="curve"/>
      <point x="867" y="580"/>
      <point x="751" y="720"/>
      <point x="531" y="720" type="curve"/>
      <point x="311" y="720"/>
      <point x="147" y="580"/>
      <point x="106" y="350" type="curve" smooth="yes"/>
      <point x="66" y="120"/>
      <point x="181" y="-20"/>
    </contour>
    <contour>
      <point x="437" y="130" type="curve" smooth="yes"/>
      <point x="482" y="130"/>
      <point x="534" y="140"/>
      <point x="566" y="150" type="curve"/>
      <point x="573" y="190" type="line"/>
      <point x="468" y="190" type="line" smooth="yes"/>
      <point x="398" y="190"/>
      <point x="362" y="210"/>
      <point x="386" y="350" type="curve" smooth="yes"/>
      <point x="411" y="490"/>
      <point x="454" y="510"/>
      <point x="524" y="510" type="curve" smooth="yes"/>
      <point x="619" y="510" type="line"/>
      <point x="626" y="550" type="line"/>
      <point x="598" y="560"/>
      <point x="560" y="570"/>
      <point x="515" y="570" type="curve" smooth="yes"/>
      <point x="405" y="570"/>
      <point x="340" y="540"/>
      <point x="306" y="350" type="curve" smooth="yes"/>
      <point x="273" y="160"/>
      <point x="327" y="130"/>
    </contour>
    <contour>
      <point x="412" y="40" type="curve"/>
      <point x="252" y="40"/>
      <point x="161" y="150"/>
      <point x="196" y="350" type="curve" smooth="yes"/>
      <point x="231" y="550"/>
      <point x="361" y="660"/>
      <point x="521" y="660" type="curve"/>
      <point x="681" y="660"/>
      <point x="771" y="550"/>
      <point x="736" y="350" type="curve"/>
      <point x="701" y="150"/>
      <point x="572" y="40"/>
    </contour>
  </outline>
</glyph>
<glyph name="ordfeminine" format="2">
  <advance width="285"/>
  <unicode hex="00AA"/>
  <outline>
    <contour>
      <point x="184" y="395" type="curve" smooth="yes"/>
      <point x="214" y="395"/>
      <point x="241" y="405"/>
      <point x="264" y="420" type="curve"/>
      <point x="265" y="400" type="line"/>
      <point x="325" y="400" type="line"/>
      <point x="360" y="600" type="line" smooth="yes"/>
      <point x="375" y="685"/>
      <point x="334" y="705"/>
      <point x="259" y="705" type="curve" smooth="yes"/>
      <point x="234" y="705"/>
      <point x="198" y="700"/>
      <point x="177" y="693" type="curve"/>
      <point x="170" y="655" type="line"/>
      <point x="240" y="655" type="line" smooth="yes"/>
      <point x="285" y="655"/>
      <point x="302" y="640"/>
      <point x="295" y="600" type="curve" smooth="yes"/>
      <point x="292" y="580" type="line"/>
      <point x="292" y="580"/>
      <point x="253" y="585"/>
      <point x="228" y="585" type="curve" smooth="yes"/>
      <point x="178" y="585"/>
      <point x="128" y="560"/>
      <point x="116" y="490" type="curve" smooth="yes"/>
      <point x="104" y="420"/>
      <point x="144" y="395"/>
    </contour>
    <contour>
      <point x="223" y="445" type="curve" smooth="yes"/>
      <point x="193" y="445"/>
      <point x="176" y="460"/>
      <point x="181" y="490" type="curve" smooth="yes"/>
      <point x="186" y="520"/>
      <point x="209" y="535"/>
      <point x="239" y="535" type="curve" smooth="yes"/>
      <point x="284" y="535" type="line"/>
      <point x="271" y="460" type="line"/>
      <point x="254" y="450"/>
      <point x="238" y="445"/>
    </contour>
  </outline>
</glyph>
<glyph name="guillemetleft" format="2">
  <advance width="435"/>
  <unicode hex="00AB"/>
  <outline>
    <contour>
      <point x="347" y="45" type="line"/>
      <point x="419" y="85" type="line"/>
      <point x="328" y="248" type="line"/>
      <point x="329" y="252" type="line"/>
      <point x="478" y="415" type="line"/>
      <point x="420" y="455" type="line"/>
      <point x="229" y="250" type="line"/>
    </contour>
    <contour>
      <point x="182" y="45" type="line"/>
      <point x="254" y="85" type="line"/>
      <point x="163" y="248" type="line"/>
      <point x="164" y="252" type="line"/>
      <point x="313" y="415" type="line"/>
      <point x="255" y="455" type="line"/>
      <point x="64" y="250" type="line"/>
    </contour>
  </outline>
</glyph>
<glyph name="logicalnot" format="2">
  <advance width="420"/>
  <unicode hex="00AC"/>
  <outline>
    <contour>
      <point x="367" y="240" type="line"/>
      <point x="432" y="240" type="line"/>
      <point x="462" y="410" type="line"/>
      <point x="102" y="410" type="line"/>
      <point x="89" y="340" type="line"/>
      <point x="376" y="340" type="line"/>
    </contour>
  </outline>
</glyph>
<glyph name="softhyphen" format="2">
  <advance width="360"/>
  <unicode hex="00AD"/>
  <outline>
    <contour>
      <point x="75" y="260" type="line"/>
      <point x="375" y="260" type="line"/>
      <point x="389" y="340" type="line"/>
      <point x="89" y="340" type="line"/>
    </contour>
  </outline>
</glyph>
<glyph name="registered" format="2">
  <advance width="810"/>
  <unicode hex="00AE"/>
  <outline>
    <contour>
      <point x="401" y="-20" type="curve" smooth="yes"/>
      <point x="621" y="-20"/>
      <point x="786" y="120"/>
      <point x="826" y="350" type="curve" smooth="yes"/>
      <point x="867" y="580"/>
      <point x="751" y="720"/>
      <point x="531" y="720" type="curve" smooth="yes"/>
      <point x="311" y="720"/>
      <point x="147" y="580"/>
      <point x="106" y="350" type="curve" smooth="yes"/>
      <point x="66" y="120"/>
      <point x="181" y="-20"/>
    </contour>
    <contour>
      <point x="412" y="40" type="curve" smooth="yes"/>
      <point x="252" y="40"/>
      <point x="161" y="150"/>
      <point x="196" y="350" type="curve" smooth="yes"/>
      <point x="231" y="550"/>
      <point x="361" y="660"/>
      <point x="521" y="660" type="curve" smooth="yes"/>
      <point x="681" y="660"/>
      <point x="771" y="550"/>
      <point x="736" y="350" type="curve" smooth="yes"/>
      <point x="701" y="150"/>
      <point x="572" y="40"/>
    </contour>
    <contour>
      <point x="289" y="140" type="line"/>
      <point x="369" y="140" type="line"/>
      <point x="396" y="290" type="line"/>
      <point x="466" y="290" type="line"/>
      <point x="509" y="140" type="line"/>
      <point x="594" y="140" type="line"/>
      <point x="544" y="310" type="line"/>
      <point x="577" y="325"/>
      <point x="621" y="350"/>
      <point x="635" y="430" type="curve" smooth="yes"/>
      <point x="655" y="540"/>
      <point x="600" y="570"/>
      <point x="500" y="570" type="curve" smooth="yes"/>
      <point x="440" y="570"/>
      <point x="398" y="560"/>
      <point x="361" y="550" type="curve"/>
    </contour>
    <contour>
      <point x="406" y="350" type="line"/>
      <point x="434" y="510" type="line"/>
      <point x="489" y="510" type="line" smooth="yes"/>
      <point x="529" y="510"/>
      <point x="566" y="490"/>
      <point x="555" y="430" type="curve" smooth="yes"/>
      <point x="545" y="370"/>
      <point x="501" y="350"/>
      <point x="461" y="350" type="curve" smooth="yes"/>
    </contour>
  </outline>
</glyph>
<glyph name="macron" format="2">
  <advance width="270"/>
  <unicode hex="00AF"/>
  <outline>
    <contour>
      <point x="132" y="640" type="line"/>
      <point x="362" y="640" type="line"/>
      <point x="373" y="700" type="line"/>
      <point x="143" y="700" type="line"/>
    </contour>
  </outline>
</glyph>
<glyph name="degree" format="2">
  <advance width="380"/>
  <unicode hex="00B0"/>
  <outline>
    <contour>
      <point x="258" y="390" type="curve"/>
      <point x="348" y="390"/>
      <point x="419" y="450"/>
      <point x="436" y="550" type="curve" smooth="yes"/>
      <point x="454" y="650"/>
      <point x="405" y="710"/>
      <point x="315" y="710" type="curve"/>
      <point x="225" y="710"/>
      <point x="154" y="650"/>
      <point x="136" y="550" type="curve"/>
      <point x="119" y="450"/>
      <point x="168" y="390"/>
    </contour>
    <contour>
      <point x="269" y="450" type="curve" smooth="yes"/>
      <point x="229" y="450"/>
      <point x="204" y="480"/>
      <point x="216" y="550" type="curve"/>
      <point x="229" y="620"/>
      <point x="264" y="650"/>
      <point x="304" y="650" type="curve"/>
      <point x="344" y="650"/>
      <point x="369" y="620"/>
      <point x="356" y="550" type="curve" smooth="yes"/>
      <point x="344" y="480"/>
      <point x="309" y="450"/>
    </contour>
  </outline>
</glyph>
<glyph name="plusminus" format="2">
  <advance width="430"/>
  <unicode hex="00B1"/>
  <outline>
    <contour>
      <point x="201" y="150" type="line"/>
      <point x="281" y="150" type="line"/>
      <point x="308" y="305" type="line"/>
      <point x="453" y="305" type="line"/>
      <point x="466" y="375" type="line"/>
      <point x="321" y="375" type="line"/>
      <point x="348" y="530" type="line"/>
      <point x="268" y="530" type="line"/>
      <point x="241" y="375" type="line"/>
      <point x="96" y="375" type="line"/>
      <point x="83" y="305" type="line"/>
      <point x="228" y="305" type="line"/>
    </contour>
    <contour>
      <point x="38" y="50" type="line"/>
      <point x="408" y="50" type="line"/>
      <point x="421" y="120" type="line"/>
      <point x="51" y="120" type="line"/>
    </contour>
  </outline>
</glyph>
<glyph name="threesuperior" format="2">
  <advance width="255"/>
  <unicode hex="00B3"/>
  <outline>
    <contour>
      <point x="174" y="395" type="curve" smooth="yes"/>
      <point x="249" y="395"/>
      <point x="298" y="415"/>
      <point x="310" y="485" type="curve" smooth="yes"/>
      <point x="318" y="530"/>
      <point x="297" y="555"/>
      <point x="272" y="560" type="curve"/>
      <point x="289" y="565"/>
      <point x="319" y="590"/>
      <point x="324" y="620" type="curve" smooth="yes"/>
      <point x="335" y="685"/>
      <point x="299" y="705"/>
      <point x="234" y="705" type="curve" smooth="yes"/>
      <point x="204" y="705"/>
      <point x="172" y="700"/>
      <point x="152" y="694" type="curve"/>
      <point x="145" y="655" type="line"/>
      <point x="214" y="655" type="line" smooth="yes"/>
      <point x="250" y="655"/>
      <point x="262" y="640"/>
      <point x="259" y="620" type="curve" smooth="yes"/>
      <point x="255" y="600"/>
      <point x="242" y="580"/>
      <point x="207" y="580" type="curve" smooth="yes"/>
      <point x="167" y="580" type="line"/>
      <point x="158" y="530" type="line"/>
      <point x="203" y="530" type="line" smooth="yes"/>
      <point x="233" y="530"/>
      <point x="250" y="515"/>
      <point x="245" y="485" type="curve" smooth="yes"/>
      <point x="241" y="460"/>
      <point x="218" y="445"/>
      <point x="183" y="445" type="curve" smooth="yes"/>
      <point x="108" y="445" type="line"/>
      <point x="101" y="406" type="line"/>
      <point x="120" y="400"/>
      <point x="144" y="395"/>
    </contour>
  </outline>
</glyph>
<glyph name="acute" format="2">
  <advance width="170"/>
  <unicode hex="00B4"/>
  <outline>
    <contour>
      <point x="118" y="560" type="line"/>
      <point x="178" y="560" type="line"/>
      <point x="271" y="690" type="line"/>
      <point x="176" y="690" type="line"/>
    </contour>
  </outline>
</glyph>
<glyph name="micro" format="2">
  <advance width="475"/>
  <unicode hex="00B5"/>
  <outline>
    <contour>
      <point x="29" y="-200" type="line"/>
      <point x="119" y="-200" type="line"/>
      <point x="158" y="20" type="line"/>
      <point x="160" y="17"/>
      <point x="185" y="-10"/>
      <point x="228" y="-10" type="curve" smooth="yes"/>
      <point x="268" y="-10"/>
      <point x="300" y="5"/>
      <point x="330" y="30" type="curve"/>
      <point x="335" y="30" type="line"/>
      <point x="335" y="0" type="line"/>
      <point x="410" y="0" type="line"/>
      <point x="498" y="500" type="line"/>
      <point x="408" y="500" type="line"/>
      <point x="332" y="70" type="line"/>
      <point x="315" y="60"/>
      <point x="283" y="50"/>
      <point x="258" y="50" type="curve" smooth="yes"/>
      <point x="203" y="50"/>
      <point x="170" y="90"/>
      <point x="183" y="160" type="curve" smooth="yes"/>
      <point x="243" y="500" type="line"/>
      <point x="153" y="500" type="line"/>
    </contour>
  </outline>
</glyph>
<glyph name="paragraph" format="2">
  <advance width="530"/>
  <unicode hex="00B6"/>
  <outline>
    <contour>
      <point x="174" y="-200" type="line"/>
      <point x="254" y="-200" type="line"/>
      <point x="401" y="630" type="line"/>
      <point x="471" y="630" type="line"/>
      <point x="324" y="-200" type="line"/>
      <point x="404" y="-200" type="line"/>
      <point x="551" y="630" type="line"/>
      <point x="621" y="630" type="line"/>
      <point x="633" y="700" type="line"/>
      <point x="333" y="700" type="line" smooth="yes"/>
      <point x="223" y="700"/>
      <point x="137" y="610"/>
      <point x="120" y="515" type="curve" smooth="yes"/>
      <point x="100" y="400"/>
      <point x="158" y="330"/>
      <point x="268" y="330" type="curve"/>
    </contour>
  </outline>
</glyph>
<glyph name="periodcentered" format="2">
  <advance width="250"/>
  <unicode hex="00B7"/>
  <outline>
    <contour>
      <point x="132" y="295" type="line"/>
      <point x="222" y="295" type="line"/>
      <point x="241" y="405" type="line"/>
      <point x="151" y="405" type="line"/>
    </contour>
  </outline>
</glyph>
<glyph name="cedilla" format="2">
  <advance width="200"/>
  <unicode hex="00B8"/>
  <outline>
    <contour>
      <point x="65" y="-165" type="curve" smooth="yes"/>
      <point x="120" y="-165"/>
      <point x="156" y="-135"/>
      <point x="163" y="-95" type="curve" smooth="yes"/>
      <point x="170" y="-55"/>
      <point x="145" y="-25"/>
      <point x="90" y="-25" type="curve"/>
      <point x="75" y="-25" type="line"/>
      <point x="82" y="15" type="line"/>
      <point x="32" y="15" type="line"/>
      <point x="17" y="-70" type="line"/>
      <point x="72" y="-70" type="line"/>
      <point x="92" y="-70"/>
      <point x="100" y="-80"/>
      <point x="98" y="-95" type="curve"/>
      <point x="95" y="-110"/>
      <point x="83" y="-120"/>
      <point x="63" y="-120" type="curve" smooth="yes"/>
      <point x="-1" y="-120" type="line"/>
      <point x="-6" y="-150" type="line"/>
      <point x="-6" y="-150"/>
      <point x="20" y="-165"/>
    </contour>
  </outline>
</glyph>
<glyph name="onesuperior" format="2">
  <advance width="185"/>
  <unicode hex="00B9"/>
  <outline>
    <contour>
      <point x="160" y="400" type="line"/>
      <point x="225" y="400" type="line"/>
      <point x="278" y="700" type="line"/>
      <point x="248" y="700" type="line"/>
      <point x="213" y="700"/>
      <point x="172" y="695"/>
      <point x="151" y="688" type="curve"/>
      <point x="144" y="650" type="line"/>
      <point x="204" y="650" type="line"/>
    </contour>
  </outline>
</glyph>
<glyph name="ordmasculine" format="2">
  <advance width="300"/>
  <unicode hex="00BA"/>
  <outline>
    <contour>
      <point x="219" y="395" type="curve" smooth="yes"/>
      <point x="289" y="395"/>
      <point x="348" y="445"/>
      <point x="366" y="550" type="curve"/>
      <point x="385" y="655"/>
      <point x="344" y="705"/>
      <point x="274" y="705" type="curve" smooth="yes"/>
      <point x="204" y="705"/>
      <point x="145" y="655"/>
      <point x="126" y="550" type="curve"/>
      <point x="108" y="445"/>
      <point x="149" y="395"/>
    </contour>
    <contour>
      <point x="228" y="445" type="curve"/>
      <point x="198" y="445"/>
      <point x="177" y="470"/>
      <point x="191" y="550" type="curve" smooth="yes"/>
      <point x="206" y="630"/>
      <point x="235" y="655"/>
      <point x="265" y="655" type="curve" smooth="yes"/>
      <point x="295" y="655"/>
      <point x="316" y="630"/>
      <point x="301" y="550" type="curve"/>
      <point x="287" y="470"/>
      <point x="258" y="445"/>
    </contour>
  </outline>
</glyph>
<glyph name="guillemetright" format="2">
  <advance width="435"/>
  <unicode hex="00BB"/>
  <outline>
    <contour>
      <point x="267" y="45" type="line"/>
      <point x="459" y="250" type="line"/>
      <point x="340" y="455" type="line"/>
      <point x="268" y="415" type="line"/>
      <point x="359" y="252" type="line"/>
      <point x="358" y="248" type="line"/>
      <point x="209" y="85" type="line"/>
    </contour>
    <contour>
      <point x="102" y="45" type="line"/>
      <point x="294" y="250" type="line"/>
      <point x="175" y="455" type="line"/>
      <point x="103" y="415" type="line"/>
      <point x="194" y="252" type="line"/>
      <point x="193" y="248" type="line"/>
      <point x="44" y="85" type="line"/>
    </contour>
  </outline>
</glyph>
<glyph name="onequarter" format="2">
  <advance width="560"/>
  <unicode hex="00BC"/>
  <outline>
    <contour>
      <point x="40" y="0" type="line"/>
      <point x="120" y="0" type="line"/>
      <point x="633" y="700" type="line"/>
      <point x="553" y="700" type="line"/>
    </contour>
    <contour>
      <point x="410" y="0" type="line"/>
      <point x="475" y="0" type="line"/>
      <point x="486" y="65" type="line"/>
      <point x="516" y="65" type="line"/>
      <point x="525" y="115" type="line"/>
      <point x="495" y="115" type="line"/>
      <point x="527" y="300" type="line"/>
      <point x="457" y="300" type="line"/>
      <point x="285" y="115" type="line"/>
      <point x="276" y="65" type="line"/>
      <point x="421" y="65" type="line"/>
    </contour>
    <contour>
      <point x="355" y="115" type="line"/>
      <point x="447" y="213" type="line"/>
      <point x="430" y="115" type="line"/>
    </contour>
    <contour>
      <point x="175" y="400" type="line"/>
      <point x="245" y="400" type="line"/>
      <point x="298" y="700" type="line"/>
      <point x="263" y="700" type="line"/>
      <point x="228" y="700"/>
      <point x="187" y="695"/>
      <point x="166" y="688" type="curve"/>
      <point x="159" y="650" type="line"/>
      <point x="219" y="650" type="line"/>
    </contour>
  </outline>
</glyph>
<glyph name="threequarters" format="2">
  <advance width="565"/>
  <unicode hex="00BE"/>
  <outline>
    <contour>
      <point x="45" y="0" type="line"/>
      <point x="125" y="0" type="line"/>
      <point x="638" y="700" type="line"/>
      <point x="558" y="700" type="line"/>
    </contour>
    <contour>
      <point x="415" y="0" type="line"/>
      <point x="480" y="0" type="line"/>
      <point x="491" y="65" type="line"/>
      <point x="521" y="65" type="line"/>
      <point x="530" y="115" type="line"/>
      <point x="500" y="115" type="line"/>
      <point x="532" y="300" type="line"/>
      <point x="462" y="300" type="line"/>
      <point x="290" y="115" type="line"/>
      <point x="281" y="65" type="line"/>
      <point x="426" y="65" type="line"/>
    </contour>
    <contour>
      <point x="360" y="115" type="line"/>
      <point x="452" y="213" type="line"/>
      <point x="435" y="115" type="line"/>
    </contour>
    <contour>
      <point x="184" y="395" type="curve" smooth="yes"/>
      <point x="259" y="395"/>
      <point x="308" y="415"/>
      <point x="320" y="485" type="curve" smooth="yes"/>
      <point x="328" y="530"/>
      <point x="307" y="555"/>
      <point x="282" y="560" type="curve"/>
      <point x="299" y="565"/>
      <point x="329" y="590"/>
      <point x="334" y="620" type="curve" smooth="yes"/>
      <point x="345" y="685"/>
      <point x="309" y="705"/>
      <point x="244" y="705" type="curve" smooth="yes"/>
      <point x="214" y="705"/>
      <point x="182" y="700"/>
      <point x="162" y="694" type="curve"/>
      <point x="155" y="655" type="line"/>
      <point x="224" y="655" type="line" smooth="yes"/>
      <point x="260" y="655"/>
      <point x="272" y="640"/>
      <point x="269" y="620" type="curve" smooth="yes"/>
      <point x="265" y="600"/>
      <point x="252" y="580"/>
      <point x="217" y="580" type="curve" smooth="yes"/>
      <point x="177" y="580" type="line"/>
      <point x="168" y="530" type="line"/>
      <point x="213" y="530" type="line" smooth="yes"/>
      <point x="243" y="530"/>
      <point x="260" y="515"/>
      <point x="255" y="485" type="curve" smooth="yes"/>
      <point x="251" y="460"/>
      <point x="228" y="445"/>
      <point x="193" y="445" type="curve" smooth="yes"/>
      <point x="118" y="445" type="line"/>
      <point x="111" y="406" type="line"/>
      <point x="130" y="400"/>
      <point x="154" y="395"/>
    </contour>
  </outline>
</glyph>
<glyph name="questiondown" format="2">
  <advance width="370"/>
  <unicode hex="00BF"/>
  <outline>
    <contour>
      <point x="208" y="-10" type="curve" smooth="yes"/>
      <point x="268" y="-10"/>
      <point x="330" y="0"/>
      <point x="361" y="10" type="curve"/>
      <point x="369" y="55" type="line"/>
      <point x="239" y="55" type="line" smooth="yes"/>
      <point x="169" y="55"/>
      <point x="136" y="95"/>
      <point x="151" y="180" type="curve" smooth="yes"/>
      <point x="176" y="320"/>
      <point x="324" y="340"/>
      <point x="355" y="515" type="curve"/>
      <point x="275" y="515" type="line"/>
      <point x="250" y="370"/>
      <point x="91" y="350"/>
      <point x="61" y="180" type="curve" smooth="yes"/>
      <point x="38" y="50"/>
      <point x="88" y="-10"/>
    </contour>
    <contour>
      <point x="284" y="595" type="line"/>
      <point x="374" y="595" type="line"/>
      <point x="394" y="705" type="line"/>
      <point x="304" y="705" type="line"/>
    </contour>
  </outline>
</glyph>
<glyph name="Aacute" format="2">
  <advance width="510"/>
  <unicode hex="00C1"/>
  <outline>
    <contour>
      <point x="20" y="0" type="line"/>
      <point x="110" y="0" type="line"/>
      <point x="186" y="180" type="line"/>
      <point x="386" y="180" type="line"/>
      <point x="400" y="0" type="line"/>
      <point x="490" y="0" type="line"/>
      <point x="443" y="700" type="line"/>
      <point x="313" y="700" type="line"/>
    </contour>
    <contour>
      <point x="214" y="250" type="line"/>
      <point x="358" y="600" type="line"/>
      <point x="362" y="600" type="line"/>
      <point x="384" y="250" type="line"/>
    </contour>
    <contour>
      <point x="352" y="750" type="line"/>
      <point x="412" y="750" type="line"/>
      <point x="505" y="880" type="line"/>
      <point x="410" y="880" type="line"/>
    </contour>
  </outline>
</glyph>
<glyph name="Acircumflex" format="2">
  <advance width="510"/>
  <unicode hex="00C2"/>
  <outline>
    <contour>
      <point x="20" y="0" type="line"/>
      <point x="110" y="0" type="line"/>
      <point x="186" y="180" type="line"/>
      <point x="386" y="180" type="line"/>
      <point x="400" y="0" type="line"/>
      <point x="490" y="0" type="line"/>
      <point x="443" y="700" type="line"/>
      <point x="313" y="700" type="line"/>
    </contour>
    <contour>
      <point x="214" y="250" type="line"/>
      <point x="358" y="600" type="line"/>
      <point x="362" y="600" type="line"/>
      <point x="384" y="250" type="line"/>
    </contour>
    <contour>
      <point x="265" y="750" type="line"/>
      <point x="325" y="750" type="line"/>
      <point x="400" y="824" type="line"/>
      <point x="450" y="750" type="line"/>
      <point x="510" y="750" type="line"/>
      <point x="458" y="880" type="line"/>
      <point x="363" y="880" type="line"/>
    </contour>
  </outline>
</glyph>
<glyph name="Adieresis" format="2">
  <advance width="510"/>
  <unicode hex="00C4"/>
  <outline>
    <contour>
      <point x="20" y="0" type="line"/>
      <point x="110" y="0" type="line"/>
      <point x="186" y="180" type="line"/>
      <point x="386" y="180" type="line"/>
      <point x="400" y="0" type="line"/>
      <point x="490" y="0" type="line"/>
      <point x="443" y="700" type="line"/>
      <point x="313" y="700" type="line"/>
    </contour>
    <contour>
      <point x="214" y="250" type="line"/>
      <point x="358" y="600" type="line"/>
      <point x="362" y="600" type="line"/>
      <point x="384" y="250" type="line"/>
    </contour>
    <contour>
      <point x="264" y="760" type="line"/>
      <point x="354" y="760" type="line"/>
      <point x="373" y="870" type="line"/>
      <point x="283" y="870" type="line"/>
    </contour>
    <contour>
      <point x="424" y="760" type="line"/>
      <point x="514" y="760" type="line"/>
      <point x="533" y="870" type="line"/>
      <point x="443" y="870" type="line"/>
    </contour>
  </outline>
</glyph>
<glyph name="AE" format="2">
  <advance width="731"/>
  <unicode hex="00C6"/>
  <outline>
    <contour>
      <point x="0" y="0" type="line"/>
      <point x="90" y="0" type="line"/>
      <point x="183" y="180" type="line"/>
      <point x="382" y="180" type="line"/>
      <point x="351" y="0" type="line"/>
      <point x="691" y="0" type="line"/>
      <point x="703" y="70" type="line"/>
      <point x="453" y="70" type="line"/>
      <point x="499" y="330" type="line"/>
      <point x="719" y="330" type="line"/>
      <point x="731" y="400" type="line"/>
      <point x="511" y="400" type="line"/>
      <point x="552" y="630" type="line"/>
      <point x="802" y="630" type="line"/>
      <point x="814" y="700" type="line"/>
      <point x="363" y="700" type="line"/>
    </contour>
    <contour>
      <point x="220" y="250" type="line"/>
      <point x="417" y="630" type="line"/>
      <point x="462" y="630" type="line"/>
      <point x="395" y="250" type="line"/>
    </contour>
  </outline>
</glyph>
<glyph name="Ccedilla" format="2">
  <advance width="435"/>
  <unicode hex="00C7"/>
  <outline>
    <contour>
      <point x="245" y="-165" type="curve" smooth="yes"/>
      <point x="310" y="-165"/>
      <point x="346" y="-135"/>
      <point x="353" y="-95" type="curve" smooth="yes"/>
      <point x="360" y="-55"/>
      <point x="335" y="-25"/>
      <point x="280" y="-25" type="curve" smooth="yes"/>
      <point x="265" y="-25" type="line"/>
      <point x="268" y="-10" type="line"/>
      <point x="328" y="-10"/>
      <point x="390" y="0"/>
      <point x="421" y="10" type="curve"/>
      <point x="429" y="55" type="line"/>
      <point x="299" y="55" type="line" smooth="yes"/>
      <point x="209" y="55"/>
      <point x="160" y="115"/>
      <point x="201" y="350" type="curve" smooth="yes"/>
      <point x="243" y="585"/>
      <point x="313" y="645"/>
      <point x="393" y="645" type="curve" smooth="yes"/>
      <point x="523" y="645" type="line"/>
      <point x="531" y="690" type="line"/>
      <point x="503" y="700"/>
      <point x="445" y="710"/>
      <point x="385" y="710" type="curve" smooth="yes"/>
      <point x="255" y="710"/>
      <point x="161" y="630"/>
      <point x="111" y="350" type="curve" smooth="yes"/>
      <point x="68" y="105"/>
      <point x="113" y="13"/>
      <point x="218" y="-6" type="curve"/>
      <point x="207" y="-70" type="line"/>
      <point x="262" y="-70" type="line" smooth="yes"/>
      <point x="282" y="-70"/>
      <point x="290" y="-80"/>
      <point x="288" y="-95" type="curve" smooth="yes"/>
      <point x="285" y="-110"/>
      <point x="273" y="-120"/>
      <point x="243" y="-120" type="curve" smooth="yes"/>
      <point x="178" y="-120" type="line"/>
      <point x="173" y="-150" type="line"/>
      <point x="173" y="-150"/>
      <point x="200" y="-165"/>
    </contour>
  </outline>
</glyph>
<glyph name="Egrave" format="2">
  <advance width="450"/>
  <unicode hex="00C8"/>
  <outline>
    <contour>
      <point x="70" y="0" type="line"/>
      <point x="410" y="0" type="line"/>
      <point x="422" y="70" type="line"/>
      <point x="172" y="70" type="line"/>
      <point x="218" y="330" type="line"/>
      <point x="438" y="330" type="line"/>
      <point x="450" y="400" type="line"/>
      <point x="230" y="400" type="line"/>
      <point x="271" y="630" type="line"/>
      <point x="521" y="630" type="line"/>
      <point x="533" y="700" type="line"/>
      <point x="193" y="700" type="line"/>
    </contour>
    <contour>
      <point x="352" y="750" type="line"/>
      <point x="412" y="750" type="line"/>
      <point x="400" y="880" type="line"/>
      <point x="305" y="880" type="line"/>
    </contour>
  </outline>
</glyph>
<glyph name="Eacute" format="2">
  <advance width="450"/>
  <unicode hex="00C9"/>
  <outline>
    <contour>
      <point x="70" y="0" type="line"/>
      <point x="410" y="0" type="line"/>
      <point x="422" y="70" type="line"/>
      <point x="172" y="70" type="line"/>
      <point x="218" y="330" type="line"/>
      <point x="438" y="330" type="line"/>
      <point x="450" y="400" type="line"/>
      <point x="230" y="400" type="line"/>
      <point x="271" y="630" type="line"/>
      <point x="521" y="630" type="line"/>
      <point x="533" y="700" type="line"/>
      <point x="193" y="700" type="line"/>
    </contour>
    <contour>
      <point x="342" y="750" type="line"/>
      <point x="402" y="750" type="line"/>
      <point x="495" y="880" type="line"/>
      <point x="400" y="880" type="line"/>
    </contour>
  </outline>
</glyph>
<glyph name="Ecircumflex" format="2">
  <advance width="450"/>
  <unicode hex="00CA"/>
  <outline>
    <contour>
      <point x="70" y="0" type="line"/>
      <point x="410" y="0" type="line"/>
      <point x="422" y="70" type="line"/>
      <point x="172" y="70" type="line"/>
      <point x="218" y="330" type="line"/>
      <point x="438" y="330" type="line"/>
      <point x="450" y="400" type="line"/>
      <point x="230" y="400" type="line"/>
      <point x="271" y="630" type="line"/>
      <point x="521" y="630" type="line"/>
      <point x="533" y="700" type="line"/>
      <point x="193" y="700" type="line"/>
    </contour>
    <contour>
      <point x="247" y="750" type="line"/>
      <point x="307" y="750" type="line"/>
      <point x="382" y="824" type="line"/>
      <point x="432" y="750" type="line"/>
      <point x="492" y="750" type="line"/>
      <point x="440" y="880" type="line"/>
      <point x="345" y="880" type="line"/>
    </contour>
  </outline>
</glyph>
<glyph name="Edieresis" format="2">
  <advance width="450"/>
  <unicode hex="00CB"/>
  <outline>
    <contour>
      <point x="70" y="0" type="line"/>
      <point x="410" y="0" type="line"/>
      <point x="422" y="70" type="line"/>
      <point x="172" y="70" type="line"/>
      <point x="218" y="330" type="line"/>
      <point x="438" y="330" type="line"/>
      <point x="450" y="400" type="line"/>
      <point x="230" y="400" type="line"/>
      <point x="271" y="630" type="line"/>
      <point x="521" y="630" type="line"/>
      <point x="533" y="700" type="line"/>
      <point x="193" y="700" type="line"/>
    </contour>
    <contour>
      <point x="245" y="770" type="line"/>
      <point x="335" y="770" type="line"/>
      <point x="355" y="880" type="line"/>
      <point x="265" y="880" type="line"/>
    </contour>
    <contour>
      <point x="405" y="770" type="line"/>
      <point x="495" y="770" type="line"/>
      <point x="515" y="880" type="line"/>
      <point x="425" y="880" type="line"/>
    </contour>
  </outline>
</glyph>
<glyph name="Igrave" format="2">
  <advance width="225"/>
  <unicode hex="00CC"/>
  <outline>
    <contour>
      <point x="65" y="0" type="line"/>
      <point x="155" y="0" type="line"/>
      <point x="278" y="700" type="line"/>
      <point x="188" y="700" type="line"/>
    </contour>
    <contour>
      <point x="217" y="750" type="line"/>
      <point x="277" y="750" type="line"/>
      <point x="265" y="880" type="line"/>
      <point x="170" y="880" type="line"/>
    </contour>
  </outline>
</glyph>
<glyph name="Iacute" format="2">
  <advance width="230"/>
  <unicode hex="00CD"/>
  <outline>
    <contour>
      <point x="70" y="0" type="line"/>
      <point x="160" y="0" type="line"/>
      <point x="283" y="700" type="line"/>
      <point x="193" y="700" type="line"/>
    </contour>
    <contour>
      <point x="217" y="750" type="line"/>
      <point x="277" y="750" type="line"/>
      <point x="370" y="880" type="line"/>
      <point x="275" y="880" type="line"/>
    </contour>
  </outline>
</glyph>
<glyph name="Icircumflex" format="2">
  <advance width="215"/>
  <unicode hex="00CE"/>
  <outline>
    <contour>
      <point x="60" y="0" type="line"/>
      <point x="150" y="0" type="line"/>
      <point x="273" y="700" type="line"/>
      <point x="183" y="700" type="line"/>
    </contour>
    <contour>
      <point x="117" y="750" type="line"/>
      <point x="177" y="750" type="line"/>
      <point x="252" y="824" type="line"/>
      <point x="302" y="750" type="line"/>
      <point x="362" y="750" type="line"/>
      <point x="310" y="880" type="line"/>
      <point x="215" y="880" type="line"/>
    </contour>
  </outline>
</glyph>
<glyph name="Idieresis" format="2">
  <advance width="230"/>
  <unicode hex="00CF"/>
  <outline>
    <contour>
      <point x="70" y="0" type="line"/>
      <point x="160" y="0" type="line"/>
      <point x="283" y="700" type="line"/>
      <point x="193" y="700" type="line"/>
    </contour>
    <contour>
      <point x="125" y="770" type="line"/>
      <point x="215" y="770" type="line"/>
      <point x="235" y="880" type="line"/>
      <point x="145" y="880" type="line"/>
    </contour>
    <contour>
      <point x="285" y="770" type="line"/>
      <point x="375" y="770" type="line"/>
      <point x="395" y="880" type="line"/>
      <point x="305" y="880" type="line"/>
    </contour>
  </outline>
</glyph>
<glyph name="Eth" format="2">
  <advance width="540"/>
  <unicode hex="00D0"/>
  <outline>
    <contour>
      <point x="248" y="-10" type="curve" smooth="yes"/>
      <point x="408" y="-10"/>
      <point x="502" y="70"/>
      <point x="551" y="350" type="curve" smooth="yes"/>
      <point x="601" y="630"/>
      <point x="535" y="710"/>
      <point x="375" y="710" type="curve" smooth="yes"/>
      <point x="315" y="710"/>
      <point x="264" y="705"/>
      <point x="211" y="690" type="curve"/>
      <point x="158" y="390" type="line"/>
      <point x="78" y="390" type="line"/>
      <point x="66" y="320" type="line"/>
      <point x="146" y="320" type="line"/>
      <point x="91" y="10" type="line"/>
      <point x="139" y="-5"/>
      <point x="188" y="-10"/>
    </contour>
    <contour>
      <point x="189" y="55" type="line"/>
      <point x="236" y="320" type="line"/>
      <point x="346" y="320" type="line"/>
      <point x="358" y="390" type="line"/>
      <point x="248" y="390" type="line"/>
      <point x="293" y="645" type="line"/>
      <point x="363" y="645" type="line" smooth="yes"/>
      <point x="453" y="645"/>
      <point x="503" y="585"/>
      <point x="461" y="350" type="curve" smooth="yes"/>
      <point x="420" y="115"/>
      <point x="349" y="55"/>
      <point x="259" y="55" type="curve" smooth="yes"/>
    </contour>
  </outline>
</glyph>
<glyph name="Ograve" format="2">
  <advance width="530"/>
  <unicode hex="00D2"/>
  <outline>
    <contour>
      <point x="263" y="-10" type="curve" smooth="yes"/>
      <point x="398" y="-10"/>
      <point x="492" y="70"/>
      <point x="541" y="350" type="curve" smooth="yes"/>
      <point x="591" y="630"/>
      <point x="525" y="710"/>
      <point x="390" y="710" type="curve" smooth="yes"/>
      <point x="255" y="710"/>
      <point x="161" y="630"/>
      <point x="111" y="350" type="curve" smooth="yes"/>
      <point x="62" y="70"/>
      <point x="128" y="-10"/>
    </contour>
    <contour>
      <point x="273" y="50" type="curve" smooth="yes"/>
      <point x="208" y="50"/>
      <point x="159" y="110"/>
      <point x="201" y="350" type="curve" smooth="yes"/>
      <point x="244" y="590"/>
      <point x="314" y="650"/>
      <point x="379" y="650" type="curve" smooth="yes"/>
      <point x="444" y="650"/>
      <point x="494" y="590"/>
      <point x="451" y="350" type="curve" smooth="yes"/>
      <point x="409" y="110"/>
      <point x="338" y="50"/>
    </contour>
    <contour>
      <point x="374" y="760" type="line"/>
      <point x="434" y="760" type="line"/>
      <point x="421" y="890" type="line"/>
      <point x="326" y="890" type="line"/>
    </contour>
  </outline>
</glyph>
<glyph name="Odieresis" format="2">
  <advance width="530"/>
  <unicode hex="00D6"/>
  <outline>
    <contour>
      <point x="263" y="-10" type="curve" smooth="yes"/>
      <point x="398" y="-10"/>
      <point x="492" y="70"/>
      <point x="541" y="350" type="curve" smooth="yes"/>
      <point x="591" y="630"/>
      <point x="525" y="710"/>
      <point x="390" y="710" type="curve" smooth="yes"/>
      <point x="255" y="710"/>
      <point x="161" y="630"/>
      <point x="111" y="350" type="curve" smooth="yes"/>
      <point x="62" y="70"/>
      <point x="128" y="-10"/>
    </contour>
    <contour>
      <point x="273" y="50" type="curve" smooth="yes"/>
      <point x="208" y="50"/>
      <point x="159" y="110"/>
      <point x="201" y="350" type="curve" smooth="yes"/>
      <point x="244" y="590"/>
      <point x="314" y="650"/>
      <point x="379" y="650" type="curve" smooth="yes"/>
      <point x="444" y="650"/>
      <point x="494" y="590"/>
      <point x="451" y="350" type="curve" smooth="yes"/>
      <point x="409" y="110"/>
      <point x="338" y="50"/>
    </contour>
    <contour>
      <point x="275" y="770" type="line"/>
      <point x="365" y="770" type="line"/>
      <point x="385" y="880" type="line"/>
      <point x="295" y="880" type="line"/>
    </contour>
    <contour>
      <point x="435" y="770" type="line"/>
      <point x="525" y="770" type="line"/>
      <point x="545" y="880" type="line"/>
      <point x="455" y="880" type="line"/>
    </contour>
  </outline>
</glyph>
<glyph name="multiply" format="2">
  <advance width="400"/>
  <unicode hex="00D7"/>
  <outline>
    <contour>
      <point x="124" y="170" type="line"/>
      <point x="248" y="275" type="line"/>
      <point x="334" y="170" type="line"/>
      <point x="399" y="225" type="line"/>
      <point x="313" y="330" type="line"/>
      <point x="436" y="435" type="line"/>
      <point x="391" y="490" type="line"/>
      <point x="267" y="385" type="line"/>
      <point x="181" y="490" type="line"/>
      <point x="116" y="435" type="line"/>
      <point x="203" y="330" type="line"/>
      <point x="79" y="225" type="line"/>
    </contour>
  </outline>
</glyph>
<glyph name="Oslash" format="2">
  <advance width="540"/>
  <unicode hex="00D8"/>
  <outline>
    <contour>
      <point x="268" y="-10" type="curve" smooth="yes"/>
      <point x="403" y="-10"/>
      <point x="497" y="70"/>
      <point x="546" y="350" type="curve" smooth="yes"/>
      <point x="563" y="447"/>
      <point x="566" y="520"/>
      <point x="558" y="574" type="curve"/>
      <point x="624" y="650" type="line"/>
      <point x="589" y="680" type="line"/>
      <point x="543" y="627" type="line"/>
      <point x="517" y="688"/>
      <point x="465" y="710"/>
      <point x="395" y="710" type="curve" smooth="yes"/>
      <point x="260" y="710"/>
      <point x="166" y="630"/>
      <point x="116" y="350" type="curve" smooth="yes"/>
      <point x="99" y="253"/>
      <point x="96" y="180"/>
      <point x="105" y="126" type="curve"/>
      <point x="38" y="50" type="line"/>
      <point x="73" y="20" type="line"/>
      <point x="119" y="73" type="line"/>
      <point x="146" y="12"/>
      <point x="197" y="-10"/>
    </contour>
    <contour>
      <point x="278" y="50" type="curve" smooth="yes"/>
      <point x="236" y="50"/>
      <point x="201" y="75"/>
      <point x="192" y="156" type="curve"/>
      <point x="471" y="475" type="line"/>
      <point x="469" y="440"/>
      <point x="465" y="399"/>
      <point x="456" y="350" type="curve" smooth="yes"/>
      <point x="414" y="110"/>
      <point x="343" y="50"/>
    </contour>
    <contour>
      <point x="191" y="225" type="line"/>
      <point x="192" y="260"/>
      <point x="198" y="301"/>
      <point x="206" y="350" type="curve" smooth="yes"/>
      <point x="249" y="590"/>
      <point x="319" y="650"/>
      <point x="384" y="650" type="curve" smooth="yes"/>
      <point x="426" y="650"/>
      <point x="461" y="625"/>
      <point x="469" y="543" type="curve"/>
    </contour>
  </outline>
</glyph>
<glyph name="Ucircumflex" format="2">
  <advance width="520"/>
  <unicode hex="00DB"/>
  <outline>
    <contour>
      <point x="258" y="-10" type="curve" smooth="yes"/>
      <point x="398" y="-10"/>
      <point x="468" y="50"/>
      <point x="502" y="240" type="curve" smooth="yes"/>
      <point x="583" y="700" type="line"/>
      <point x="493" y="700" type="line"/>
      <point x="412" y="240" type="line" smooth="yes"/>
      <point x="385" y="90"/>
      <point x="338" y="50"/>
      <point x="268" y="50" type="curve" smooth="yes"/>
      <point x="198" y="50"/>
      <point x="165" y="90"/>
      <point x="192" y="240" type="curve" smooth="yes"/>
      <point x="273" y="700" type="line"/>
      <point x="183" y="700" type="line"/>
      <point x="102" y="240" type="line" smooth="yes"/>
      <point x="68" y="50"/>
      <point x="118" y="-10"/>
    </contour>
    <contour>
      <point x="268" y="740" type="line"/>
      <point x="328" y="740" type="line"/>
      <point x="403" y="814" type="line"/>
      <point x="453" y="740" type="line"/>
      <point x="513" y="740" type="line"/>
      <point x="461" y="870" type="line"/>
      <point x="366" y="870" type="line"/>
    </contour>
  </outline>
</glyph>
<glyph name="Udieresis" format="2">
  <advance width="520"/>
  <unicode hex="00DC"/>
  <outline>
    <contour>
      <point x="258" y="-10" type="curve" smooth="yes"/>
      <point x="398" y="-10"/>
      <point x="468" y="50"/>
      <point x="502" y="240" type="curve" smooth="yes"/>
      <point x="583" y="700" type="line"/>
      <point x="493" y="700" type="line"/>
      <point x="412" y="240" type="line" smooth="yes"/>
      <point x="385" y="90"/>
      <point x="338" y="50"/>
      <point x="268" y="50" type="curve" smooth="yes"/>
      <point x="198" y="50"/>
      <point x="165" y="90"/>
      <point x="192" y="240" type="curve" smooth="yes"/>
      <point x="273" y="700" type="line"/>
      <point x="183" y="700" type="line"/>
      <point x="102" y="240" type="line" smooth="yes"/>
      <point x="68" y="50"/>
      <point x="118" y="-10"/>
    </contour>
    <contour>
      <point x="267" y="750" type="line"/>
      <point x="357" y="750" type="line"/>
      <point x="376" y="860" type="line"/>
      <point x="286" y="860" type="line"/>
    </contour>
    <contour>
      <point x="427" y="750" type="line"/>
      <point x="517" y="750" type="line"/>
      <point x="536" y="860" type="line"/>
      <point x="446" y="860" type="line"/>
    </contour>
  </outline>
</glyph>
<glyph name="Yacute" format="2">
  <advance width="450"/>
  <unicode hex="00DD"/>
  <outline>
    <contour>
      <point x="180" y="0" type="line"/>
      <point x="270" y="0" type="line"/>
      <point x="308" y="220" type="line"/>
      <point x="563" y="700" type="line"/>
      <point x="473" y="700" type="line"/>
      <point x="285" y="345" type="line"/>
      <point x="223" y="700" type="line"/>
      <point x="133" y="700" type="line"/>
      <point x="218" y="220" type="line"/>
    </contour>
    <contour>
      <point x="320" y="740" type="line"/>
      <point x="380" y="740" type="line"/>
      <point x="473" y="870" type="line"/>
      <point x="378" y="870" type="line"/>
    </contour>
  </outline>
</glyph>
<glyph name="Thorn" format="2">
  <advance width="500"/>
  <unicode hex="00DE"/>
  <outline>
    <contour>
      <point x="68" y="-10" type="line"/>
      <point x="158" y="-10" type="line"/>
      <point x="172" y="70" type="line"/>
      <point x="379" y="80"/>
      <point x="490" y="175"/>
      <point x="521" y="350" type="curve"/>
      <point x="552" y="525"/>
      <point x="474" y="620"/>
      <point x="271" y="630" type="curve"/>
      <point x="285" y="710" type="line"/>
      <point x="195" y="710" type="line"/>
    </contour>
    <contour>
      <point x="183" y="135" type="curve"/>
      <point x="259" y="565" type="line"/>
      <point x="398" y="560"/>
      <point x="456" y="490"/>
      <point x="431" y="350" type="curve"/>
      <point x="407" y="210"/>
      <point x="324" y="140"/>
    </contour>
  </outline>
</glyph>
<glyph name="germandbls" format="2">
  <advance width="530"/>
  <unicode hex="00DF"/>
  <outline>
    <contour>
      <point x="323" y="-10" type="curve" smooth="yes"/>
      <point x="433" y="-10"/>
      <point x="498" y="20"/>
      <point x="518" y="135" type="curve" smooth="yes"/>
      <point x="543" y="275"/>
      <point x="380" y="285"/>
      <point x="394" y="365" type="curve" smooth="yes"/>
      <point x="406" y="435"/>
      <point x="515" y="455"/>
      <point x="531" y="550" type="curve" smooth="yes"/>
      <point x="549" y="650"/>
      <point x="500" y="710"/>
      <point x="380" y="710" type="curve" smooth="yes"/>
      <point x="250" y="710"/>
      <point x="179" y="650"/>
      <point x="152" y="495" type="curve" smooth="yes"/>
      <point x="65" y="0" type="line"/>
      <point x="155" y="0" type="line"/>
      <point x="242" y="495" type="line" smooth="yes"/>
      <point x="261" y="605"/>
      <point x="308" y="645"/>
      <point x="368" y="645" type="curve" smooth="yes"/>
      <point x="418" y="645"/>
      <point x="451" y="605"/>
      <point x="441" y="550" type="curve" smooth="yes"/>
      <point x="428" y="475"/>
      <point x="320" y="455"/>
      <point x="304" y="365" type="curve" smooth="yes"/>
      <point x="283" y="245"/>
      <point x="446" y="235"/>
      <point x="428" y="135" type="curve" smooth="yes"/>
      <point x="417" y="70"/>
      <point x="373" y="50"/>
      <point x="313" y="50" type="curve" smooth="yes"/>
      <point x="233" y="50" type="line"/>
      <point x="226" y="10" type="line"/>
      <point x="255" y="0"/>
      <point x="293" y="-10"/>
    </contour>
  </outline>
</glyph>
<glyph name="aacute" format="2">
  <advance width="465"/>
  <unicode hex="00E1"/>
  <outline>
    <contour>
      <point x="208" y="-10" type="curve" smooth="yes"/>
      <point x="248" y="-10"/>
      <point x="290" y="5"/>
      <point x="320" y="30" type="curve"/>
      <point x="325" y="30" type="line"/>
      <point x="325" y="0" type="line"/>
      <point x="400" y="0" type="line"/>
      <point x="484" y="480" type="line"/>
      <point x="438" y="500"/>
      <point x="389" y="510"/>
      <point x="329" y="510" type="curve" smooth="yes"/>
      <point x="194" y="510"/>
      <point x="124" y="450"/>
      <point x="89" y="250" type="curve" smooth="yes"/>
      <point x="53" y="50"/>
      <point x="103" y="-10"/>
    </contour>
    <contour>
      <point x="248" y="50" type="curve" smooth="yes"/>
      <point x="183" y="50"/>
      <point x="150" y="90"/>
      <point x="179" y="250" type="curve" smooth="yes"/>
      <point x="207" y="410"/>
      <point x="254" y="450"/>
      <point x="319" y="450" type="curve" smooth="yes"/>
      <point x="389" y="450" type="line"/>
      <point x="322" y="70" type="line"/>
      <point x="305" y="60"/>
      <point x="273" y="50"/>
    </contour>
    <contour>
      <point x="308" y="560" type="line"/>
      <point x="368" y="560" type="line"/>
      <point x="461" y="690" type="line"/>
      <point x="366" y="690" type="line"/>
    </contour>
  </outline>
</glyph>
<glyph name="adieresis" format="2">
  <advance width="464"/>
  <unicode hex="00E4"/>
  <outline>
    <contour>
      <point x="207" y="-10" type="curve" smooth="yes"/>
      <point x="247" y="-10"/>
      <point x="289" y="5"/>
      <point x="319" y="30" type="curve"/>
      <point x="324" y="30" type="line"/>
      <point x="324" y="0" type="line"/>
      <point x="399" y="0" type="line"/>
      <point x="483" y="480" type="line"/>
      <point x="437" y="500"/>
      <point x="388" y="510"/>
      <point x="328" y="510" type="curve" smooth="yes"/>
      <point x="193" y="510"/>
      <point x="123" y="450"/>
      <point x="88" y="250" type="curve" smooth="yes"/>
      <point x="52" y="50"/>
      <point x="102" y="-10"/>
    </contour>
    <contour>
      <point x="247" y="50" type="curve" smooth="yes"/>
      <point x="182" y="50"/>
      <point x="149" y="90"/>
      <point x="178" y="250" type="curve" smooth="yes"/>
      <point x="206" y="410"/>
      <point x="253" y="450"/>
      <point x="318" y="450" type="curve" smooth="yes"/>
      <point x="388" y="450" type="line"/>
      <point x="321" y="70" type="line"/>
      <point x="304" y="60"/>
      <point x="272" y="50"/>
    </contour>
    <contour>
      <point x="219" y="570" type="line"/>
      <point x="309" y="570" type="line"/>
      <point x="328" y="680" type="line"/>
      <point x="238" y="680" type="line"/>
    </contour>
    <contour>
      <point x="379" y="570" type="line"/>
      <point x="469" y="570" type="line"/>
      <point x="488" y="680" type="line"/>
      <point x="398" y="680" type="line"/>
    </contour>
  </outline>
</glyph>
<glyph name="aring" format="2">
  <advance width="465"/>
  <unicode hex="00E5"/>
  <outline>
    <contour>
      <point x="208" y="-10" type="curve" smooth="yes"/>
      <point x="248" y="-10"/>
      <point x="290" y="5"/>
      <point x="320" y="30" type="curve"/>
      <point x="325" y="30" type="line"/>
      <point x="325" y="0" type="line"/>
      <point x="400" y="0" type="line"/>
      <point x="484" y="480" type="line"/>
      <point x="438" y="500"/>
      <point x="389" y="510"/>
      <point x="329" y="510" type="curve" smooth="yes"/>
      <point x="194" y="510"/>
      <point x="124" y="450"/>
      <point x="89" y="250" type="curve" smooth="yes"/>
      <point x="53" y="50"/>
      <point x="103" y="-10"/>
    </contour>
    <contour>
      <point x="248" y="50" type="curve" smooth="yes"/>
      <point x="183" y="50"/>
      <point x="150" y="90"/>
      <point x="179" y="250" type="curve" smooth="yes"/>
      <point x="207" y="410"/>
      <point x="254" y="450"/>
      <point x="319" y="450" type="curve" smooth="yes"/>
      <point x="389" y="450" type="line"/>
      <point x="322" y="70" type="line"/>
      <point x="305" y="60"/>
      <point x="273" y="50"/>
    </contour>
    <contour>
      <point x="340" y="540" type="curve" smooth="yes"/>
      <point x="390" y="540"/>
      <point x="430" y="570"/>
      <point x="439" y="620" type="curve" smooth="yes"/>
      <point x="448" y="670"/>
      <point x="418" y="700"/>
      <point x="368" y="700" type="curve" smooth="yes"/>
      <point x="318" y="700"/>
      <point x="278" y="670"/>
      <point x="269" y="620" type="curve" smooth="yes"/>
      <point x="260" y="570"/>
      <point x="290" y="540"/>
    </contour>
    <contour>
      <point x="348" y="585" type="curve" smooth="yes"/>
      <point x="328" y="585"/>
      <point x="314" y="595"/>
      <point x="319" y="620" type="curve" smooth="yes"/>
      <point x="323" y="645"/>
      <point x="340" y="655"/>
      <point x="360" y="655" type="curve" smooth="yes"/>
      <point x="380" y="655"/>
      <point x="393" y="645"/>
      <point x="389" y="620" type="curve" smooth="yes"/>
      <point x="384" y="595"/>
      <point x="368" y="585"/>
    </contour>
  </outline>
</glyph>
<glyph name="ae" format="2">
  <advance width="685"/>
  <unicode hex="00E6"/>
  <outline>
    <contour>
      <point x="193" y="-10" type="curve" smooth="yes"/>
      <point x="263" y="-10"/>
      <point x="317" y="15"/>
      <point x="355" y="60" type="curve"/>
      <point x="381" y="10"/>
      <point x="423" y="-10"/>
      <point x="503" y="-10" type="curve" smooth="yes"/>
      <point x="543" y="-10"/>
      <point x="595" y="0"/>
      <point x="626" y="10" type="curve"/>
      <point x="633" y="50" type="line"/>
      <point x="533" y="50" type="line" smooth="yes"/>
      <point x="433" y="50"/>
      <point x="400" y="90"/>
      <point x="423" y="220" type="curve"/>
      <point x="518" y="220" type="line" smooth="yes"/>
      <point x="643" y="220"/>
      <point x="702" y="270"/>
      <point x="718" y="360" type="curve" smooth="yes"/>
      <point x="735" y="455"/>
      <point x="689" y="510"/>
      <point x="569" y="510" type="curve" smooth="yes"/>
      <point x="504" y="510"/>
      <point x="455" y="485"/>
      <point x="422" y="440" type="curve"/>
      <point x="405" y="485"/>
      <point x="354" y="510"/>
      <point x="294" y="510" type="curve" smooth="yes"/>
      <point x="254" y="510"/>
      <point x="203" y="500"/>
      <point x="171" y="490" type="curve"/>
      <point x="164" y="450" type="line"/>
      <point x="264" y="450" type="line" smooth="yes"/>
      <point x="334" y="450"/>
      <point x="370" y="430"/>
      <point x="354" y="340" type="curve" smooth="yes"/>
      <point x="343" y="275" type="line"/>
      <point x="314" y="280"/>
      <point x="275" y="285"/>
      <point x="245" y="285" type="curve" smooth="yes"/>
      <point x="155" y="285"/>
      <point x="89" y="255"/>
      <point x="69" y="140" type="curve" smooth="yes"/>
      <point x="48" y="20"/>
      <point x="103" y="-10"/>
    </contour>
    <contour>
      <point x="223" y="50" type="curve" smooth="yes"/>
      <point x="183" y="50"/>
      <point x="147" y="70"/>
      <point x="159" y="140" type="curve" smooth="yes"/>
      <point x="171" y="205"/>
      <point x="214" y="225"/>
      <point x="264" y="225" type="curve" smooth="yes"/>
      <point x="334" y="225" type="line"/>
      <point x="309" y="80" type="line"/>
      <point x="309" y="80"/>
      <point x="273" y="50"/>
    </contour>
    <contour>
      <point x="434" y="280" type="line"/>
      <point x="458" y="415"/>
      <point x="505" y="455"/>
      <point x="560" y="455" type="curve" smooth="yes"/>
      <point x="610" y="455"/>
      <point x="639" y="420"/>
      <point x="628" y="360" type="curve" smooth="yes"/>
      <point x="619" y="310"/>
      <point x="584" y="280"/>
      <point x="529" y="280" type="curve" smooth="yes"/>
    </contour>
  </outline>
</glyph>
<glyph name="ccedilla" format="2">
  <advance width="375"/>
  <unicode hex="00E7"/>
  <outline>
    <contour>
      <point x="205" y="-165" type="curve" smooth="yes"/>
      <point x="270" y="-165"/>
      <point x="306" y="-135"/>
      <point x="313" y="-95" type="curve" smooth="yes"/>
      <point x="320" y="-55"/>
      <point x="295" y="-25"/>
      <point x="240" y="-25" type="curve" smooth="yes"/>
      <point x="225" y="-25" type="line"/>
      <point x="228" y="-10" type="line"/>
      <point x="238" y="-10" type="line" smooth="yes"/>
      <point x="278" y="-10"/>
      <point x="330" y="0"/>
      <point x="361" y="10" type="curve"/>
      <point x="368" y="50" type="line"/>
      <point x="268" y="50" type="line" smooth="yes"/>
      <point x="183" y="50"/>
      <point x="150" y="90"/>
      <point x="179" y="250" type="curve" smooth="yes"/>
      <point x="207" y="410"/>
      <point x="254" y="450"/>
      <point x="329" y="450" type="curve" smooth="yes"/>
      <point x="429" y="450" type="line"/>
      <point x="436" y="490" type="line"/>
      <point x="408" y="500"/>
      <point x="359" y="510"/>
      <point x="319" y="510" type="curve" smooth="yes"/>
      <point x="194" y="510"/>
      <point x="124" y="450"/>
      <point x="89" y="250" type="curve" smooth="yes"/>
      <point x="59" y="82"/>
      <point x="89" y="13"/>
      <point x="179" y="-4" type="curve"/>
      <point x="167" y="-70" type="line"/>
      <point x="222" y="-70" type="line" smooth="yes"/>
      <point x="242" y="-70"/>
      <point x="250" y="-80"/>
      <point x="248" y="-95" type="curve" smooth="yes"/>
      <point x="245" y="-110"/>
      <point x="233" y="-120"/>
      <point x="203" y="-120" type="curve" smooth="yes"/>
      <point x="138" y="-120" type="line"/>
      <point x="133" y="-150" type="line"/>
      <point x="133" y="-150"/>
      <point x="160" y="-165"/>
    </contour>
  </outline>
</glyph>
<glyph name="egrave" format="2">
  <advance width="435"/>
  <unicode hex="00E8"/>
  <outline>
    <contour>
      <point x="253" y="-10" type="curve" smooth="yes"/>
      <point x="293" y="-10"/>
      <point x="345" y="0"/>
      <point x="376" y="10" type="curve"/>
      <point x="383" y="50" type="line"/>
      <point x="283" y="50" type="line" smooth="yes"/>
      <point x="183" y="50"/>
      <point x="150" y="90"/>
      <point x="172" y="210" type="curve"/>
      <point x="267" y="210" type="line" smooth="yes"/>
      <point x="392" y="210"/>
      <point x="450" y="260"/>
      <point x="466" y="350" type="curve" smooth="yes"/>
      <point x="484" y="450"/>
      <point x="434" y="510"/>
      <point x="319" y="510" type="curve" smooth="yes"/>
      <point x="194" y="510"/>
      <point x="124" y="450"/>
      <point x="89" y="250" type="curve" smooth="yes"/>
      <point x="53" y="50"/>
      <point x="103" y="-10"/>
    </contour>
    <contour>
      <point x="182" y="270" type="line"/>
      <point x="208" y="415"/>
      <point x="255" y="455"/>
      <point x="310" y="455" type="curve" smooth="yes"/>
      <point x="355" y="455"/>
      <point x="388" y="415"/>
      <point x="376" y="350" type="curve" smooth="yes"/>
      <point x="367" y="300"/>
      <point x="332" y="270"/>
      <point x="277" y="270" type="curve" smooth="yes"/>
    </contour>
    <contour>
      <point x="293" y="560" type="line"/>
      <point x="353" y="560" type="line"/>
      <point x="341" y="690" type="line"/>
      <point x="246" y="690" type="line"/>
    </contour>
  </outline>
</glyph>
<glyph name="igrave" format="2">
  <advance width="230"/>
  <unicode hex="00EC"/>
  <outline>
    <contour>
      <point x="70" y="0" type="line"/>
      <point x="160" y="0" type="line"/>
      <point x="248" y="500" type="line"/>
      <point x="158" y="500" type="line"/>
    </contour>
    <contour>
      <point x="183" y="560" type="line"/>
      <point x="243" y="560" type="line"/>
      <point x="231" y="690" type="line"/>
      <point x="136" y="690" type="line"/>
    </contour>
  </outline>
</glyph>
<glyph name="icircumflex" format="2">
  <advance width="215"/>
  <unicode hex="00EE"/>
  <outline>
    <contour>
      <point x="63" y="0" type="line"/>
      <point x="153" y="0" type="line"/>
      <point x="241" y="500" type="line"/>
      <point x="151" y="500" type="line"/>
    </contour>
    <contour>
      <point x="81" y="550" type="line"/>
      <point x="141" y="550" type="line"/>
      <point x="217" y="624" type="line"/>
      <point x="266" y="550" type="line"/>
      <point x="326" y="550" type="line"/>
      <point x="274" y="680" type="line"/>
      <point x="179" y="680" type="line"/>
    </contour>
  </outline>
</glyph>
<glyph name="idieresis" format="2">
  <advance width="230"/>
  <unicode hex="00EF"/>
  <outline>
    <contour>
      <point x="70" y="0" type="line"/>
      <point x="160" y="0" type="line"/>
      <point x="248" y="500" type="line"/>
      <point x="158" y="500" type="line"/>
    </contour>
    <contour>
      <point x="90" y="570" type="line"/>
      <point x="180" y="570" type="line"/>
      <point x="199" y="680" type="line"/>
      <point x="109" y="680" type="line"/>
    </contour>
    <contour>
      <point x="250" y="570" type="line"/>
      <point x="340" y="570" type="line"/>
      <point x="359" y="680" type="line"/>
      <point x="269" y="680" type="line"/>
    </contour>
  </outline>
</glyph>
<glyph name="ntilde" format="2">
  <advance width="475"/>
  <unicode hex="00F1"/>
  <outline>
    <contour>
      <point x="65" y="0" type="line"/>
      <point x="155" y="0" type="line"/>
      <point x="230" y="430" type="line"/>
      <point x="247" y="440"/>
      <point x="279" y="450"/>
      <point x="304" y="450" type="curve" smooth="yes"/>
      <point x="359" y="450"/>
      <point x="395" y="430"/>
      <point x="383" y="360" type="curve" smooth="yes"/>
      <point x="320" y="0" type="line"/>
      <point x="410" y="0" type="line"/>
      <point x="473" y="360" type="line" smooth="yes"/>
      <point x="494" y="480"/>
      <point x="439" y="510"/>
      <point x="344" y="510" type="curve" smooth="yes"/>
      <point x="304" y="510"/>
      <point x="262" y="495"/>
      <point x="232" y="470" type="curve"/>
      <point x="227" y="470" type="line"/>
      <point x="228" y="500" type="line"/>
      <point x="153" y="500" type="line"/>
    </contour>
    <contour>
      <point x="294" y="565" type="curve" smooth="yes"/>
      <point x="344" y="565"/>
      <point x="370" y="625"/>
      <point x="395" y="625" type="curve" smooth="yes"/>
      <point x="410" y="625"/>
      <point x="417" y="610"/>
      <point x="412" y="580" type="curve"/>
      <point x="462" y="580" type="line"/>
      <point x="475" y="655"/>
      <point x="455" y="685"/>
      <point x="405" y="685" type="curve" smooth="yes"/>
      <point x="355" y="685"/>
      <point x="330" y="625"/>
      <point x="305" y="625" type="curve" smooth="yes"/>
      <point x="290" y="625"/>
      <point x="282" y="640"/>
      <point x="288" y="670" type="curve"/>
      <point x="238" y="670" type="line"/>
      <point x="224" y="595"/>
      <point x="244" y="565"/>
    </contour>
  </outline>
</glyph>
<glyph name="ograve" format="2">
  <advance width="470"/>
  <unicode hex="00F2"/>
  <outline>
    <contour>
      <point x="233" y="-10" type="curve" smooth="yes"/>
      <point x="353" y="-10"/>
      <point x="429" y="55"/>
      <point x="464" y="250" type="curve" smooth="yes"/>
      <point x="498" y="445"/>
      <point x="444" y="510"/>
      <point x="324" y="510" type="curve" smooth="yes"/>
      <point x="204" y="510"/>
      <point x="128" y="445"/>
      <point x="94" y="250" type="curve" smooth="yes"/>
      <point x="59" y="55"/>
      <point x="113" y="-10"/>
    </contour>
    <contour>
      <point x="242" y="45" type="curve" smooth="yes"/>
      <point x="192" y="45"/>
      <point x="155" y="90"/>
      <point x="184" y="250" type="curve" smooth="yes"/>
      <point x="212" y="410"/>
      <point x="265" y="455"/>
      <point x="315" y="455" type="curve" smooth="yes"/>
      <point x="365" y="455"/>
      <point x="402" y="410"/>
      <point x="374" y="250" type="curve" smooth="yes"/>
      <point x="345" y="90"/>
      <point x="292" y="45"/>
    </contour>
    <contour>
      <point x="308" y="560" type="line"/>
      <point x="368" y="560" type="line"/>
      <point x="356" y="690" type="line"/>
      <point x="261" y="690" type="line"/>
    </contour>
  </outline>
</glyph>
<glyph name="ocircumflex" format="2">
  <advance width="460"/>
  <unicode hex="00F4"/>
  <outline>
    <contour>
      <point x="228" y="-10" type="curve" smooth="yes"/>
      <point x="348" y="-10"/>
      <point x="424" y="55"/>
      <point x="459" y="250" type="curve" smooth="yes"/>
      <point x="493" y="445"/>
      <point x="439" y="510"/>
      <point x="319" y="510" type="curve" smooth="yes"/>
      <point x="199" y="510"/>
      <point x="123" y="445"/>
      <point x="89" y="250" type="curve" smooth="yes"/>
      <point x="54" y="55"/>
      <point x="108" y="-10"/>
    </contour>
    <contour>
      <point x="237" y="45" type="curve" smooth="yes"/>
      <point x="187" y="45"/>
      <point x="150" y="90"/>
      <point x="179" y="250" type="curve" smooth="yes"/>
      <point x="207" y="410"/>
      <point x="260" y="455"/>
      <point x="310" y="455" type="curve" smooth="yes"/>
      <point x="360" y="455"/>
      <point x="397" y="410"/>
      <point x="369" y="250" type="curve" smooth="yes"/>
      <point x="340" y="90"/>
      <point x="287" y="45"/>
    </contour>
    <contour>
      <point x="204" y="550" type="line"/>
      <point x="264" y="550" type="line"/>
      <point x="340" y="624" type="line"/>
      <point x="389" y="550" type="line"/>
      <point x="449" y="550" type="line"/>
      <point x="397" y="680" type="line"/>
      <point x="302" y="680" type="line"/>
    </contour>
  </outline>
</glyph>
<glyph name="odieresis" format="2">
  <advance width="470"/>
  <unicode hex="00F6"/>
  <outline>
    <contour>
      <point x="233" y="-10" type="curve" smooth="yes"/>
      <point x="353" y="-10"/>
      <point x="429" y="55"/>
      <point x="464" y="250" type="curve" smooth="yes"/>
      <point x="498" y="445"/>
      <point x="444" y="510"/>
      <point x="324" y="510" type="curve" smooth="yes"/>
      <point x="204" y="510"/>
      <point x="128" y="445"/>
      <point x="94" y="250" type="curve" smooth="yes"/>
      <point x="59" y="55"/>
      <point x="113" y="-10"/>
    </contour>
    <contour>
      <point x="242" y="45" type="curve" smooth="yes"/>
      <point x="192" y="45"/>
      <point x="155" y="90"/>
      <point x="184" y="250" type="curve" smooth="yes"/>
      <point x="212" y="410"/>
      <point x="265" y="455"/>
      <point x="315" y="455" type="curve" smooth="yes"/>
      <point x="365" y="455"/>
      <point x="402" y="410"/>
      <point x="374" y="250" type="curve" smooth="yes"/>
      <point x="345" y="90"/>
      <point x="292" y="45"/>
    </contour>
    <contour>
      <point x="210" y="570" type="line"/>
      <point x="300" y="570" type="line"/>
      <point x="319" y="680" type="line"/>
      <point x="229" y="680" type="line"/>
    </contour>
    <contour>
      <point x="370" y="570" type="line"/>
      <point x="460" y="570" type="line"/>
      <point x="479" y="680" type="line"/>
      <point x="389" y="680" type="line"/>
    </contour>
  </outline>
</glyph>
<glyph name="divide" format="2">
  <advance width="430"/>
  <unicode hex="00F7"/>
  <outline>
    <contour>
      <point x="75" y="260" type="line"/>
      <point x="445" y="260" type="line"/>
      <point x="459" y="340" type="line"/>
      <point x="89" y="340" type="line"/>
    </contour>
    <contour>
      <point x="191" y="95" type="line"/>
      <point x="271" y="95" type="line"/>
      <point x="287" y="185" type="line"/>
      <point x="207" y="185" type="line"/>
    </contour>
    <contour>
      <point x="248" y="415" type="line"/>
      <point x="328" y="415" type="line"/>
      <point x="344" y="505" type="line"/>
      <point x="264" y="505" type="line"/>
    </contour>
  </outline>
</glyph>
<glyph name="oslash" format="2">
  <advance width="480"/>
  <unicode hex="00F8"/>
  <outline>
    <contour>
      <point x="238" y="-10" type="curve" smooth="yes"/>
      <point x="358" y="-10"/>
      <point x="434" y="55"/>
      <point x="469" y="250" type="curve" smooth="yes"/>
      <point x="479" y="309"/>
      <point x="480" y="356"/>
      <point x="476" y="393" type="curve"/>
      <point x="527" y="440" type="line"/>
      <point x="499" y="480" type="line"/>
      <point x="461" y="445" type="line"/>
      <point x="438" y="492"/>
      <point x="392" y="510"/>
      <point x="329" y="510" type="curve" smooth="yes"/>
      <point x="209" y="510"/>
      <point x="133" y="445"/>
      <point x="99" y="250" type="curve" smooth="yes"/>
      <point x="88" y="191"/>
      <point x="86" y="144"/>
      <point x="91" y="107" type="curve"/>
      <point x="40" y="60" type="line"/>
      <point x="68" y="20" type="line"/>
      <point x="106" y="55" type="line"/>
      <point x="129" y="8"/>
      <point x="174" y="-10"/>
    </contour>
    <contour>
      <point x="247" y="45" type="curve" smooth="yes"/>
      <point x="214" y="45"/>
      <point x="187" y="64"/>
      <point x="180" y="123" type="curve"/>
      <point x="386" y="311" type="line"/>
      <point x="385" y="293"/>
      <point x="383" y="273"/>
      <point x="379" y="250" type="curve" smooth="yes"/>
      <point x="350" y="90"/>
      <point x="297" y="45"/>
    </contour>
    <contour>
      <point x="180" y="188" type="line"/>
      <point x="182" y="207"/>
      <point x="185" y="227"/>
      <point x="189" y="250" type="curve" smooth="yes"/>
      <point x="217" y="410"/>
      <point x="270" y="455"/>
      <point x="320" y="455" type="curve" smooth="yes"/>
      <point x="353" y="455"/>
      <point x="379" y="435"/>
      <point x="386" y="377" type="curve"/>
    </contour>
  </outline>
</glyph>
<glyph name="uacute" format="2">
  <advance width="475"/>
  <unicode hex="00FA"/>
  <outline>
    <contour>
      <point x="218" y="-10" type="curve" smooth="yes"/>
      <point x="258" y="-10"/>
      <point x="300" y="5"/>
      <point x="330" y="30" type="curve"/>
      <point x="335" y="30" type="line"/>
      <point x="335" y="0" type="line"/>
      <point x="410" y="0" type="line"/>
      <point x="498" y="500" type="line"/>
      <point x="408" y="500" type="line"/>
      <point x="332" y="70" type="line"/>
      <point x="315" y="60"/>
      <point x="283" y="50"/>
      <point x="258" y="50" type="curve" smooth="yes"/>
      <point x="203" y="50"/>
      <point x="167" y="70"/>
      <point x="179" y="140" type="curve" smooth="yes"/>
      <point x="243" y="500" type="line"/>
      <point x="153" y="500" type="line"/>
      <point x="89" y="140" type="line" smooth="yes"/>
      <point x="68" y="20"/>
      <point x="123" y="-10"/>
    </contour>
    <contour>
      <point x="303" y="560" type="line"/>
      <point x="363" y="560" type="line"/>
      <point x="456" y="690" type="line"/>
      <point x="361" y="690" type="line"/>
    </contour>
  </outline>
</glyph>
<glyph name="udieresis" format="2">
  <advance width="475"/>
  <unicode hex="00FC"/>
  <outline>
    <contour>
      <point x="218" y="-10" type="curve" smooth="yes"/>
      <point x="258" y="-10"/>
      <point x="300" y="5"/>
      <point x="330" y="30" type="curve"/>
      <point x="335" y="30" type="line"/>
      <point x="335" y="0" type="line"/>
      <point x="410" y="0" type="line"/>
      <point x="498" y="500" type="line"/>
      <point x="408" y="500" type="line"/>
      <point x="332" y="70" type="line"/>
      <point x="315" y="60"/>
      <point x="283" y="50"/>
      <point x="258" y="50" type="curve" smooth="yes"/>
      <point x="203" y="50"/>
      <point x="167" y="70"/>
      <point x="179" y="140" type="curve" smooth="yes"/>
      <point x="243" y="500" type="line"/>
      <point x="153" y="500" type="line"/>
      <point x="89" y="140" type="line" smooth="yes"/>
      <point x="68" y="20"/>
      <point x="123" y="-10"/>
    </contour>
    <contour>
      <point x="215" y="570" type="line"/>
      <point x="305" y="570" type="line"/>
      <point x="324" y="680" type="line"/>
      <point x="234" y="680" type="line"/>
    </contour>
    <contour>
      <point x="375" y="570" type="line"/>
      <point x="465" y="570" type="line"/>
      <point x="484" y="680" type="line"/>
      <point x="394" y="680" type="line"/>
    </contour>
  </outline>
</glyph>
<glyph name="thorn" format="2">
  <advance width="470"/>
  <unicode hex="00FE"/>
  <outline>
    <contour>
      <point x="34" y="-200" type="line"/>
      <point x="124" y="-200" type="line"/>
      <point x="162" y="15" type="line"/>
      <point x="190" y="0"/>
      <point x="218" y="-10"/>
      <point x="258" y="-10" type="curve" smooth="yes"/>
      <point x="363" y="-10"/>
      <point x="433" y="50"/>
      <point x="469" y="250" type="curve" smooth="yes"/>
      <point x="504" y="450"/>
      <point x="454" y="510"/>
      <point x="349" y="510" type="curve" smooth="yes"/>
      <point x="309" y="510"/>
      <point x="278" y="500"/>
      <point x="245" y="485" type="curve"/>
      <point x="283" y="700" type="line"/>
      <point x="193" y="700" type="line"/>
    </contour>
    <contour>
      <point x="238" y="50" type="curve" smooth="yes"/>
      <point x="213" y="50"/>
      <point x="185" y="60"/>
      <point x="172" y="70" type="curve"/>
      <point x="235" y="430" type="line"/>
      <point x="252" y="440"/>
      <point x="284" y="450"/>
      <point x="309" y="450" type="curve" smooth="yes"/>
      <point x="374" y="450"/>
      <point x="407" y="410"/>
      <point x="379" y="250" type="curve" smooth="yes"/>
      <point x="350" y="90"/>
      <point x="303" y="50"/>
    </contour>
  </outline>
</glyph>
<glyph name="ydieresis" format="2">
  <advance width="475"/>
  <unicode hex="00FF"/>
  <outline>
    <contour>
      <point x="172" y="-210" type="curve" smooth="yes"/>
      <point x="312" y="-210"/>
      <point x="383" y="-150"/>
      <point x="417" y="40" type="curve" smooth="yes"/>
      <point x="498" y="500" type="line"/>
      <point x="408" y="500" type="line"/>
      <point x="332" y="70" type="line"/>
      <point x="315" y="60"/>
      <point x="283" y="50"/>
      <point x="258" y="50" type="curve" smooth="yes"/>
      <point x="203" y="50"/>
      <point x="167" y="70"/>
      <point x="179" y="140" type="curve" smooth="yes"/>
      <point x="243" y="500" type="line"/>
      <point x="153" y="500" type="line"/>
      <point x="89" y="140" type="line" smooth="yes"/>
      <point x="68" y="20"/>
      <point x="123" y="-10"/>
      <point x="218" y="-10" type="curve" smooth="yes"/>
      <point x="258" y="-10"/>
      <point x="290" y="0"/>
      <point x="322" y="15" type="curve"/>
      <point x="300" y="-110"/>
      <point x="253" y="-150"/>
      <point x="163" y="-150" type="curve" smooth="yes"/>
      <point x="63" y="-150" type="line"/>
      <point x="56" y="-190" type="line"/>
      <point x="84" y="-200"/>
      <point x="132" y="-210"/>
    </contour>
    <contour>
      <point x="215" y="570" type="line"/>
      <point x="305" y="570" type="line"/>
      <point x="324" y="680" type="line"/>
      <point x="234" y="680" type="line"/>
    </contour>
    <contour>
      <point x="375" y="570" type="line"/>
      <point x="465" y="570" type="line"/>
      <point x="484" y="680" type="line"/>
      <point x="394" y="680" type="line"/>
    </contour>
  </outline>
</glyph>
<glyph name="Aogonek" format="2">
  <advance width="510"/>
  <unicode hex="0104"/>
  <outline>
    <contour>
      <point x="441" y="-160" type="curve" smooth="yes"/>
      <point x="486" y="-160"/>
      <point x="519" y="-145"/>
      <point x="519" y="-145" type="curve"/>
      <point x="526" y="-104" type="line"/>
      <point x="491" y="-104" type="line" smooth="yes"/>
      <point x="446" y="-104"/>
      <point x="434" y="-90"/>
      <point x="442" y="-45" type="curve" smooth="yes"/>
      <point x="450" y="0" type="line"/>
      <point x="490" y="0" type="line"/>
      <point x="443" y="700" type="line"/>
      <point x="313" y="700" type="line"/>
      <point x="20" y="0" type="line"/>
      <point x="110" y="0" type="line"/>
      <point x="186" y="180" type="line"/>
      <point x="386" y="180" type="line"/>
      <point x="400" y="0" type="line"/>
      <point x="410" y="0" type="line"/>
      <point x="410" y="0"/>
      <point x="378" y="-35"/>
      <point x="370" y="-80" type="curve" smooth="yes"/>
      <point x="362" y="-130"/>
      <point x="386" y="-160"/>
    </contour>
    <contour>
      <point x="214" y="250" type="line"/>
      <point x="358" y="600" type="line"/>
      <point x="362" y="600" type="line"/>
      <point x="384" y="250" type="line"/>
    </contour>
  </outline>
</glyph>
<glyph name="aogonek" format="2">
  <advance width="465"/>
  <unicode hex="0105"/>
  <outline>
    <contour>
      <point x="366" y="-160" type="curve" smooth="yes"/>
      <point x="411" y="-160"/>
      <point x="444" y="-145"/>
      <point x="444" y="-145" type="curve"/>
      <point x="451" y="-104" type="line"/>
      <point x="416" y="-104" type="line" smooth="yes"/>
      <point x="371" y="-104"/>
      <point x="359" y="-90"/>
      <point x="367" y="-45" type="curve" smooth="yes"/>
      <point x="375" y="0" type="line"/>
      <point x="400" y="0" type="line"/>
      <point x="484" y="480" type="line"/>
      <point x="438" y="500"/>
      <point x="389" y="510"/>
      <point x="329" y="510" type="curve" smooth="yes"/>
      <point x="194" y="510"/>
      <point x="124" y="450"/>
      <point x="89" y="250" type="curve" smooth="yes"/>
      <point x="53" y="50"/>
      <point x="103" y="-10"/>
      <point x="208" y="-10" type="curve" smooth="yes"/>
      <point x="248" y="-10"/>
      <point x="290" y="5"/>
      <point x="320" y="30" type="curve"/>
      <point x="325" y="30" type="line"/>
      <point x="325" y="0" type="line"/>
      <point x="335" y="0" type="line"/>
      <point x="335" y="0"/>
      <point x="303" y="-35"/>
      <point x="295" y="-80" type="curve" smooth="yes"/>
      <point x="287" y="-130"/>
      <point x="311" y="-160"/>
    </contour>
    <contour>
      <point x="248" y="50" type="curve" smooth="yes"/>
      <point x="183" y="50"/>
      <point x="150" y="90"/>
      <point x="179" y="250" type="curve" smooth="yes"/>
      <point x="207" y="410"/>
      <point x="254" y="450"/>
      <point x="319" y="450" type="curve" smooth="yes"/>
      <point x="389" y="450" type="line"/>
      <point x="322" y="70" type="line"/>
      <point x="305" y="60"/>
      <point x="273" y="50"/>
    </contour>
  </outline>
</glyph>
<glyph name="cacute" format="2">
  <advance width="375"/>
  <unicode hex="0107"/>
  <outline>
    <contour>
      <point x="238" y="-10" type="curve" smooth="yes"/>
      <point x="278" y="-10"/>
      <point x="330" y="0"/>
      <point x="361" y="10" type="curve"/>
      <point x="368" y="50" type="line"/>
      <point x="268" y="50" type="line" smooth="yes"/>
      <point x="183" y="50"/>
      <point x="150" y="90"/>
      <point x="179" y="250" type="curve" smooth="yes"/>
      <point x="207" y="410"/>
      <point x="254" y="450"/>
      <point x="329" y="450" type="curve" smooth="yes"/>
      <point x="429" y="450" type="line"/>
      <point x="436" y="490" type="line"/>
      <point x="408" y="500"/>
      <point x="359" y="510"/>
      <point x="319" y="510" type="curve" smooth="yes"/>
      <point x="194" y="510"/>
      <point x="124" y="450"/>
      <point x="89" y="250" type="curve" smooth="yes"/>
      <point x="53" y="50"/>
      <point x="103" y="-10"/>
    </contour>
    <contour>
      <point x="288" y="560" type="line"/>
      <point x="348" y="560" type="line"/>
      <point x="441" y="690" type="line"/>
      <point x="346" y="690" type="line"/>
    </contour>
  </outline>
</glyph>
<glyph name="Ccaron" format="2">
  <advance width="435"/>
  <unicode hex="010C"/>
  <outline>
    <contour>
      <point x="268" y="-10" type="curve" smooth="yes"/>
      <point x="328" y="-10"/>
      <point x="390" y="0"/>
      <point x="421" y="10" type="curve"/>
      <point x="429" y="55" type="line"/>
      <point x="299" y="55" type="line" smooth="yes"/>
      <point x="209" y="55"/>
      <point x="160" y="115"/>
      <point x="201" y="350" type="curve" smooth="yes"/>
      <point x="243" y="585"/>
      <point x="313" y="645"/>
      <point x="393" y="645" type="curve" smooth="yes"/>
      <point x="523" y="645" type="line"/>
      <point x="531" y="690" type="line"/>
      <point x="503" y="700"/>
      <point x="445" y="710"/>
      <point x="385" y="710" type="curve" smooth="yes"/>
      <point x="255" y="710"/>
      <point x="161" y="630"/>
      <point x="111" y="350" type="curve" smooth="yes"/>
      <point x="62" y="70"/>
      <point x="128" y="-10"/>
    </contour>
    <contour>
      <point x="342" y="760" type="line"/>
      <point x="437" y="760" type="line"/>
      <point x="534" y="890" type="line"/>
      <point x="474" y="890" type="line"/>
      <point x="398" y="816" type="line"/>
      <point x="349" y="890" type="line"/>
      <point x="289" y="890" type="line"/>
    </contour>
  </outline>
</glyph>
<glyph name="Emacron" format="2">
  <advance width="450"/>
  <unicode hex="0112"/>
  <outline>
    <contour>
      <point x="70" y="0" type="line"/>
      <point x="410" y="0" type="line"/>
      <point x="422" y="70" type="line"/>
      <point x="172" y="70" type="line"/>
      <point x="218" y="330" type="line"/>
      <point x="438" y="330" type="line"/>
      <point x="450" y="400" type="line"/>
      <point x="230" y="400" type="line"/>
      <point x="271" y="630" type="line"/>
      <point x="521" y="630" type="line"/>
      <point x="533" y="700" type="line"/>
      <point x="193" y="700" type="line"/>
    </contour>
    <contour>
      <point x="259" y="770" type="line"/>
      <point x="489" y="770" type="line"/>
      <point x="500" y="830" type="line"/>
      <point x="270" y="830" type="line"/>
    </contour>
  </outline>
</glyph>
<glyph name="Edotaccent" format="2">
  <advance width="450"/>
  <unicode hex="0116"/>
  <outline>
    <contour>
      <point x="70" y="0" type="line"/>
      <point x="410" y="0" type="line"/>
      <point x="422" y="70" type="line"/>
      <point x="172" y="70" type="line"/>
      <point x="218" y="330" type="line"/>
      <point x="438" y="330" type="line"/>
      <point x="450" y="400" type="line"/>
      <point x="230" y="400" type="line"/>
      <point x="271" y="630" type="line"/>
      <point x="521" y="630" type="line"/>
      <point x="533" y="700" type="line"/>
      <point x="193" y="700" type="line"/>
    </contour>
    <contour>
      <point x="335" y="770" type="line"/>
      <point x="425" y="770" type="line"/>
      <point x="445" y="880" type="line"/>
      <point x="355" y="880" type="line"/>
    </contour>
  </outline>
</glyph>
<glyph name="Eogonek" format="2">
  <advance width="450"/>
  <unicode hex="0118"/>
  <outline>
    <contour>
      <point x="356" y="-160" type="curve" smooth="yes"/>
      <point x="401" y="-160"/>
      <point x="434" y="-145"/>
      <point x="434" y="-145" type="curve"/>
      <point x="441" y="-104" type="line"/>
      <point x="406" y="-104" type="line" smooth="yes"/>
      <point x="361" y="-104"/>
      <point x="349" y="-90"/>
      <point x="357" y="-45" type="curve" smooth="yes"/>
      <point x="365" y="0" type="line"/>
      <point x="410" y="0" type="line"/>
      <point x="422" y="70" type="line"/>
      <point x="172" y="70" type="line"/>
      <point x="218" y="330" type="line"/>
      <point x="438" y="330" type="line"/>
      <point x="450" y="400" type="line"/>
      <point x="230" y="400" type="line"/>
      <point x="271" y="630" type="line"/>
      <point x="521" y="630" type="line"/>
      <point x="533" y="700" type="line"/>
      <point x="193" y="700" type="line"/>
      <point x="70" y="0" type="line"/>
      <point x="325" y="0" type="line"/>
      <point x="325" y="0"/>
      <point x="293" y="-35"/>
      <point x="285" y="-80" type="curve" smooth="yes"/>
      <point x="277" y="-130"/>
      <point x="301" y="-160"/>
    </contour>
  </outline>
</glyph>
<glyph name="eogonek" format="2">
  <advance width="435"/>
  <unicode hex="0119"/>
  <outline>
    <contour>
      <point x="246" y="-160" type="curve" smooth="yes"/>
      <point x="291" y="-160"/>
      <point x="324" y="-145"/>
      <point x="324" y="-145" type="curve"/>
      <point x="331" y="-104" type="line"/>
      <point x="296" y="-104" type="line" smooth="yes"/>
      <point x="251" y="-104"/>
      <point x="239" y="-90"/>
      <point x="247" y="-45" type="curve" smooth="yes"/>
      <point x="253" y="-10" type="line"/>
      <point x="293" y="-10"/>
      <point x="345" y="0"/>
      <point x="376" y="10" type="curve"/>
      <point x="383" y="50" type="line"/>
      <point x="283" y="50" type="line" smooth="yes"/>
      <point x="183" y="50"/>
      <point x="150" y="90"/>
      <point x="172" y="210" type="curve"/>
      <point x="267" y="210" type="line" smooth="yes"/>
      <point x="392" y="210"/>
      <point x="450" y="260"/>
      <point x="466" y="350" type="curve" smooth="yes"/>
      <point x="484" y="450"/>
      <point x="434" y="510"/>
      <point x="319" y="510" type="curve" smooth="yes"/>
      <point x="194" y="510"/>
      <point x="124" y="450"/>
      <point x="89" y="250" type="curve" smooth="yes"/>
      <point x="57" y="71"/>
      <point x="92" y="5"/>
      <point x="207" y="-7" type="curve"/>
      <point x="198" y="-20"/>
      <point x="181" y="-47"/>
      <point x="175" y="-80" type="curve" smooth="yes"/>
      <point x="167" y="-130"/>
      <point x="191" y="-160"/>
    </contour>
    <contour>
      <point x="182" y="270" type="line"/>
      <point x="208" y="415"/>
      <point x="255" y="455"/>
      <point x="310" y="455" type="curve" smooth="yes"/>
      <point x="355" y="455"/>
      <point x="388" y="415"/>
      <point x="376" y="350" type="curve" smooth="yes"/>
      <point x="367" y="300"/>
      <point x="332" y="270"/>
      <point x="277" y="270" type="curve" smooth="yes"/>
    </contour>
  </outline>
</glyph>
<glyph name="Gbreve" format="2">
  <advance width="505"/>
  <unicode hex="011E"/>
  <outline>
    <contour>
      <point x="288" y="-10" type="curve" smooth="yes"/>
      <point x="348" y="-10"/>
      <point x="410" y="0"/>
      <point x="441" y="10" type="curve"/>
      <point x="507" y="380" type="line"/>
      <point x="417" y="380" type="line"/>
      <point x="359" y="55" type="line"/>
      <point x="319" y="55" type="line" smooth="yes"/>
      <point x="209" y="55"/>
      <point x="160" y="115"/>
      <point x="201" y="350" type="curve" smooth="yes"/>
      <point x="243" y="585"/>
      <point x="313" y="645"/>
      <point x="403" y="645" type="curve" smooth="yes"/>
      <point x="533" y="645" type="line"/>
      <point x="541" y="690" type="line"/>
      <point x="513" y="700"/>
      <point x="455" y="710"/>
      <point x="395" y="710" type="curve" smooth="yes"/>
      <point x="255" y="710"/>
      <point x="161" y="630"/>
      <point x="111" y="350" type="curve" smooth="yes"/>
      <point x="62" y="70"/>
      <point x="128" y="-10"/>
    </contour>
    <contour>
      <point x="404" y="760" type="curve" smooth="yes"/>
      <point x="469" y="760"/>
      <point x="524" y="790"/>
      <point x="557" y="835" type="curve"/>
      <point x="524" y="875" type="line"/>
      <point x="500" y="855"/>
      <point x="461" y="830"/>
      <point x="416" y="830" type="curve" smooth="yes"/>
      <point x="371" y="830"/>
      <point x="340" y="855"/>
      <point x="324" y="875" type="curve"/>
      <point x="277" y="835" type="line"/>
      <point x="294" y="790"/>
      <point x="339" y="760"/>
    </contour>
  </outline>
</glyph>
<glyph name="gbreve" format="2">
  <advance width="465"/>
  <unicode hex="011F"/>
  <outline>
    <contour>
      <point x="162" y="-210" type="curve" smooth="yes"/>
      <point x="302" y="-210"/>
      <point x="373" y="-150"/>
      <point x="407" y="40" type="curve" smooth="yes"/>
      <point x="484" y="480" type="line"/>
      <point x="438" y="500"/>
      <point x="389" y="510"/>
      <point x="329" y="510" type="curve" smooth="yes"/>
      <point x="194" y="510"/>
      <point x="124" y="450"/>
      <point x="89" y="250" type="curve" smooth="yes"/>
      <point x="53" y="50"/>
      <point x="103" y="-10"/>
      <point x="208" y="-10" type="curve" smooth="yes"/>
      <point x="248" y="-10"/>
      <point x="280" y="0"/>
      <point x="312" y="15" type="curve"/>
      <point x="290" y="-110"/>
      <point x="243" y="-150"/>
      <point x="153" y="-150" type="curve" smooth="yes"/>
      <point x="53" y="-150" type="line"/>
      <point x="46" y="-190" type="line"/>
      <point x="74" y="-200"/>
      <point x="122" y="-210"/>
    </contour>
    <contour>
      <point x="248" y="50" type="curve" smooth="yes"/>
      <point x="183" y="50"/>
      <point x="150" y="90"/>
      <point x="179" y="250" type="curve" smooth="yes"/>
      <point x="207" y="410"/>
      <point x="254" y="450"/>
      <point x="319" y="450" type="curve" smooth="yes"/>
      <point x="389" y="450" type="line"/>
      <point x="322" y="70" type="line"/>
      <point x="305" y="60"/>
      <point x="273" y="50"/>
    </contour>
    <contour>
      <point x="330" y="570" type="curve" smooth="yes"/>
      <point x="395" y="570"/>
      <point x="445" y="600"/>
      <point x="477" y="640" type="curve"/>
      <point x="444" y="680" type="line"/>
      <point x="421" y="660"/>
      <point x="382" y="640"/>
      <point x="342" y="640" type="curve" smooth="yes"/>
      <point x="302" y="640"/>
      <point x="271" y="660"/>
      <point x="254" y="680" type="curve"/>
      <point x="207" y="640" type="line"/>
      <point x="225" y="600"/>
      <point x="265" y="570"/>
    </contour>
  </outline>
</glyph>
<glyph name="hbar" format="2">
  <advance width="490"/>
  <unicode hex="0127"/>
  <outline>
    <contour>
      <point x="80" y="0" type="line"/>
      <point x="170" y="0" type="line"/>
      <point x="240" y="400" type="line"/>
      <point x="257" y="410"/>
      <point x="289" y="420"/>
      <point x="314" y="420" type="curve" smooth="yes"/>
      <point x="369" y="420"/>
      <point x="405" y="400"/>
      <point x="393" y="330" type="curve" smooth="yes"/>
      <point x="335" y="0" type="line"/>
      <point x="425" y="0" type="line"/>
      <point x="483" y="330" type="line" smooth="yes"/>
      <point x="504" y="450"/>
      <point x="449" y="480"/>
      <point x="364" y="480" type="curve" smooth="yes"/>
      <point x="319" y="480"/>
      <point x="282" y="470"/>
      <point x="250" y="455" type="curve"/>
      <point x="266" y="545" type="line"/>
      <point x="286" y="545" type="line"/>
      <point x="326" y="545"/>
      <point x="377" y="555"/>
      <point x="409" y="565" type="curve"/>
      <point x="417" y="610" type="line"/>
      <point x="277" y="610" type="line"/>
      <point x="293" y="700" type="line"/>
      <point x="203" y="700" type="line"/>
      <point x="187" y="610" type="line"/>
      <point x="127" y="610" type="line"/>
      <point x="116" y="545" type="line"/>
      <point x="176" y="545" type="line"/>
    </contour>
  </outline>
</glyph>
<glyph name="imacron" format="2">
  <advance width="230"/>
  <unicode hex="012B"/>
  <outline>
    <contour>
      <point x="70" y="0" type="line"/>
      <point x="160" y="0" type="line"/>
      <point x="248" y="500" type="line"/>
      <point x="158" y="500" type="line"/>
    </contour>
    <contour>
      <point x="102" y="580" type="line"/>
      <point x="332" y="580" type="line"/>
      <point x="342" y="640" type="line"/>
      <point x="112" y="640" type="line"/>
    </contour>
  </outline>
</glyph>
<glyph name="Idotaccent" format="2">
  <advance width="230"/>
  <unicode hex="0130"/>
  <outline>
    <contour>
      <point x="70" y="0" type="line"/>
      <point x="160" y="0" type="line"/>
      <point x="283" y="700" type="line"/>
      <point x="193" y="700" type="line"/>
    </contour>
    <contour>
      <point x="205" y="770" type="line"/>
      <point x="295" y="770" type="line"/>
      <point x="315" y="880" type="line"/>
      <point x="225" y="880" type="line"/>
    </contour>
  </outline>
</glyph>
<glyph name="idotless" format="2">
  <advance width="230"/>
  <unicode hex="0131"/>
  <anchor x="113" y="0" name="bottom"/>
  <anchor x="103" y="0" name="ogonek"/>
  <anchor x="200" y="500" name="top"/>
  <outline>
    <contour>
      <point x="70" y="0" type="line"/>
      <point x="160" y="0" type="line"/>
      <point x="248" y="500" type="line"/>
      <point x="158" y="500" type="line"/>
    </contour>
  </outline>
</glyph>
<glyph name="ij" format="2">
  <advance width="460"/>
  <unicode hex="0133"/>
  <outline>
    <contour>
      <point x="212" y="-210" type="curve" smooth="yes"/>
      <point x="292" y="-210"/>
      <point x="358" y="-180"/>
      <point x="382" y="-40" type="curve"/>
      <point x="478" y="500" type="line"/>
      <point x="158" y="500" type="line"/>
      <point x="70" y="0" type="line"/>
      <point x="160" y="0" type="line"/>
      <point x="236" y="435" type="line"/>
      <point x="376" y="435" type="line"/>
      <point x="292" y="-40" type="line"/>
      <point x="277" y="-130"/>
      <point x="233" y="-150"/>
      <point x="203" y="-150" type="curve"/>
      <point x="133" y="-150" type="line"/>
      <point x="126" y="-190" type="line"/>
      <point x="149" y="-200"/>
      <point x="182" y="-210"/>
    </contour>
    <contour>
      <point x="170" y="570" type="line"/>
      <point x="260" y="570" type="line"/>
      <point x="279" y="680" type="line"/>
      <point x="189" y="680" type="line"/>
    </contour>
    <contour>
      <point x="400" y="570" type="line"/>
      <point x="490" y="570" type="line"/>
      <point x="509" y="680" type="line"/>
      <point x="419" y="680" type="line"/>
    </contour>
  </outline>
</glyph>
<glyph name="jcircumflex" format="2">
  <advance width="240"/>
  <unicode hex="0135"/>
  <outline>
    <contour>
      <point x="-7" y="-210" type="curve" smooth="yes"/>
      <point x="72" y="-210"/>
      <point x="138" y="-180"/>
      <point x="162" y="-40" type="curve" smooth="yes"/>
      <point x="258" y="500" type="line"/>
      <point x="168" y="500" type="line"/>
      <point x="72" y="-40" type="line" smooth="yes"/>
      <point x="57" y="-130"/>
      <point x="13" y="-150"/>
      <point x="-16" y="-150" type="curve" smooth="yes"/>
      <point x="-86" y="-150" type="line"/>
      <point x="-93" y="-190" type="line"/>
      <point x="-70" y="-200"/>
      <point x="-37" y="-210"/>
    </contour>
    <contour>
      <point x="96" y="550" type="line"/>
      <point x="156" y="550" type="line"/>
      <point x="232" y="624" type="line"/>
      <point x="281" y="550" type="line"/>
      <point x="341" y="550" type="line"/>
      <point x="289" y="680" type="line"/>
      <point x="194" y="680" type="line"/>
    </contour>
  </outline>
</glyph>
<glyph name="Kcommaaccent" format="2">
  <advance width="490"/>
  <unicode hex="0136"/>
  <outline>
    <contour>
      <point x="70" y="0" type="line"/>
      <point x="160" y="0" type="line"/>
      <point x="221" y="350" type="line"/>
      <point x="375" y="0" type="line"/>
      <point x="480" y="0" type="line"/>
      <point x="317" y="355" type="line"/>
      <point x="583" y="700" type="line"/>
      <point x="478" y="700" type="line"/>
      <point x="223" y="360" type="line"/>
      <point x="283" y="700" type="line"/>
      <point x="193" y="700" type="line"/>
    </contour>
    <contour>
      <point x="174" y="-200" type="line"/>
      <point x="234" y="-200" type="line"/>
      <point x="291" y="-50" type="line"/>
      <point x="201" y="-50" type="line"/>
    </contour>
  </outline>
</glyph>
<glyph name="kcommaaccent" format="2">
  <advance width="435"/>
  <unicode hex="0137"/>
  <outline>
    <contour>
      <point x="70" y="0" type="line"/>
      <point x="160" y="0" type="line"/>
      <point x="205" y="260" type="line"/>
      <point x="325" y="0" type="line"/>
      <point x="425" y="0" type="line"/>
      <point x="296" y="265" type="line"/>
      <point x="493" y="500" type="line"/>
      <point x="393" y="500" type="line"/>
      <point x="207" y="270" type="line"/>
      <point x="283" y="700" type="line"/>
      <point x="193" y="700" type="line"/>
    </contour>
    <contour>
      <point x="152" y="-210" type="line"/>
      <point x="212" y="-210" type="line"/>
      <point x="269" y="-60" type="line"/>
      <point x="179" y="-60" type="line"/>
    </contour>
  </outline>
</glyph>
<glyph name="kgreenlandic" format="2">
  <advance width="435"/>
  <unicode hex="0138"/>
  <outline>
    <contour>
      <point x="70" y="0" type="line"/>
      <point x="160" y="0" type="line"/>
      <point x="205" y="260" type="line"/>
      <point x="325" y="0" type="line"/>
      <point x="425" y="0" type="line"/>
      <point x="296" y="265" type="line"/>
      <point x="493" y="500" type="line"/>
      <point x="393" y="500" type="line"/>
      <point x="207" y="270" type="line"/>
      <point x="248" y="500" type="line"/>
      <point x="158" y="500" type="line"/>
    </contour>
  </outline>
</glyph>
<glyph name="Lcommaaccent" format="2">
  <advance width="420"/>
  <unicode hex="013B"/>
  <outline>
    <contour>
      <point x="70" y="0" type="line"/>
      <point x="410" y="0" type="line"/>
      <point x="422" y="70" type="line"/>
      <point x="172" y="70" type="line"/>
      <point x="283" y="700" type="line"/>
      <point x="193" y="700" type="line"/>
    </contour>
    <contour>
      <point x="162" y="-210" type="line"/>
      <point x="222" y="-210" type="line"/>
      <point x="279" y="-60" type="line"/>
      <point x="189" y="-60" type="line"/>
    </contour>
  </outline>
</glyph>
<glyph name="lcommaaccent" format="2">
  <advance width="230"/>
  <unicode hex="013C"/>
  <outline>
    <contour>
      <point x="70" y="0" type="line"/>
      <point x="160" y="0" type="line"/>
      <point x="283" y="700" type="line"/>
      <point x="193" y="700" type="line"/>
    </contour>
    <contour>
      <point x="32" y="-210" type="line"/>
      <point x="92" y="-210" type="line"/>
      <point x="149" y="-60" type="line"/>
      <point x="59" y="-60" type="line"/>
    </contour>
  </outline>
</glyph>
<glyph name="ldot" format="2">
  <advance width="360"/>
  <unicode hex="0140"/>
  <outline>
    <contour>
      <point x="70" y="0" type="line"/>
      <point x="160" y="0" type="line"/>
      <point x="283" y="700" type="line"/>
      <point x="193" y="700" type="line"/>
    </contour>
    <contour>
      <point x="272" y="295" type="line"/>
      <point x="362" y="295" type="line"/>
      <point x="381" y="405" type="line"/>
      <point x="291" y="405" type="line"/>
    </contour>
  </outline>
</glyph>
<glyph name="Lslash" format="2">
  <advance width="425"/>
  <unicode hex="0141"/>
  <outline>
    <contour>
      <point x="75" y="0" type="line"/>
      <point x="415" y="0" type="line"/>
      <point x="427" y="70" type="line"/>
      <point x="177" y="70" type="line"/>
      <point x="227" y="355" type="line"/>
      <point x="334" y="420" type="line"/>
      <point x="307" y="470" type="line"/>
      <point x="240" y="430" type="line"/>
      <point x="288" y="700" type="line"/>
      <point x="198" y="700" type="line"/>
      <point x="139" y="365" type="line"/>
      <point x="43" y="305" type="line"/>
      <point x="69" y="255" type="line"/>
      <point x="126" y="290" type="line"/>
    </contour>
  </outline>
</glyph>
<glyph name="lslash" format="2">
  <advance width="270"/>
  <unicode hex="0142"/>
  <outline>
    <contour>
      <point x="85" y="0" type="line"/>
      <point x="175" y="0" type="line"/>
      <point x="237" y="355" type="line"/>
      <point x="344" y="420" type="line"/>
      <point x="317" y="470" type="line"/>
      <point x="250" y="430" type="line"/>
      <point x="298" y="700" type="line"/>
      <point x="208" y="700" type="line"/>
      <point x="149" y="365" type="line"/>
      <point x="53" y="305" type="line"/>
      <point x="79" y="255" type="line"/>
      <point x="136" y="290" type="line"/>
    </contour>
  </outline>
</glyph>
<glyph name="Nacute" format="2">
  <advance width="540"/>
  <unicode hex="0143"/>
  <outline>
    <contour>
      <point x="70" y="0" type="line"/>
      <point x="160" y="0" type="line"/>
      <point x="247" y="495" type="line"/>
      <point x="252" y="495" type="line"/>
      <point x="370" y="0" type="line"/>
      <point x="470" y="0" type="line"/>
      <point x="593" y="700" type="line"/>
      <point x="503" y="700" type="line"/>
      <point x="416" y="205" type="line"/>
      <point x="411" y="205" type="line"/>
      <point x="293" y="700" type="line"/>
      <point x="193" y="700" type="line"/>
    </contour>
    <contour>
      <point x="372" y="750" type="line"/>
      <point x="432" y="750" type="line"/>
      <point x="525" y="880" type="line"/>
      <point x="430" y="880" type="line"/>
    </contour>
  </outline>
</glyph>
<glyph name="nacute" format="2">
  <advance width="475"/>
  <unicode hex="0144"/>
  <outline>
    <contour>
      <point x="65" y="0" type="line"/>
      <point x="155" y="0" type="line"/>
      <point x="230" y="430" type="line"/>
      <point x="247" y="440"/>
      <point x="279" y="450"/>
      <point x="304" y="450" type="curve" smooth="yes"/>
      <point x="359" y="450"/>
      <point x="395" y="430"/>
      <point x="383" y="360" type="curve" smooth="yes"/>
      <point x="320" y="0" type="line"/>
      <point x="410" y="0" type="line"/>
      <point x="473" y="360" type="line" smooth="yes"/>
      <point x="494" y="480"/>
      <point x="439" y="510"/>
      <point x="344" y="510" type="curve" smooth="yes"/>
      <point x="304" y="510"/>
      <point x="262" y="495"/>
      <point x="232" y="470" type="curve"/>
      <point x="227" y="470" type="line"/>
      <point x="228" y="500" type="line"/>
      <point x="153" y="500" type="line"/>
    </contour>
    <contour>
      <point x="303" y="560" type="line"/>
      <point x="363" y="560" type="line"/>
      <point x="456" y="690" type="line"/>
      <point x="361" y="690" type="line"/>
    </contour>
  </outline>
</glyph>
<glyph name="ncommaaccent" format="2">
  <advance width="475"/>
  <unicode hex="0146"/>
  <outline>
    <contour>
      <point x="65" y="0" type="line"/>
      <point x="155" y="0" type="line"/>
      <point x="230" y="430" type="line"/>
      <point x="247" y="440"/>
      <point x="279" y="450"/>
      <point x="304" y="450" type="curve" smooth="yes"/>
      <point x="359" y="450"/>
      <point x="395" y="430"/>
      <point x="383" y="360" type="curve" smooth="yes"/>
      <point x="320" y="0" type="line"/>
      <point x="410" y="0" type="line"/>
      <point x="473" y="360" type="line" smooth="yes"/>
      <point x="494" y="480"/>
      <point x="439" y="510"/>
      <point x="344" y="510" type="curve" smooth="yes"/>
      <point x="304" y="510"/>
      <point x="262" y="495"/>
      <point x="232" y="470" type="curve"/>
      <point x="227" y="470" type="line"/>
      <point x="228" y="500" type="line"/>
      <point x="153" y="500" type="line"/>
    </contour>
    <contour>
      <point x="157" y="-210" type="line"/>
      <point x="217" y="-210" type="line"/>
      <point x="274" y="-60" type="line"/>
      <point x="184" y="-60" type="line"/>
    </contour>
  </outline>
</glyph>
<glyph name="OE" format="2">
  <advance width="740"/>
  <unicode hex="0152"/>
  <outline>
    <contour>
      <point x="330" y="0" type="curve" smooth="yes"/>
      <point x="700" y="0" type="line"/>
      <point x="712" y="70" type="line"/>
      <point x="462" y="70" type="line"/>
      <point x="508" y="330" type="line"/>
      <point x="728" y="330" type="line"/>
      <point x="740" y="400" type="line"/>
      <point x="520" y="400" type="line"/>
      <point x="561" y="630" type="line"/>
      <point x="811" y="630" type="line"/>
      <point x="823" y="700" type="line"/>
      <point x="453" y="700" type="line"/>
      <point x="263" y="700"/>
      <point x="145" y="600"/>
      <point x="101" y="350" type="curve"/>
      <point x="57" y="100"/>
      <point x="140" y="0"/>
    </contour>
    <contour>
      <point x="342" y="70" type="line" smooth="yes"/>
      <point x="212" y="70"/>
      <point x="154" y="140"/>
      <point x="191" y="350" type="curve"/>
      <point x="228" y="560"/>
      <point x="311" y="630"/>
      <point x="441" y="630" type="curve" smooth="yes"/>
      <point x="471" y="630" type="line"/>
      <point x="372" y="70" type="line"/>
    </contour>
  </outline>
</glyph>
<glyph name="rcommaaccent" format="2">
  <advance width="335"/>
  <unicode hex="0157"/>
  <outline>
    <contour>
      <point x="65" y="0" type="line"/>
      <point x="155" y="0" type="line"/>
      <point x="226" y="405" type="line"/>
      <point x="249" y="420"/>
      <point x="274" y="425"/>
      <point x="299" y="425" type="curve" smooth="yes"/>
      <point x="399" y="425" type="line"/>
      <point x="413" y="500" type="line"/>
      <point x="363" y="500" type="line" smooth="yes"/>
      <point x="303" y="500"/>
      <point x="259" y="480"/>
      <point x="232" y="460" type="curve"/>
      <point x="227" y="460" type="line"/>
      <point x="229" y="500" type="line"/>
      <point x="153" y="500" type="line"/>
    </contour>
    <contour>
      <point x="27" y="-210" type="line"/>
      <point x="87" y="-210" type="line"/>
      <point x="144" y="-60" type="line"/>
      <point x="54" y="-60" type="line"/>
    </contour>
  </outline>
</glyph>
<glyph name="Rcaron" format="2">
  <advance width="505"/>
  <unicode hex="0158"/>
  <outline>
    <contour>
      <point x="70" y="0" type="line"/>
      <point x="160" y="0" type="line"/>
      <point x="200" y="230" type="line"/>
      <point x="300" y="230" type="line"/>
      <point x="370" y="0" type="line"/>
      <point x="470" y="0" type="line"/>
      <point x="394" y="250" type="line"/>
      <point x="463" y="275"/>
      <point x="509" y="335"/>
      <point x="532" y="470" type="curve" smooth="yes"/>
      <point x="564" y="650"/>
      <point x="515" y="710"/>
      <point x="355" y="710" type="curve" smooth="yes"/>
      <point x="295" y="710"/>
      <point x="244" y="705"/>
      <point x="191" y="690" type="curve"/>
    </contour>
    <contour>
      <point x="212" y="300" type="line"/>
      <point x="273" y="645" type="line"/>
      <point x="343" y="645" type="line" smooth="yes"/>
      <point x="433" y="645"/>
      <point x="466" y="605"/>
      <point x="442" y="470" type="curve" smooth="yes"/>
      <point x="419" y="340"/>
      <point x="372" y="300"/>
      <point x="282" y="300" type="curve" smooth="yes"/>
    </contour>
    <contour>
      <point x="315" y="750" type="line"/>
      <point x="410" y="750" type="line"/>
      <point x="508" y="880" type="line"/>
      <point x="448" y="880" type="line"/>
      <point x="372" y="806" type="line"/>
      <point x="323" y="880" type="line"/>
      <point x="263" y="880" type="line"/>
    </contour>
  </outline>
</glyph>
<glyph name="Scedilla" format="2">
  <advance width="445"/>
  <unicode hex="015E"/>
  <outline>
    <contour>
      <point x="210" y="-165" type="curve" smooth="yes"/>
      <point x="275" y="-165"/>
      <point x="311" y="-135"/>
      <point x="318" y="-95" type="curve" smooth="yes"/>
      <point x="325" y="-55"/>
      <point x="300" y="-25"/>
      <point x="245" y="-25" type="curve" smooth="yes"/>
      <point x="230" y="-25" type="line"/>
      <point x="233" y="-7" type="line"/>
      <point x="362" y="4"/>
      <point x="421" y="64"/>
      <point x="441" y="180" type="curve" smooth="yes"/>
      <point x="484" y="425"/>
      <point x="185" y="345"/>
      <point x="218" y="530" type="curve" smooth="yes"/>
      <point x="231" y="605"/>
      <point x="278" y="645"/>
      <point x="358" y="645" type="curve" smooth="yes"/>
      <point x="488" y="645" type="line"/>
      <point x="496" y="690" type="line"/>
      <point x="468" y="700"/>
      <point x="410" y="710"/>
      <point x="350" y="710" type="curve" smooth="yes"/>
      <point x="220" y="710"/>
      <point x="149" y="650"/>
      <point x="128" y="530" type="curve" smooth="yes"/>
      <point x="83" y="275"/>
      <point x="382" y="355"/>
      <point x="351" y="180" type="curve" smooth="yes"/>
      <point x="336" y="95"/>
      <point x="289" y="55"/>
      <point x="174" y="55" type="curve" smooth="yes"/>
      <point x="44" y="55" type="line"/>
      <point x="36" y="10" type="line"/>
      <point x="65" y="0"/>
      <point x="123" y="-10"/>
      <point x="183" y="-10" type="curve"/>
      <point x="172" y="-70" type="line"/>
      <point x="227" y="-70" type="line" smooth="yes"/>
      <point x="247" y="-70"/>
      <point x="255" y="-80"/>
      <point x="253" y="-95" type="curve" smooth="yes"/>
      <point x="250" y="-110"/>
      <point x="238" y="-120"/>
      <point x="208" y="-120" type="curve" smooth="yes"/>
      <point x="143" y="-120" type="line"/>
      <point x="138" y="-150" type="line"/>
      <point x="138" y="-150"/>
      <point x="165" y="-165"/>
    </contour>
  </outline>
</glyph>
<glyph name="Uogonek" format="2">
  <advance width="520"/>
  <unicode hex="0172"/>
  <outline>
    <contour>
      <point x="271" y="-160" type="curve" smooth="yes"/>
      <point x="316" y="-160"/>
      <point x="349" y="-145"/>
      <point x="349" y="-145" type="curve"/>
      <point x="356" y="-104" type="line"/>
      <point x="321" y="-104" type="line" smooth="yes"/>
      <point x="276" y="-104"/>
      <point x="264" y="-90"/>
      <point x="272" y="-45" type="curve" smooth="yes"/>
      <point x="278" y="-9" type="line"/>
      <point x="405" y="-4"/>
      <point x="470" y="59"/>
      <point x="502" y="240" type="curve" smooth="yes"/>
      <point x="583" y="700" type="line"/>
      <point x="493" y="700" type="line"/>
      <point x="412" y="240" type="line" smooth="yes"/>
      <point x="385" y="90"/>
      <point x="338" y="50"/>
      <point x="268" y="50" type="curve" smooth="yes"/>
      <point x="198" y="50"/>
      <point x="165" y="90"/>
      <point x="192" y="240" type="curve" smooth="yes"/>
      <point x="273" y="700" type="line"/>
      <point x="183" y="700" type="line"/>
      <point x="102" y="240" type="line" smooth="yes"/>
      <point x="70" y="61"/>
      <point x="112" y="-2"/>
      <point x="232" y="-9" type="curve"/>
      <point x="223" y="-22"/>
      <point x="206" y="-48"/>
      <point x="200" y="-80" type="curve" smooth="yes"/>
      <point x="192" y="-130"/>
      <point x="216" y="-160"/>
    </contour>
  </outline>
</glyph>
<glyph name="uogonek" format="2">
  <advance width="480"/>
  <unicode hex="0173"/>
  <outline>
    <contour>
      <point x="376" y="-160" type="curve" smooth="yes"/>
      <point x="421" y="-160"/>
      <point x="454" y="-145"/>
      <point x="454" y="-145" type="curve"/>
      <point x="461" y="-104" type="line"/>
      <point x="426" y="-104" type="line" smooth="yes"/>
      <point x="381" y="-104"/>
      <point x="369" y="-90"/>
      <point x="377" y="-45" type="curve" smooth="yes"/>
      <point x="385" y="0" type="line"/>
      <point x="410" y="0" type="line"/>
      <point x="498" y="500" type="line"/>
      <point x="408" y="500" type="line"/>
      <point x="332" y="70" type="line"/>
      <point x="315" y="60"/>
      <point x="283" y="50"/>
      <point x="258" y="50" type="curve" smooth="yes"/>
      <point x="203" y="50"/>
      <point x="167" y="70"/>
      <point x="179" y="140" type="curve" smooth="yes"/>
      <point x="243" y="500" type="line"/>
      <point x="153" y="500" type="line"/>
      <point x="89" y="140" type="line" smooth="yes"/>
      <point x="68" y="20"/>
      <point x="123" y="-10"/>
      <point x="218" y="-10" type="curve" smooth="yes"/>
      <point x="258" y="-10"/>
      <point x="300" y="5"/>
      <point x="330" y="30" type="curve"/>
      <point x="335" y="30" type="line"/>
      <point x="335" y="0" type="line"/>
      <point x="345" y="0" type="line"/>
      <point x="345" y="0"/>
      <point x="313" y="-35"/>
      <point x="305" y="-80" type="curve" smooth="yes"/>
      <point x="297" y="-130"/>
      <point x="321" y="-160"/>
    </contour>
  </outline>
</glyph>
<glyph name="Ydieresis" format="2">
  <advance width="450"/>
  <unicode hex="0178"/>
  <outline>
    <contour>
      <point x="180" y="0" type="line"/>
      <point x="270" y="0" type="line"/>
      <point x="308" y="220" type="line"/>
      <point x="563" y="700" type="line"/>
      <point x="473" y="700" type="line"/>
      <point x="285" y="345" type="line"/>
      <point x="223" y="700" type="line"/>
      <point x="133" y="700" type="line"/>
      <point x="218" y="220" type="line"/>
    </contour>
    <contour>
      <point x="235" y="770" type="line"/>
      <point x="325" y="770" type="line"/>
      <point x="345" y="880" type="line"/>
      <point x="255" y="880" type="line"/>
    </contour>
    <contour>
      <point x="395" y="770" type="line"/>
      <point x="485" y="770" type="line"/>
      <point x="505" y="880" type="line"/>
      <point x="415" y="880" type="line"/>
    </contour>
  </outline>
</glyph>
<glyph name="Zacute" format="2">
  <advance width="405"/>
  <unicode hex="0179"/>
  <outline>
    <contour>
      <point x="20" y="0" type="line"/>
      <point x="380" y="0" type="line"/>
      <point x="392" y="70" type="line"/>
      <point x="137" y="70" type="line"/>
      <point x="496" y="635" type="line"/>
      <point x="508" y="700" type="line"/>
      <point x="148" y="700" type="line"/>
      <point x="136" y="630" type="line"/>
      <point x="391" y="630" type="line"/>
      <point x="31" y="65" type="line"/>
    </contour>
    <contour>
      <point x="302" y="750" type="line"/>
      <point x="362" y="750" type="line"/>
      <point x="455" y="880" type="line"/>
      <point x="360" y="880" type="line"/>
    </contour>
  </outline>
</glyph>
<glyph name="zacute" format="2">
  <advance width="370"/>
  <unicode hex="017A"/>
  <outline>
    <contour>
      <point x="20" y="0" type="line"/>
      <point x="345" y="0" type="line"/>
      <point x="356" y="65" type="line"/>
      <point x="137" y="65" type="line"/>
      <point x="427" y="440" type="line"/>
      <point x="438" y="500" type="line"/>
      <point x="118" y="500" type="line"/>
      <point x="106" y="435" type="line"/>
      <point x="321" y="435" type="line"/>
      <point x="30" y="60" type="line"/>
    </contour>
    <contour>
      <point x="248" y="560" type="line"/>
      <point x="308" y="560" type="line"/>
      <point x="401" y="690" type="line"/>
      <point x="306" y="690" type="line"/>
    </contour>
  </outline>
</glyph>
<glyph name="Zdotaccent" format="2">
  <advance width="405"/>
  <unicode hex="017B"/>
  <outline>
    <contour>
      <point x="20" y="0" type="line"/>
      <point x="380" y="0" type="line"/>
      <point x="392" y="70" type="line"/>
      <point x="137" y="70" type="line"/>
      <point x="496" y="635" type="line"/>
      <point x="508" y="700" type="line"/>
      <point x="148" y="700" type="line"/>
      <point x="136" y="630" type="line"/>
      <point x="391" y="630" type="line"/>
      <point x="31" y="65" type="line"/>
    </contour>
    <contour>
      <point x="295" y="770" type="line"/>
      <point x="385" y="770" type="line"/>
      <point x="405" y="880" type="line"/>
      <point x="315" y="880" type="line"/>
    </contour>
  </outline>
</glyph>
